G04 #@! TF.GenerationSoftware,KiCad,Pcbnew,(6.0.0-rc1-dev-1542-gf9f87b3ff-dirty)*
G04 #@! TF.CreationDate,2019-02-04T09:30:53-08:00
G04 #@! TF.ProjectId,qplfo_v22,71706c66-6f5f-4763-9232-2e6b69636164,rev?*
G04 #@! TF.SameCoordinates,PX1329208PY7e341b0*
G04 #@! TF.FileFunction,Copper,L2,Bot*
G04 #@! TF.FilePolarity,Positive*
%FSLAX46Y46*%
G04 Gerber Fmt 4.6, Leading zero omitted, Abs format (unit mm)*
G04 Created by KiCad (PCBNEW (6.0.0-rc1-dev-1542-gf9f87b3ff-dirty)) date Monday, 04 February 2019 at 09:30:53*
%MOMM*%
%LPD*%
G04 APERTURE LIST*
%ADD10C,1.930400*%
%ADD11R,1.727200X2.032000*%
%ADD12O,1.727200X2.032000*%
%ADD13C,2.286000*%
%ADD14C,2.499360*%
%ADD15C,1.308000*%
%ADD16R,1.308000X1.308000*%
%ADD17C,2.000000*%
%ADD18R,2.000000X2.000000*%
%ADD19R,1.727200X1.727200*%
%ADD20O,1.727200X1.727200*%
%ADD21C,0.787400*%
%ADD22C,0.180400*%
%ADD23C,0.180340*%
G04 APERTURE END LIST*
D10*
X52451000Y97409000D03*
X52451000Y86436200D03*
X52451000Y88849200D03*
X52451000Y70739000D03*
X52451000Y59766200D03*
X52451000Y62179200D03*
X52451000Y44069000D03*
X52451000Y33096200D03*
X52451000Y35509200D03*
X52451000Y6985000D03*
X52451000Y17957800D03*
X52451000Y15544800D03*
X57658000Y104317800D03*
X46685200Y104317800D03*
X49098200Y104317800D03*
X57658000Y77724000D03*
X46685200Y77724000D03*
X49098200Y77724000D03*
X57658000Y51054000D03*
X46685200Y51054000D03*
X49098200Y51054000D03*
X57658000Y24384000D03*
X46685200Y24384000D03*
X49098200Y24384000D03*
X31242000Y86106000D03*
X42214800Y86106000D03*
X39801800Y86106000D03*
X31242000Y59436000D03*
X42214800Y59436000D03*
X39801800Y59436000D03*
X31242000Y32766000D03*
X42214800Y32766000D03*
X39801800Y32766000D03*
X31242000Y6096000D03*
X42214800Y6096000D03*
X39801800Y6096000D03*
X31242000Y98298000D03*
X42214800Y98298000D03*
X39801800Y98298000D03*
X31242000Y71628000D03*
X42214800Y71628000D03*
X39801800Y71628000D03*
X31242000Y44958000D03*
X42214800Y44958000D03*
X39801800Y44958000D03*
X41656000Y18288000D03*
X30683200Y18288000D03*
X33096200Y18288000D03*
D11*
X39916100Y12179000D03*
D12*
X37376100Y12179000D03*
X34836100Y12179000D03*
D13*
X25193000Y85344000D03*
X20193000Y85344000D03*
X15193000Y85344000D03*
X25193000Y58674000D03*
X20193000Y58674000D03*
X15193000Y58674000D03*
X25193000Y32004000D03*
X20193000Y32004000D03*
X15193000Y32004000D03*
X25193000Y5334000D03*
X20193000Y5334000D03*
X15193000Y5334000D03*
D14*
X50126920Y4419640D03*
X45128200Y1920280D03*
X45128200Y6919000D03*
X35090120Y24180640D03*
X30091400Y21681280D03*
X30091400Y26680000D03*
D15*
X8331200Y39980000D03*
X8331200Y37440000D03*
X8331200Y34900000D03*
X3251200Y39980000D03*
X3251200Y37440000D03*
X3251200Y34900000D03*
X5791200Y32360000D03*
D16*
X5791200Y42520000D03*
D15*
X8331200Y13310000D03*
X8331200Y10770000D03*
X8331200Y8230000D03*
X3251200Y13310000D03*
X3251200Y10770000D03*
X3251200Y8230000D03*
X5791200Y5690000D03*
D16*
X5791200Y15850000D03*
D15*
X8331200Y93319600D03*
X8331200Y90779600D03*
X8331200Y88239600D03*
X3251200Y93319600D03*
X3251200Y90779600D03*
X3251200Y88239600D03*
X5791200Y85699600D03*
D16*
X5791200Y95859600D03*
D15*
X8331200Y66649600D03*
X8331200Y64109600D03*
X8331200Y61569600D03*
X3251200Y66649600D03*
X3251200Y64109600D03*
X3251200Y61569600D03*
X5791200Y59029600D03*
D16*
X5791200Y69189600D03*
D15*
X8331200Y106680000D03*
X8331200Y104140000D03*
X8331200Y101600000D03*
X3251200Y106680000D03*
X3251200Y104140000D03*
X3251200Y101600000D03*
X5791200Y99060000D03*
D16*
X5791200Y109220000D03*
D15*
X8331200Y80010000D03*
X8331200Y77470000D03*
X8331200Y74930000D03*
X3251200Y80010000D03*
X3251200Y77470000D03*
X3251200Y74930000D03*
X5791200Y72390000D03*
D16*
X5791200Y82550000D03*
D15*
X8331200Y53340000D03*
X8331200Y50800000D03*
X8331200Y48260000D03*
X3251200Y53340000D03*
X3251200Y50800000D03*
X3251200Y48260000D03*
X5791200Y45720000D03*
D16*
X5791200Y55880000D03*
D15*
X8331200Y26670000D03*
X8331200Y24130000D03*
X8331200Y21590000D03*
X3251200Y26670000D03*
X3251200Y24130000D03*
X3251200Y21590000D03*
X5791200Y19050000D03*
D16*
X5791200Y29210000D03*
D17*
X44450000Y40132000D03*
D18*
X44450000Y37592000D03*
D17*
X44450000Y13462000D03*
D18*
X44450000Y10922000D03*
D17*
X44450000Y93472000D03*
D18*
X44450000Y90932000D03*
D17*
X44450000Y66802000D03*
D18*
X44450000Y64262000D03*
D19*
X25146000Y28981000D03*
D20*
X25146000Y26441000D03*
X22606000Y28981000D03*
X22606000Y26441000D03*
X20066000Y28981000D03*
X20066000Y26441000D03*
X17526000Y28981000D03*
X17526000Y26441000D03*
X14986000Y28981000D03*
X14986000Y26441000D03*
D11*
X24104600Y82219800D03*
D12*
X21564600Y82219800D03*
X19024600Y82219800D03*
X16484600Y82219800D03*
X13944600Y82219800D03*
X11404600Y82219800D03*
D19*
X31820200Y77809600D03*
D20*
X31820200Y80349600D03*
X34360200Y77809600D03*
X34360200Y80349600D03*
X36900200Y77809600D03*
X36900200Y80349600D03*
X39440200Y77809600D03*
X39440200Y80349600D03*
D19*
X30160800Y50992700D03*
D20*
X30160800Y53532700D03*
X32700800Y50992700D03*
X32700800Y53532700D03*
X35240800Y50992700D03*
X35240800Y53532700D03*
X37780800Y50992700D03*
X37780800Y53532700D03*
D19*
X27317700Y106070400D03*
D20*
X27317700Y108610400D03*
X29857700Y106070400D03*
X29857700Y108610400D03*
X32397700Y106070400D03*
X32397700Y108610400D03*
X34937700Y106070400D03*
X34937700Y108610400D03*
D21*
X48183800Y58716600D03*
X17753700Y60123600D03*
X51847500Y76516700D03*
X52387900Y53171500D03*
X55749000Y77985100D03*
X49850800Y18746600D03*
X14495500Y13290000D03*
X54571400Y30386900D03*
X17200200Y20664800D03*
X24837100Y20135200D03*
X15077600Y66482900D03*
X53940900Y37265400D03*
X54213500Y8978600D03*
X25307400Y94159800D03*
X53687400Y64754300D03*
X12726600Y62408300D03*
X13756100Y62886700D03*
X13157200Y91084396D03*
X11746800Y62450100D03*
X6846100Y92378800D03*
X16750700Y71495100D03*
X6920200Y75767200D03*
X17488700Y72370700D03*
X9794400Y60855800D03*
X19412000Y65955600D03*
X19093100Y56801200D03*
X9730400Y37179600D03*
X13084400Y58577500D03*
X16722000Y60325800D03*
X38815700Y61713700D03*
X26104900Y9842100D03*
X49593000Y15434200D03*
X51399500Y29176800D03*
X43396900Y94839800D03*
X38123700Y92173400D03*
X54228700Y57162200D03*
X47095300Y55319500D03*
X36106100Y17494400D03*
X53692200Y41605800D03*
X23510000Y67941100D03*
X46819200Y71967200D03*
X21812000Y77981400D03*
X27697400Y66210100D03*
X49133800Y63485600D03*
X32650700Y35875000D03*
X49699400Y33685400D03*
X20980200Y67108400D03*
X50663300Y82659800D03*
X27145500Y75120100D03*
X36885100Y70369600D03*
X16756538Y73555877D03*
X39205800Y35186400D03*
X21219019Y75474814D03*
X26181200Y80814400D03*
X50673600Y53335700D03*
X51042900Y45210400D03*
X46525000Y27422100D03*
X9566000Y82277900D03*
X19557700Y73829000D03*
X13919200Y74574400D03*
X10058400Y72821800D03*
X9347200Y70993000D03*
X4953000Y65151000D03*
X22104086Y74437484D03*
X31701600Y69050000D03*
X38124500Y31410900D03*
X54214000Y17942700D03*
X56818200Y57922300D03*
X57262800Y31648500D03*
X54048200Y74243700D03*
X27686000Y95915700D03*
X37531700Y72887400D03*
X30413700Y69048800D03*
X38146900Y70165900D03*
X36852400Y71377700D03*
X46856700Y95150400D03*
X45434200Y41980200D03*
X51331300Y56442300D03*
X12628500Y101833000D03*
X43343100Y18106400D03*
X44062000Y74250900D03*
X47030100Y44419300D03*
X26667000Y51559500D03*
X33461700Y30644300D03*
X50978300Y22809700D03*
X25238500Y70246100D03*
X28321000Y72483200D03*
X26256100Y69927400D03*
X51874700Y75120900D03*
X46167000Y69411300D03*
X34962200Y67735700D03*
X47083900Y67471300D03*
X41452200Y65628100D03*
X47434700Y16436900D03*
X38897900Y41231300D03*
X46539300Y37368900D03*
X22903200Y37287300D03*
X44340000Y59433800D03*
X29410300Y19842400D03*
X42416400Y31213200D03*
X41084600Y41073400D03*
X21882800Y34082300D03*
X37424400Y34252800D03*
X12086300Y32863900D03*
X44965300Y78952400D03*
X47526900Y33325100D03*
X26544000Y34713800D03*
X23779100Y90404300D03*
X31545200Y89324100D03*
X51432900Y90652500D03*
X18262600Y92354400D03*
X16205200Y92532200D03*
X22874500Y75259600D03*
D22*
X32397700Y108610400D02*
X29857700Y108610400D01*
X29857700Y108610400D02*
X27317700Y108610400D01*
X32397700Y108610400D02*
X34937700Y108610400D01*
X34937700Y108610400D02*
X36072000Y108610400D01*
X17526000Y26441000D02*
X20066000Y26441000D01*
X42214800Y4833700D02*
X42214800Y6096000D01*
X45128200Y1920300D02*
X42214800Y4833700D01*
X20066000Y26441000D02*
X22606000Y26441000D01*
X28287300Y21681300D02*
X30091400Y21681300D01*
X23740300Y26228300D02*
X28287300Y21681300D01*
X23740300Y26441000D02*
X23740300Y26228300D01*
X22606000Y26441000D02*
X23740300Y26441000D01*
X33096200Y18288000D02*
X30683200Y18288000D01*
X39801800Y44958000D02*
X42214800Y44958000D01*
X42214800Y104317800D02*
X46685200Y104317800D01*
X39801800Y59436000D02*
X42214800Y59436000D01*
X40364600Y104317800D02*
X42214800Y104317800D01*
X36072000Y108610400D02*
X40364600Y104317800D01*
X7084800Y85699600D02*
X5791200Y85699600D01*
X8867000Y83917400D02*
X7084800Y85699600D01*
X16547200Y83917400D02*
X8867000Y83917400D01*
X17890300Y82574300D02*
X16547200Y83917400D01*
X17890300Y82219800D02*
X17890300Y82574300D01*
X18457500Y82219800D02*
X17890300Y82219800D01*
X18457500Y82219800D02*
X19024600Y82219800D01*
X22928600Y85344000D02*
X25193000Y85344000D01*
X20158900Y82574300D02*
X22928600Y85344000D01*
X20158900Y82219800D02*
X20158900Y82574300D01*
X19024600Y82219800D02*
X20158900Y82219800D01*
X51401400Y58716600D02*
X48183800Y58716600D01*
X52451000Y59766200D02*
X51401400Y58716600D01*
X32700800Y53532700D02*
X35240800Y53532700D01*
X38565900Y4860100D02*
X39801800Y6096000D01*
X25666900Y4860100D02*
X38565900Y4860100D01*
X25193000Y5334000D02*
X25666900Y4860100D01*
X39801800Y6096000D02*
X42214800Y6096000D01*
X42214800Y98298000D02*
X42214800Y104317800D01*
X42214800Y98298000D02*
X39801800Y98298000D01*
X30160800Y53532700D02*
X30160800Y54099900D01*
X30999300Y54099900D02*
X31566500Y53532700D01*
X30160800Y54099900D02*
X30999300Y54099900D01*
X32700800Y53532700D02*
X31566500Y53532700D01*
X17526000Y28981000D02*
X16391700Y28981000D01*
X4866400Y23205200D02*
X3251200Y21590000D01*
X4866400Y25262300D02*
X4866400Y23205200D01*
X8035900Y28431800D02*
X4866400Y25262300D01*
X8035900Y30115300D02*
X8035900Y28431800D01*
X5791200Y32360000D02*
X8035900Y30115300D01*
X16391700Y29193800D02*
X16391700Y28981000D01*
X15470200Y30115300D02*
X16391700Y29193800D01*
X8035900Y30115300D02*
X15470200Y30115300D01*
X29767100Y54099900D02*
X30160800Y54099900D01*
X25193000Y58674000D02*
X29767100Y54099900D01*
X8331200Y92924200D02*
X8331200Y93319600D01*
X7084800Y91677800D02*
X8331200Y92924200D01*
X7084800Y85699600D02*
X7084800Y91677800D01*
X35240800Y53532700D02*
X37780800Y53532700D01*
X37780800Y57415000D02*
X39801800Y59436000D01*
X37780800Y53532700D02*
X37780800Y57415000D01*
X46397700Y51341500D02*
X46685200Y51054000D01*
X46397700Y57305700D02*
X46397700Y51341500D01*
X46772900Y57305700D02*
X46397700Y57305700D01*
X48183800Y58716600D02*
X46772900Y57305700D01*
X44345100Y57305700D02*
X42214800Y59436000D01*
X46397700Y57305700D02*
X44345100Y57305700D01*
X45860600Y25208600D02*
X46685200Y24384000D01*
X45860600Y29839700D02*
X45860600Y25208600D01*
X45141100Y29839700D02*
X45860600Y29839700D01*
X42214800Y32766000D02*
X45141100Y29839700D01*
X49194500Y29839700D02*
X52451000Y33096200D01*
X45860600Y29839700D02*
X49194500Y29839700D01*
X7052700Y57768100D02*
X7052700Y57250900D01*
X5791200Y59029600D02*
X7052700Y57768100D01*
X7052700Y52061500D02*
X3251200Y48260000D01*
X7052700Y57250900D02*
X7052700Y52061500D01*
X23743400Y60123600D02*
X17753700Y60123600D01*
X25193000Y58674000D02*
X23743400Y60123600D01*
X17753700Y59219900D02*
X17753700Y60123600D01*
X15784700Y57250900D02*
X17753700Y59219900D01*
X7052700Y57250900D02*
X15784700Y57250900D01*
X23304300Y30115300D02*
X25193000Y32004000D01*
X22606000Y30115300D02*
X23304300Y30115300D01*
X22606000Y28981000D02*
X22606000Y30115300D01*
X25667000Y31530000D02*
X25193000Y32004000D01*
X32094400Y31530000D02*
X25667000Y31530000D01*
X33330400Y32766000D02*
X32094400Y31530000D01*
X39801800Y32766000D02*
X33330400Y32766000D01*
X46685200Y75929900D02*
X46685200Y77724000D01*
X42383300Y71628000D02*
X46685200Y75929900D01*
X42214800Y71628000D02*
X42383300Y71628000D01*
X51847400Y76516700D02*
X51847500Y76516700D01*
X51847400Y76761200D02*
X51847400Y76516700D01*
X49642800Y78965800D02*
X51847400Y76761200D01*
X46685200Y78965800D02*
X49642800Y78965800D01*
X46685200Y77724000D02*
X46685200Y78965800D01*
X51485800Y86436200D02*
X46685200Y81635600D01*
X52451000Y86436200D02*
X51485800Y86436200D01*
X46685200Y78965800D02*
X46685200Y81635600D01*
X46685200Y81635600D02*
X42214800Y86106000D01*
X16809400Y15603900D02*
X14495500Y13290000D01*
X47619000Y15603900D02*
X16809400Y15603900D01*
X49850800Y17835700D02*
X47619000Y15603900D01*
X49850800Y18746600D02*
X49850800Y17835700D01*
X55749000Y56532600D02*
X55749000Y77985100D01*
X52387900Y53171500D02*
X55749000Y56532600D01*
X55820500Y49738900D02*
X52387900Y53171500D01*
X55820500Y40377300D02*
X55820500Y49738900D01*
X56085200Y40112600D02*
X55820500Y40377300D01*
X56085200Y31900700D02*
X56085200Y40112600D01*
X54571400Y30386900D02*
X56085200Y31900700D01*
X54571400Y23467200D02*
X54571400Y30386900D01*
X49850800Y18746600D02*
X54571400Y23467200D01*
X24307500Y20664800D02*
X24837100Y20135200D01*
X17200200Y20664800D02*
X24307500Y20664800D01*
X15471299Y66876599D02*
X15077600Y66482900D01*
X26878100Y85680000D02*
X26878100Y78234232D01*
X16621800Y86772800D02*
X25785300Y86772800D01*
X15193000Y85344000D02*
X16621800Y86772800D01*
X25785300Y86772800D02*
X26878100Y85680000D01*
X15520467Y66876599D02*
X15471299Y66876599D01*
X26878100Y78234232D02*
X15520467Y66876599D01*
X4446900Y36095700D02*
X3251200Y34900000D01*
X10312400Y36095700D02*
X4446900Y36095700D01*
X10756100Y36539400D02*
X10312400Y36095700D01*
X39303000Y36539400D02*
X10756100Y36539400D01*
X39926300Y35916100D02*
X39303000Y36539400D01*
X46841800Y35916100D02*
X39926300Y35916100D01*
X48191100Y37265400D02*
X46841800Y35916100D01*
X53940900Y37265400D02*
X48191100Y37265400D01*
X4196500Y9175300D02*
X3251200Y8230000D01*
X54016800Y9175300D02*
X4196500Y9175300D01*
X54213500Y8978600D02*
X54016800Y9175300D01*
X4437100Y89425500D02*
X3251200Y88239600D01*
X4437100Y91485700D02*
X4437100Y89425500D01*
X7616900Y94665500D02*
X4437100Y91485700D01*
X24801700Y94665500D02*
X7616900Y94665500D01*
X25307400Y94159800D02*
X24801700Y94665500D01*
X53130625Y64754300D02*
X53687400Y64754300D01*
X49799700Y62406400D02*
X52147600Y64754300D01*
X15896600Y62406400D02*
X49799700Y62406400D01*
X13670400Y60180200D02*
X15896600Y62406400D01*
X52147600Y64754300D02*
X53130625Y64754300D01*
X5565495Y60180200D02*
X13670400Y60180200D01*
X3251200Y61569600D02*
X4176095Y61569600D01*
X4176095Y61569600D02*
X5565495Y60180200D01*
X5791200Y39980000D02*
X5791200Y42520000D01*
X8331200Y37440000D02*
X5791200Y39980000D01*
X36900200Y77809600D02*
X35765900Y77809600D01*
X35765900Y77596800D02*
X35765900Y77809600D01*
X34479400Y76310300D02*
X35765900Y77596800D01*
X26729300Y76310300D02*
X34479400Y76310300D01*
X15502500Y65083500D02*
X26729300Y76310300D01*
X15013300Y65083500D02*
X15502500Y65083500D01*
X12996900Y63067100D02*
X15013300Y65083500D01*
X12996900Y62678500D02*
X12996900Y63067100D01*
X12996800Y62678500D02*
X12996900Y62678500D01*
X12726600Y62408300D02*
X12996800Y62678500D01*
X5791200Y13310000D02*
X5791200Y15850000D01*
X8331200Y10770000D02*
X5791200Y13310000D01*
X39440200Y77809600D02*
X38305900Y77809600D01*
X38305900Y77596900D02*
X38305900Y77809600D01*
X36651800Y75942800D02*
X38305900Y77596900D01*
X26872400Y75942800D02*
X36651800Y75942800D01*
X13816300Y62886700D02*
X26872400Y75942800D01*
X13756100Y62886700D02*
X13816300Y62886700D01*
X16664596Y87577000D02*
X13550899Y90690697D01*
X28538200Y84530400D02*
X25491600Y87577000D01*
X28538200Y80047600D02*
X28538200Y84530400D01*
X25491600Y87577000D02*
X16664596Y87577000D01*
X30776200Y77809600D02*
X28538200Y80047600D01*
X31820200Y77809600D02*
X30776200Y77809600D01*
X13550899Y90690697D02*
X13157200Y91084396D01*
X5791200Y66649600D02*
X5791200Y69189600D01*
X8331200Y64109600D02*
X5791200Y66649600D01*
X34360200Y77809600D02*
X33225900Y77809600D01*
X33225900Y77100600D02*
X33225900Y77809600D01*
X32800600Y76675300D02*
X33225900Y77100600D01*
X26308500Y76675300D02*
X32800600Y76675300D01*
X15077600Y65444400D02*
X26308500Y76675300D01*
X14741100Y65444400D02*
X15077600Y65444400D01*
X11746800Y62450100D02*
X14741100Y65444400D01*
X10187400Y71495100D02*
X16750700Y71495100D01*
X4840600Y76841900D02*
X10187400Y71495100D01*
X4840600Y86902400D02*
X4840600Y76841900D01*
X6249600Y88311400D02*
X4840600Y86902400D01*
X6249600Y91782300D02*
X6249600Y88311400D01*
X6846100Y92378800D02*
X6249600Y91782300D01*
X16931925Y72370700D02*
X17488700Y72370700D01*
X14659641Y74642984D02*
X16931925Y72370700D01*
X14659641Y74944037D02*
X14659641Y74642984D01*
X13442779Y76160899D02*
X14659641Y74944037D01*
X7313899Y76160899D02*
X13442779Y76160899D01*
X6920200Y75767200D02*
X7313899Y76160899D01*
X18599800Y65955600D02*
X19412000Y65955600D01*
X13500000Y60855800D02*
X18599800Y65955600D01*
X9794400Y60855800D02*
X13500000Y60855800D01*
X19093100Y46542300D02*
X9730400Y37179600D01*
X19093100Y56801200D02*
X19093100Y46542300D01*
X14832700Y60325800D02*
X13084400Y58577500D01*
X16722000Y60325800D02*
X14832700Y60325800D01*
X18109900Y61713700D02*
X38815700Y61713700D01*
X16722000Y60325800D02*
X18109900Y61713700D01*
X48891500Y14732700D02*
X49593000Y15434200D01*
X43833300Y14732700D02*
X48891500Y14732700D01*
X42677800Y13577200D02*
X43833300Y14732700D01*
X42677800Y12678200D02*
X42677800Y13577200D01*
X39841700Y9842100D02*
X42677800Y12678200D01*
X26104900Y9842100D02*
X39841700Y9842100D01*
X49749200Y52665600D02*
X47095300Y55319500D01*
X50985600Y52665600D02*
X49749200Y52665600D01*
X51362600Y53042600D02*
X50985600Y52665600D01*
X51362600Y54296100D02*
X51362600Y53042600D01*
X54228700Y57162200D02*
X51362600Y54296100D01*
X40790100Y94839800D02*
X43396900Y94839800D01*
X38123700Y92173400D02*
X40790100Y94839800D01*
X40405900Y21794200D02*
X36106100Y17494400D01*
X50914900Y21794200D02*
X40405900Y21794200D01*
X51686800Y22566100D02*
X50914900Y21794200D01*
X51686800Y28889500D02*
X51686800Y22566100D01*
X51399500Y29176800D02*
X51686800Y28889500D01*
X53692200Y40793800D02*
X53692200Y41605800D01*
X55002500Y39483500D02*
X53692200Y40793800D01*
X55002500Y33374400D02*
X55002500Y39483500D01*
X51399500Y29771400D02*
X55002500Y33374400D01*
X51399500Y29176800D02*
X51399500Y29771400D01*
X45792200Y71967200D02*
X46819200Y71967200D01*
X42225200Y68400200D02*
X45792200Y71967200D01*
X33531000Y68400200D02*
X42225200Y68400200D01*
X33071900Y67941100D02*
X33531000Y68400200D01*
X23510000Y67941100D02*
X33071900Y67941100D01*
X11404600Y82219800D02*
X12538900Y82219800D01*
X16422800Y77981400D02*
X21812000Y77981400D01*
X12538900Y81865300D02*
X16422800Y77981400D01*
X12538900Y82219800D02*
X12538900Y81865300D01*
X30916300Y62991200D02*
X27697400Y66210100D01*
X48639400Y62991200D02*
X30916300Y62991200D01*
X49133800Y63485600D02*
X48639400Y62991200D01*
X39456900Y35875000D02*
X32650700Y35875000D01*
X39791600Y35540300D02*
X39456900Y35875000D01*
X47844500Y35540300D02*
X39791600Y35540300D01*
X49699400Y33685400D02*
X47844500Y35540300D01*
X52539100Y80784000D02*
X50663300Y82659800D01*
X52539100Y74791600D02*
X52539100Y80784000D01*
X46494400Y68746900D02*
X52539100Y74791600D01*
X44060500Y68746900D02*
X46494400Y68746900D01*
X42342900Y67029300D02*
X44060500Y68746900D01*
X21059300Y67029300D02*
X42342900Y67029300D01*
X20980200Y67108400D02*
X21059300Y67029300D01*
X32134600Y75120100D02*
X27145500Y75120100D01*
X36885100Y70369600D02*
X32134600Y75120100D01*
X9351200Y63155800D02*
X17774880Y71579480D01*
X17313313Y73555877D02*
X16756538Y73555877D01*
X27011100Y35186400D02*
X26819300Y35378200D01*
X26819300Y35378200D02*
X11742900Y35378200D01*
X18154000Y72080336D02*
X18154000Y72715190D01*
X1954600Y31317600D02*
X1954600Y62113800D01*
X2996600Y63155800D02*
X9351200Y63155800D01*
X1954600Y62113800D02*
X2996600Y63155800D01*
X9893100Y33528400D02*
X5594400Y33528400D01*
X17774880Y71701216D02*
X18154000Y72080336D01*
X39205800Y35186400D02*
X27011100Y35186400D01*
X17774880Y71579480D02*
X17774880Y71701216D01*
X4862400Y32796400D02*
X4862400Y31867800D01*
X11742900Y35378200D02*
X9893100Y33528400D01*
X5594400Y33528400D02*
X4862400Y32796400D01*
X18154000Y72715190D02*
X17313313Y73555877D01*
X6768600Y29961600D02*
X6768600Y28470100D01*
X6768600Y28470100D02*
X6583700Y28285200D01*
X6583700Y28285200D02*
X4987000Y28285200D01*
X4987000Y28285200D02*
X1954600Y31317600D01*
X4862400Y31867800D02*
X6768600Y29961600D01*
X26181200Y80814400D02*
X21219019Y75852219D01*
X21219019Y75852219D02*
X21219019Y75474814D01*
X47791100Y66802000D02*
X50188300Y69199200D01*
X44450000Y66802000D02*
X47791100Y66802000D01*
X51042900Y40132000D02*
X51042900Y45210400D01*
X44450000Y40132000D02*
X51042900Y40132000D01*
X48527900Y27422100D02*
X46525000Y27422100D01*
X54639200Y33533400D02*
X48527900Y27422100D01*
X54639200Y37506900D02*
X54639200Y33533400D01*
X52014100Y40132000D02*
X54639200Y37506900D01*
X51042900Y40132000D02*
X52014100Y40132000D01*
X50188300Y71323400D02*
X50188300Y69199200D01*
X53687800Y74822900D02*
X50188300Y71323400D01*
X53687800Y89371200D02*
X53687800Y74822900D01*
X49587000Y93472000D02*
X53687800Y89371200D01*
X44450000Y93472000D02*
X49587000Y93472000D01*
X50601600Y53407700D02*
X50673600Y53335700D01*
X50601600Y56652200D02*
X50601600Y53407700D01*
X51056100Y57106700D02*
X50601600Y56652200D01*
X51539400Y57106700D02*
X51056100Y57106700D01*
X54351800Y59919100D02*
X51539400Y57106700D01*
X54351800Y65035700D02*
X54351800Y59919100D01*
X50188300Y69199200D02*
X54351800Y65035700D01*
X9959699Y81884201D02*
X9566000Y82277900D01*
X18148059Y75238641D02*
X16605259Y75238641D01*
X19557700Y73829000D02*
X18148059Y75238641D01*
X16605259Y75238641D02*
X9959699Y81884201D01*
X7722300Y83556400D02*
X6715900Y82550000D01*
X14368200Y83556400D02*
X7722300Y83556400D01*
X15350300Y82574300D02*
X14368200Y83556400D01*
X15350300Y82219800D02*
X15350300Y82574300D01*
X16484600Y82219800D02*
X15350300Y82219800D01*
X5791200Y82550000D02*
X6715900Y82550000D01*
D23*
X10058400Y72821800D02*
X12166600Y72821800D01*
X12166600Y72821800D02*
X13919200Y74574400D01*
X5825080Y71018400D02*
X9321800Y71018400D01*
X9321800Y71018400D02*
X9347200Y70993000D01*
X4673600Y65987175D02*
X4673600Y69866920D01*
X4673600Y69866920D02*
X5825080Y71018400D01*
X4953000Y65151000D02*
X4953000Y65707775D01*
X4953000Y65707775D02*
X4673600Y65987175D01*
D22*
X21710387Y74043785D02*
X22104086Y74437484D01*
X21442521Y74043785D02*
X21710387Y74043785D01*
X9979216Y62580480D02*
X21442521Y74043785D01*
X2949980Y62580480D02*
X9979216Y62580480D01*
X2315600Y61946100D02*
X2949980Y62580480D01*
X2315600Y33520000D02*
X2315600Y61946100D01*
X5791200Y30044400D02*
X2315600Y33520000D01*
X5791200Y29210000D02*
X5791200Y30044400D01*
X31949200Y69297600D02*
X31701600Y69050000D01*
X41654000Y69297600D02*
X31949200Y69297600D01*
X49098200Y76741800D02*
X41654000Y69297600D01*
X49098200Y77724000D02*
X49098200Y76741800D01*
X47849000Y49804800D02*
X49098200Y51054000D01*
X37350300Y49804800D02*
X47849000Y49804800D01*
X36375100Y50780000D02*
X37350300Y49804800D01*
X36375100Y50992700D02*
X36375100Y50780000D01*
X35240800Y50992700D02*
X36375100Y50992700D01*
X47822200Y23108000D02*
X49098200Y24384000D01*
X46152500Y23108000D02*
X47822200Y23108000D01*
X38124500Y31136000D02*
X46152500Y23108000D01*
X38124500Y31410900D02*
X38124500Y31136000D01*
X30160800Y50992700D02*
X31295100Y50992700D01*
X31295100Y50780000D02*
X31295100Y50992700D01*
X32644800Y49430300D02*
X31295100Y50780000D01*
X49274800Y49430300D02*
X32644800Y49430300D01*
X51723500Y51879000D02*
X49274800Y49430300D01*
X51723500Y53446700D02*
X51723500Y51879000D01*
X55073600Y56796800D02*
X51723500Y53446700D01*
X55073600Y98342400D02*
X55073600Y56796800D01*
X49098200Y104317800D02*
X55073600Y98342400D01*
X37376100Y12179000D02*
X38510400Y12179000D01*
X52832800Y19323900D02*
X54214000Y17942700D01*
X56849700Y31648500D02*
X57262800Y31648500D01*
X55987700Y30786500D02*
X56849700Y31648500D01*
X55987700Y22478800D02*
X55987700Y30786500D01*
X52832800Y19323900D02*
X55987700Y22478800D01*
X52026900Y19323900D02*
X52832800Y19323900D01*
X47800400Y15097400D02*
X52026900Y19323900D01*
X40507200Y15097400D02*
X47800400Y15097400D01*
X38510400Y13100600D02*
X40507200Y15097400D01*
X38510400Y12179000D02*
X38510400Y13100600D01*
X54134000Y74329500D02*
X54048200Y74243700D01*
X54134000Y89458500D02*
X54134000Y74329500D01*
X49422100Y94170400D02*
X54134000Y89458500D01*
X45686400Y94170400D02*
X49422100Y94170400D01*
X44352500Y95504300D02*
X45686400Y94170400D01*
X28097400Y95504300D02*
X44352500Y95504300D01*
X27686000Y95915700D02*
X28097400Y95504300D01*
X56422000Y57526100D02*
X56818200Y57922300D01*
X56422000Y40286300D02*
X56422000Y57526100D01*
X56849700Y39858600D02*
X56422000Y40286300D01*
X56849700Y31648500D02*
X56849700Y39858600D01*
X34360200Y80349600D02*
X35494500Y80349600D01*
X40970300Y76326000D02*
X37531700Y72887400D01*
X40970300Y80473700D02*
X40970300Y76326000D01*
X39957600Y81486400D02*
X40970300Y80473700D01*
X36418600Y81486400D02*
X39957600Y81486400D01*
X35494500Y80562300D02*
X36418600Y81486400D01*
X35494500Y80349600D02*
X35494500Y80562300D01*
X37905500Y71535500D02*
X37905500Y70407300D01*
X41334900Y74964900D02*
X37905500Y71535500D01*
X41334900Y80619600D02*
X41334900Y74964900D01*
X40041200Y81913300D02*
X41334900Y80619600D01*
X34315100Y81913300D02*
X40041200Y81913300D01*
X33176700Y80774900D02*
X34315100Y81913300D01*
X33176700Y79853800D02*
X33176700Y80774900D01*
X33815300Y79215200D02*
X33176700Y79853800D01*
X35765800Y79215200D02*
X33815300Y79215200D01*
X36900200Y80349600D02*
X35765800Y79215200D01*
X31100400Y69735500D02*
X30413700Y69048800D01*
X32524000Y69735500D02*
X31100400Y69735500D01*
X32600900Y69658600D02*
X32524000Y69735500D01*
X37156800Y69658600D02*
X32600900Y69658600D01*
X37905500Y70407300D02*
X37156800Y69658600D01*
X37905500Y70407300D02*
X38146900Y70165900D01*
X39440200Y80349600D02*
X39440200Y79215300D01*
X36852400Y73407000D02*
X36852400Y71377700D01*
X40594700Y77149300D02*
X36852400Y73407000D01*
X40594700Y78273500D02*
X40594700Y77149300D01*
X39652900Y79215300D02*
X40594700Y78273500D01*
X39440200Y79215300D02*
X39652900Y79215300D01*
X18437000Y106070400D02*
X27317700Y106070400D01*
X3251200Y90884600D02*
X18437000Y106070400D01*
X3251200Y90779600D02*
X3251200Y90884600D01*
X46141900Y95865200D02*
X46856700Y95150400D01*
X37522900Y95865200D02*
X46141900Y95865200D01*
X27317700Y106070400D02*
X37522900Y95865200D01*
X45434200Y41980100D02*
X45434200Y41980200D01*
X43771900Y41980100D02*
X45434200Y41980100D01*
X41744800Y39953000D02*
X43771900Y41980100D01*
X13443500Y39953000D02*
X41744800Y39953000D01*
X9991200Y36500700D02*
X13443500Y39953000D01*
X4190500Y36500700D02*
X9991200Y36500700D01*
X3251200Y37440000D02*
X4190500Y36500700D01*
X51412200Y56442300D02*
X51331300Y56442300D01*
X54712700Y59742800D02*
X51412200Y56442300D01*
X54712700Y89399100D02*
X54712700Y59742800D01*
X47490600Y96621200D02*
X54712700Y89399100D01*
X39697500Y96621200D02*
X47490600Y96621200D01*
X32397700Y103921000D02*
X39697500Y96621200D01*
X32397700Y106070400D02*
X32397700Y103921000D01*
X42052700Y16816000D02*
X43343100Y18106400D01*
X2326200Y16816000D02*
X42052700Y16816000D01*
X2326200Y11695000D02*
X2326200Y16816000D01*
X3251200Y10770000D02*
X2326200Y11695000D01*
X10024400Y101833000D02*
X12628500Y101833000D01*
X1561100Y93369700D02*
X10024400Y101833000D01*
X1561100Y17581100D02*
X1561100Y93369700D01*
X2326200Y16816000D02*
X1561100Y17581100D01*
X29857700Y106070400D02*
X28723400Y106070400D01*
X2298100Y91175300D02*
X2298100Y87289200D01*
X3172400Y92049600D02*
X2298100Y91175300D01*
X3800600Y92049600D02*
X3172400Y92049600D01*
X18963700Y107212700D02*
X3800600Y92049600D01*
X28290000Y107212700D02*
X18963700Y107212700D01*
X28723400Y106779300D02*
X28290000Y107212700D01*
X28723400Y106070400D02*
X28723400Y106779300D01*
X2298100Y65062700D02*
X3251200Y64109600D01*
X2298100Y87289200D02*
X2298100Y65062700D01*
X44062000Y78403000D02*
X44062000Y74250900D01*
X34371000Y88094000D02*
X44062000Y78403000D01*
X24843300Y88094000D02*
X34371000Y88094000D01*
X18656700Y94280600D02*
X24843300Y88094000D01*
X7742500Y94280600D02*
X18656700Y94280600D01*
X5159000Y91697100D02*
X7742500Y94280600D01*
X5159000Y88801300D02*
X5159000Y91697100D01*
X3646900Y87289200D02*
X5159000Y88801300D01*
X2298100Y87289200D02*
X3646900Y87289200D01*
X45443400Y44419300D02*
X47030100Y44419300D01*
X41402100Y40378000D02*
X45443400Y44419300D01*
X37848500Y40378000D02*
X41402100Y40378000D01*
X26667000Y51559500D02*
X37848500Y40378000D01*
X41359000Y22747000D02*
X33461700Y30644300D01*
X50915600Y22747000D02*
X41359000Y22747000D01*
X50978300Y22809700D02*
X50915600Y22747000D01*
X27475600Y72483200D02*
X25238500Y70246100D01*
X28321000Y72483200D02*
X27475600Y72483200D01*
X47987800Y75120900D02*
X51874700Y75120900D01*
X41628100Y68761200D02*
X47987800Y75120900D01*
X32352500Y68761200D02*
X41628100Y68761200D01*
X31975700Y68384400D02*
X32352500Y68761200D01*
X27799100Y68384400D02*
X31975700Y68384400D01*
X26256100Y69927400D02*
X27799100Y68384400D01*
X42538800Y67735700D02*
X34962200Y67735700D01*
X44214400Y69411300D02*
X42538800Y67735700D01*
X46167000Y69411300D02*
X44214400Y69411300D01*
X46482400Y68072800D02*
X47083900Y67471300D01*
X43896900Y68072800D02*
X46482400Y68072800D01*
X41452200Y65628100D02*
X43896900Y68072800D01*
X47434700Y17352200D02*
X47434700Y16436900D01*
X50407500Y20325000D02*
X47434700Y17352200D01*
X50506000Y20325000D02*
X50407500Y20325000D01*
X53728400Y23547400D02*
X50506000Y20325000D01*
X53728400Y30898700D02*
X53728400Y23547400D01*
X54108900Y31279200D02*
X53728400Y30898700D01*
X54108900Y31335800D02*
X54108900Y31279200D01*
X54498100Y31725000D02*
X54108900Y31335800D01*
X54554700Y31725000D02*
X54498100Y31725000D01*
X55724300Y32894600D02*
X54554700Y31725000D01*
X55724300Y39963000D02*
X55724300Y32894600D01*
X55411300Y40276000D02*
X55724300Y39963000D01*
X55411300Y43402600D02*
X55411300Y40276000D01*
X52516200Y46297700D02*
X55411300Y43402600D01*
X45731100Y46297700D02*
X52516200Y46297700D01*
X42163400Y42730000D02*
X45731100Y46297700D01*
X40396600Y42730000D02*
X42163400Y42730000D01*
X38897900Y41231300D02*
X40396600Y42730000D01*
X39065600Y37287300D02*
X22903200Y37287300D01*
X40075900Y36277000D02*
X39065600Y37287300D01*
X45525500Y36277000D02*
X40075900Y36277000D01*
X46539300Y37290800D02*
X45525500Y36277000D01*
X46539300Y37368900D02*
X46539300Y37290800D01*
X43090800Y60683000D02*
X44340000Y59433800D01*
X32489000Y60683000D02*
X43090800Y60683000D01*
X31242000Y59436000D02*
X32489000Y60683000D01*
X39306400Y31213200D02*
X42416400Y31213200D01*
X38402100Y32117500D02*
X39306400Y31213200D01*
X33970900Y32117500D02*
X38402100Y32117500D01*
X32455400Y30602000D02*
X33970900Y32117500D01*
X32455400Y21786900D02*
X32455400Y30602000D01*
X30510900Y19842400D02*
X32455400Y21786900D01*
X29410300Y19842400D02*
X30510900Y19842400D01*
X44053900Y20685900D02*
X41656000Y18288000D01*
X50356400Y20685900D02*
X44053900Y20685900D01*
X53006500Y23336000D02*
X50356400Y20685900D01*
X53006500Y30687300D02*
X53006500Y23336000D01*
X53748000Y31428800D02*
X53006500Y30687300D01*
X53748000Y31485400D02*
X53748000Y31428800D01*
X54348500Y32085900D02*
X53748000Y31485400D01*
X54405100Y32085900D02*
X54348500Y32085900D01*
X55363400Y33044200D02*
X54405100Y32085900D01*
X55363400Y39813300D02*
X55363400Y33044200D01*
X55002500Y40174200D02*
X55363400Y39813300D01*
X55002500Y43300900D02*
X55002500Y40174200D01*
X52400600Y45902800D02*
X55002500Y43300900D01*
X45914000Y45902800D02*
X52400600Y45902800D01*
X41084600Y41073400D02*
X45914000Y45902800D01*
X46599200Y34252800D02*
X47526900Y33325100D01*
X37424400Y34252800D02*
X46599200Y34252800D01*
X13304700Y34082300D02*
X21882800Y34082300D01*
X12086300Y32863900D02*
X13304700Y34082300D01*
X25912500Y34082300D02*
X26544000Y34713800D01*
X21882800Y34082300D02*
X25912500Y34082300D01*
X27005000Y34252800D02*
X37424400Y34252800D01*
X26544000Y34713800D02*
X27005000Y34252800D01*
X30465000Y90404300D02*
X31545200Y89324100D01*
X23779100Y90404300D02*
X30465000Y90404300D01*
X38521600Y85396100D02*
X38521600Y88215200D01*
X44965300Y78952400D02*
X38521600Y85396100D01*
X37412700Y89324100D02*
X38521600Y88215200D01*
X31545200Y89324100D02*
X37412700Y89324100D01*
X48995600Y88215200D02*
X51432900Y90652500D01*
X38521600Y88215200D02*
X48995600Y88215200D01*
D23*
X16205200Y92532200D02*
X18084800Y92532200D01*
X18084800Y92532200D02*
X18262600Y92354400D01*
X20345400Y75133200D02*
X20667997Y74810603D01*
X20667997Y74810603D02*
X21537841Y74810603D01*
X20345400Y75438000D02*
X20345400Y75133200D01*
X21987438Y75260200D02*
X21537841Y74810603D01*
X22860000Y75260200D02*
X21987438Y75260200D01*
D22*
X20345400Y75540600D02*
X20345400Y75438000D01*
X22698900Y82219800D02*
X22698900Y77894100D01*
X21564600Y82219800D02*
X22698900Y82219800D01*
X22698900Y77894100D02*
X20345400Y75540600D01*
M02*
