G04 #@! TF.GenerationSoftware,KiCad,Pcbnew,(6.0.0-rc1-dev-1542-gf9f87b3ff-dirty)*
G04 #@! TF.CreationDate,2019-02-04T09:30:53-08:00
G04 #@! TF.ProjectId,qplfo_v22,71706c66-6f5f-4763-9232-2e6b69636164,rev?*
G04 #@! TF.SameCoordinates,PX1329208PY7e341b0*
G04 #@! TF.FileFunction,Paste,Top*
G04 #@! TF.FilePolarity,Positive*
%FSLAX46Y46*%
G04 Gerber Fmt 4.6, Leading zero omitted, Abs format (unit mm)*
G04 Created by KiCad (PCBNEW (6.0.0-rc1-dev-1542-gf9f87b3ff-dirty)) date Monday, 04 February 2019 at 09:30:53*
%MOMM*%
%LPD*%
G04 APERTURE LIST*
%ADD10R,1.000000X1.000000*%
%ADD11R,2.999740X1.600200*%
%ADD12R,1.600200X2.999740*%
%ADD13R,1.000000X1.400000*%
%ADD14R,1.400000X1.000000*%
%ADD15R,1.800860X2.499360*%
%ADD16R,1.000760X1.501140*%
%ADD17R,1.998980X2.999740*%
%ADD18C,0.749300*%
%ADD19C,0.025400*%
%ADD20R,1.200000X0.600000*%
%ADD21R,0.600000X1.200000*%
%ADD22R,3.657600X2.032000*%
%ADD23R,1.016000X2.032000*%
%ADD24R,1.450000X0.450000*%
%ADD25R,0.450000X1.450000*%
%ADD26R,1.800000X1.100000*%
G04 APERTURE END LIST*
D10*
X54074800Y77635100D03*
X52374800Y77635100D03*
D11*
X18541960Y11011000D03*
X22941240Y11011000D03*
D12*
X12852400Y14124640D03*
X12852400Y9725360D03*
X28549600Y15026640D03*
X28549600Y10627360D03*
X13157200Y34909760D03*
X13157200Y39309040D03*
D13*
X22349500Y63985500D03*
X23299500Y61785500D03*
X21399500Y61785500D03*
X49133800Y62194800D03*
X50083800Y59994800D03*
X48183800Y59994800D03*
X48618100Y34127800D03*
X49568100Y31927800D03*
X47668100Y31927800D03*
D14*
X48422200Y100632300D03*
X50622200Y101582300D03*
X50622200Y99682300D03*
D13*
X43525400Y77765000D03*
X44475400Y75565000D03*
X42575400Y75565000D03*
X44373800Y49436200D03*
X45323800Y47236200D03*
X43423800Y47236200D03*
X36474400Y38404800D03*
X37424400Y36204800D03*
X35524400Y36204800D03*
D14*
X35021700Y89636600D03*
X32821700Y88686600D03*
X32821700Y90586600D03*
D13*
X22456100Y96662600D03*
X23406100Y94462600D03*
X21506100Y94462600D03*
X15494000Y55405200D03*
X16444000Y53205200D03*
X14544000Y53205200D03*
X20878800Y39403200D03*
X21828800Y37203200D03*
X19928800Y37203200D03*
X27838400Y3810000D03*
X28788400Y1610000D03*
X26888400Y1610000D03*
D15*
X26314400Y18923020D03*
X26314400Y22920980D03*
X12827000Y22648980D03*
X12827000Y18651020D03*
D16*
X12448540Y5973660D03*
X10947400Y5973660D03*
X9446260Y5973660D03*
D17*
X10947400Y3022180D03*
D18*
X10947400Y4871300D03*
D19*
G36*
X9946640Y4496650D02*
G01*
X10447020Y5245950D01*
X11447780Y5245950D01*
X11948160Y4496650D01*
X9946640Y4496650D01*
X9946640Y4496650D01*
G37*
D20*
X15562000Y75355100D03*
X15562000Y74555100D03*
X15562000Y73755100D03*
X15562000Y72955100D03*
X15562000Y72155100D03*
X15562000Y71355100D03*
X15562000Y70555100D03*
X15562000Y69755100D03*
D21*
X17012000Y68305100D03*
X17812000Y68305100D03*
X18612000Y68305100D03*
X19412000Y68305100D03*
X20212000Y68305100D03*
X21012000Y68305100D03*
X21812000Y68305100D03*
X22612000Y68305100D03*
D20*
X24062000Y69755100D03*
X24062000Y70555100D03*
X24062000Y71355100D03*
X24062000Y72155100D03*
X24062000Y72955100D03*
X24062000Y73755100D03*
X24062000Y74555100D03*
X24062000Y75355100D03*
D21*
X22612000Y76805100D03*
X21812000Y76805100D03*
X21012000Y76805100D03*
X20212000Y76805100D03*
X19412000Y76805100D03*
X18612000Y76805100D03*
X17812000Y76805100D03*
X17012000Y76805100D03*
D10*
X55143400Y32727900D03*
X56843400Y32727900D03*
X55055400Y6604000D03*
X56755400Y6604000D03*
X29464000Y94830000D03*
X29464000Y93130000D03*
X55245000Y63701400D03*
X55245000Y62001400D03*
X8040000Y43180000D03*
X9740000Y43180000D03*
X6096000Y10834000D03*
X6096000Y12534000D03*
X10326000Y90678000D03*
X12026000Y90678000D03*
X10668000Y63842000D03*
X10668000Y62142000D03*
X11709400Y70738100D03*
X11709400Y69038100D03*
X12738100Y55561600D03*
X12738100Y53861600D03*
X5842000Y101258000D03*
X5842000Y102958000D03*
X5842000Y74842000D03*
X5842000Y76542000D03*
X5588000Y48426000D03*
X5588000Y50126000D03*
X5842000Y21502000D03*
X5842000Y23202000D03*
X46507400Y20511000D03*
X46507400Y22211000D03*
X13512800Y69417300D03*
X13512800Y67717300D03*
X16916400Y64946900D03*
X16916400Y63246900D03*
X38266000Y29972000D03*
X39966000Y29972000D03*
X31584900Y1880000D03*
X31584900Y3580000D03*
X16079100Y94373700D03*
X17779100Y94373700D03*
X54507500Y47701200D03*
X52807500Y47701200D03*
X53262000Y23901000D03*
X51562000Y23901000D03*
X48196500Y108901600D03*
X48196500Y107201600D03*
X57353200Y83007200D03*
X57353200Y81307200D03*
X52617000Y50393600D03*
X54317000Y50393600D03*
X57048400Y29208000D03*
X57048400Y27508000D03*
X44259500Y107772200D03*
X45959500Y107772200D03*
X55473600Y81307200D03*
X55473600Y83007200D03*
X56438800Y54166400D03*
X56438800Y55866400D03*
X54635400Y27610000D03*
X54635400Y29310000D03*
X42291000Y106045900D03*
X42291000Y107745900D03*
X49605300Y71882000D03*
X47905300Y71882000D03*
X51255400Y57658000D03*
X49555400Y57658000D03*
X53490600Y25679000D03*
X51790600Y25679000D03*
X44805600Y100202100D03*
X44805600Y98502100D03*
X42392600Y8954000D03*
X40692600Y8954000D03*
X34709100Y1728000D03*
X34709100Y3428000D03*
X45415200Y59283600D03*
X45415200Y60983600D03*
X30988000Y35218000D03*
X30988000Y36918000D03*
X28651200Y5842000D03*
X28651200Y7542000D03*
X33694000Y84531200D03*
X35394000Y84531200D03*
X33870900Y63384800D03*
X33870900Y61684800D03*
X34759000Y33858200D03*
X33059000Y33858200D03*
X46087400Y32702500D03*
X44387400Y32702500D03*
X38989000Y90385000D03*
X38989000Y88685000D03*
X45440600Y81750800D03*
X45440600Y83450800D03*
X45491400Y53366300D03*
X45491400Y55066300D03*
X43232600Y30188000D03*
X44932600Y30188000D03*
X41744900Y92937700D03*
X41744900Y91237700D03*
X43383200Y81723600D03*
X43383200Y80023600D03*
X43434000Y54545600D03*
X43434000Y52845600D03*
X40905800Y36271200D03*
X39205800Y36271200D03*
X37084000Y90385000D03*
X37084000Y88685000D03*
X55930800Y38889200D03*
X55930800Y40589200D03*
X57023000Y13894000D03*
X57023000Y15594000D03*
X30542600Y91567000D03*
X28842600Y91567000D03*
X57099200Y69381000D03*
X57099200Y71081000D03*
X57124600Y36029000D03*
X57124600Y34329000D03*
X55295800Y15850000D03*
X55295800Y17550000D03*
X27686000Y93130000D03*
X27686000Y94830000D03*
X55270400Y60399400D03*
X55270400Y58699400D03*
X55499000Y36004500D03*
X55499000Y34304500D03*
X56642000Y10580000D03*
X56642000Y12280000D03*
X30988000Y94918000D03*
X30988000Y93218000D03*
X56972200Y65520200D03*
X56972200Y67220200D03*
X35863900Y96647000D03*
X34163900Y96647000D03*
X35254300Y71018400D03*
X33554300Y71018400D03*
X34328100Y99859200D03*
X34328100Y98159200D03*
X34962200Y68935600D03*
X33262200Y68935600D03*
X43104700Y43065700D03*
X44804700Y43065700D03*
X44438200Y17399000D03*
X46138200Y17399000D03*
X49974500Y44449100D03*
X49974500Y42749100D03*
X49618000Y17526000D03*
X47918000Y17526000D03*
X48285400Y91618700D03*
X48285400Y93318700D03*
X44856400Y69228600D03*
X44856400Y70928600D03*
X47980600Y96696900D03*
X47980600Y94996900D03*
X49656100Y70154800D03*
X47956100Y70154800D03*
X1944000Y96520000D03*
X3644000Y96520000D03*
X1944000Y69215000D03*
X3644000Y69215000D03*
X1944000Y43180000D03*
X3644000Y43180000D03*
X1944000Y16510000D03*
X3644000Y16510000D03*
X29540200Y100368100D03*
X31240200Y100368100D03*
X40373300Y66801100D03*
X40373300Y65101100D03*
X24688800Y88138000D03*
X22988800Y88138000D03*
X18034900Y55410100D03*
X19734900Y55410100D03*
X5969000Y105195000D03*
X5969000Y106895000D03*
X5969000Y78525000D03*
X5969000Y80225000D03*
X5689600Y51841400D03*
X5689600Y53541400D03*
X5969000Y26885000D03*
X5969000Y25185000D03*
X33108000Y41402000D03*
X31408000Y41402000D03*
X37020500Y40817800D03*
X37020500Y42517800D03*
X1944000Y98425000D03*
X3644000Y98425000D03*
X35140000Y44704000D03*
X33440000Y44704000D03*
X39979600Y40692600D03*
X39979600Y42392600D03*
X1944000Y72390000D03*
X3644000Y72390000D03*
X1944000Y45720000D03*
X3644000Y45720000D03*
X1944000Y18415000D03*
X3644000Y18415000D03*
X23977600Y38696000D03*
X23977600Y36996000D03*
X48514000Y15785000D03*
X48514000Y14085000D03*
X19393800Y35204400D03*
X21093800Y35204400D03*
X23709100Y2019000D03*
X22009100Y2019000D03*
X31904200Y29172000D03*
X33604200Y29172000D03*
X37579300Y1576000D03*
X37579300Y3276000D03*
X40474900Y1550000D03*
X40474900Y3250000D03*
D22*
X19608800Y16383000D03*
D23*
X19608800Y22987000D03*
X17322800Y22987000D03*
X21894800Y22987000D03*
D10*
X47232200Y47650400D03*
X48932200Y47650400D03*
X57023000Y20638000D03*
X57023000Y22338000D03*
X55461800Y73202800D03*
X57161800Y73202800D03*
X27686000Y88062700D03*
X27686000Y89762700D03*
X57861200Y40908500D03*
X57861200Y42608500D03*
X56972200Y19138000D03*
X56972200Y17438000D03*
X29616400Y88138900D03*
X29616400Y89838900D03*
X55600600Y71004800D03*
X55600600Y69304800D03*
X48461400Y43319700D03*
X46761400Y43319700D03*
X54102000Y20105000D03*
X54102000Y21805000D03*
X28321000Y75258400D03*
X28321000Y73558400D03*
X57263400Y75031600D03*
X55563400Y75031600D03*
D24*
X54537400Y10531000D03*
X54537400Y11181000D03*
X54537400Y11831000D03*
X54537400Y12481000D03*
X48637400Y12481000D03*
X48637400Y11831000D03*
X48637400Y11181000D03*
X48637400Y10531000D03*
X54245300Y38102900D03*
X54245300Y38752900D03*
X54245300Y39402900D03*
X54245300Y40052900D03*
X48345300Y40052900D03*
X48345300Y39402900D03*
X48345300Y38752900D03*
X48345300Y38102900D03*
X54308800Y54041400D03*
X54308800Y54691400D03*
X54308800Y55341400D03*
X54308800Y55991400D03*
X48408800Y55991400D03*
X48408800Y55341400D03*
X48408800Y54691400D03*
X48408800Y54041400D03*
X54766000Y65623800D03*
X54766000Y66273800D03*
X54766000Y66923800D03*
X54766000Y67573800D03*
X48866000Y67573800D03*
X48866000Y66923800D03*
X48866000Y66273800D03*
X48866000Y65623800D03*
X53445200Y81549600D03*
X53445200Y82199600D03*
X53445200Y82849600D03*
X53445200Y83499600D03*
X47545200Y83499600D03*
X47545200Y82849600D03*
X47545200Y82199600D03*
X47545200Y81549600D03*
X33880000Y94447000D03*
X33880000Y93797000D03*
X33880000Y93147000D03*
X33880000Y92497000D03*
X39780000Y92497000D03*
X39780000Y93147000D03*
X39780000Y93797000D03*
X39780000Y94447000D03*
X43247100Y101907700D03*
X43247100Y102557700D03*
X43247100Y103207700D03*
X43247100Y103857700D03*
X37347100Y103857700D03*
X37347100Y103207700D03*
X37347100Y102557700D03*
X37347100Y101907700D03*
X52708600Y28235000D03*
X52708600Y28885000D03*
X52708600Y29535000D03*
X52708600Y30185000D03*
X46808600Y30185000D03*
X46808600Y29535000D03*
X46808600Y28885000D03*
X46808600Y28235000D03*
D25*
X42217700Y21332000D03*
X42867700Y21332000D03*
X43517700Y21332000D03*
X44167700Y21332000D03*
X44167700Y27232000D03*
X43517700Y27232000D03*
X42867700Y27232000D03*
X42217700Y27232000D03*
D10*
X13779500Y78549500D03*
X15479500Y78549500D03*
X25184100Y67512300D03*
X25184100Y65812300D03*
D26*
X20104100Y88633300D03*
X13904100Y88633300D03*
X20104100Y92333300D03*
X13904100Y92333300D03*
D10*
X35306000Y9206600D03*
X35306000Y7506600D03*
M02*
