M48
; DRILL file {KiCad (6.0.0-rc1-dev-1542-gf9f87b3ff-dirty)} date Monday, 04 February 2019 at 09:30:56
; FORMAT={2:4/ absolute / inch / suppress leading zeros}
; #@! TF.CreationDate,2019-02-04T09:30:56-08:00
; #@! TF.GenerationSoftware,Kicad,Pcbnew,(6.0.0-rc1-dev-1542-gf9f87b3ff-dirty)
FMAT,2
INCH,TZ
T1C0.0150
T2C0.0315
T3C0.0350
T4C0.0394
T5C0.0400
T6C0.0450
T7C0.0472
T8C0.0472
%
G90
G05
T1
X1950Y25650
X2695Y36370
X2724Y29830
X3680Y27950
X3766Y32393
X3831Y14638
X3856Y23959
X3960Y28670
X4625Y24587
X4758Y12939
X4972Y40092
X5010Y24570
X5151Y23062
X5180Y35860
X5416Y24759
X5480Y29360
X5707Y5232
X5936Y26174
X6380Y36430
X6583Y23750
X6595Y28148
X6597Y28959
X6772Y8136
X6885Y28492
X6990Y23671
X7190Y36360
X7517Y22363
X7643Y25967
X7700Y29067
X8260Y26421
X8354Y29714
X8587Y30701
X8615Y13418
X8702Y29306
X9006Y29630
X9017Y14680
X9256Y26748
X9362Y35592
X9778Y7927
X9936Y27656
X9964Y37071
X10278Y3875
X10308Y31817
X10337Y27530
X10450Y13667
X10499Y20299
X10687Y29575
X10900Y37762
X10904Y26067
X11150Y28537
X11579Y7812
X11974Y27185
X12419Y35167
X12481Y27185
X12855Y14124
X13174Y12065
X13765Y26668
X14215Y6888
X14509Y28101
X14522Y27705
X14734Y13485
X14776Y28696
X15009Y36289
X15010Y12366
X15018Y27624
X15282Y24297
X15314Y16233
X15435Y13853
X16175Y16171
X16320Y25838
X16699Y12289
X17064Y7129
X17085Y37339
X17347Y29233
X17457Y23399
X17703Y31084
X17887Y16528
X18176Y27327
X18317Y10796
X18323Y14712
X18433Y28334
X18448Y37461
X18516Y17488
X18537Y26564
X18541Y21779
X18675Y6471
X18711Y13120
X18970Y23117
X19344Y24994
X19525Y6076
X19567Y13262
X19626Y7381
X19946Y32543
X19950Y20998
X20070Y8980
X20096Y17799
X20209Y22221
X20236Y11487
X20249Y35690
X20412Y30125
X20423Y29575
X20625Y20934
X21137Y25494
X21139Y16380
X21237Y14671
X21279Y29230
X21344Y3535
X21344Y7064
X21350Y22505
X21485Y11963
X21948Y30703
X22369Y22804
X22544Y12460
T2
X1280Y10500
X1280Y9500
X1280Y8500
X2280Y11500
X2280Y7500
X3280Y10500
X3280Y9500
X3280Y8500
X1280Y21000
X1280Y20000
X1280Y19000
X2280Y22000
X2280Y18000
X3280Y21000
X3280Y20000
X3280Y19000
X1280Y31500
X1280Y30500
X1280Y29500
X2280Y32500
X2280Y28500
X3280Y31500
X3280Y30500
X3280Y29500
X1280Y26240
X1280Y25240
X1280Y24240
X2280Y27240
X2280Y23240
X3280Y26240
X3280Y25240
X3280Y24240
X1280Y42000
X1280Y41000
X1280Y40000
X2280Y43000
X2280Y39000
X3280Y42000
X3280Y41000
X3280Y40000
X1280Y36740
X1280Y35740
X1280Y34740
X2280Y37740
X2280Y33740
X3280Y36740
X3280Y35740
X3280Y34740
X1280Y5240
X1280Y4240
X1280Y3240
X2280Y6240
X2280Y2240
X3280Y5240
X3280Y4240
X3280Y3240
X1280Y15740
X1280Y14740
X1280Y13740
X2280Y16740
X2280Y12740
X3280Y15740
X3280Y14740
X3280Y13740
T3
X20650Y34030
X20650Y23530
X20650Y13030
X20650Y7070
X18380Y41070
X18380Y30600
X18380Y20100
X18380Y9600
X16620Y33900
X16620Y23400
X16620Y12900
X16620Y2400
X16620Y38700
X16620Y28200
X16620Y17700
X12080Y7200
T4
X17500Y15800
X17500Y14800
X17500Y5300
X17500Y4300
X17500Y36800
X17500Y35800
X17500Y26300
X17500Y25300
T5
X13715Y4795
X14715Y4795
X15715Y4795
X10755Y42760
X10755Y41760
X11755Y42760
X11755Y41760
X12755Y42760
X12755Y41760
X13755Y42760
X13755Y41760
X5900Y11410
X5900Y10410
X6900Y11410
X6900Y10410
X7900Y11410
X7900Y10410
X8900Y11410
X8900Y10410
X9900Y11410
X9900Y10410
X4490Y32370
X5490Y32370
X6490Y32370
X7490Y32370
X8490Y32370
X9490Y32370
X12528Y31634
X12528Y30634
X13528Y31634
X13528Y30634
X14528Y31634
X14528Y30634
X15528Y31634
X15528Y30634
X11874Y21076
X11874Y20076
X12874Y21076
X12874Y20076
X13874Y21076
X13874Y20076
X14874Y21076
X14874Y20076
T6
X20650Y38350
X20650Y34980
X20650Y27850
X20650Y24480
X20650Y17350
X20650Y13980
X20650Y6120
X20650Y2750
X19330Y41070
X22700Y41070
X19330Y30600
X22700Y30600
X19330Y20100
X22700Y20100
X19330Y9600
X22700Y9600
X12300Y33900
X15670Y33900
X12300Y23400
X15670Y23400
X12300Y12900
X15670Y12900
X12300Y2400
X15670Y2400
X12300Y38700
X15670Y38700
X12300Y28200
X15670Y28200
X12300Y17700
X15670Y17700
X13030Y7200
X16400Y7200
T7
X17767Y2724
X17767Y756
X19735Y1740
X11847Y10504
X11847Y8536
X13815Y9520
T8
X5981Y33600
X7950Y33600
X9919Y33600
X5981Y23100
X7950Y23100
X9919Y23100
X5981Y12600
X7950Y12600
X9919Y12600
X5981Y2100
X7950Y2100
X9919Y2100
T0
M30
