G04 #@! TF.GenerationSoftware,KiCad,Pcbnew,(6.0.0-rc1-dev-1542-gf9f87b3ff-dirty)*
G04 #@! TF.CreationDate,2019-02-04T09:30:53-08:00
G04 #@! TF.ProjectId,qplfo_v22,71706c66-6f5f-4763-9232-2e6b69636164,rev?*
G04 #@! TF.SameCoordinates,PX1329208PY7e341b0*
G04 #@! TF.FileFunction,Soldermask,Top*
G04 #@! TF.FilePolarity,Negative*
%FSLAX46Y46*%
G04 Gerber Fmt 4.6, Leading zero omitted, Abs format (unit mm)*
G04 Created by KiCad (PCBNEW (6.0.0-rc1-dev-1542-gf9f87b3ff-dirty)) date Monday, 04 February 2019 at 09:30:53*
%MOMM*%
%LPD*%
G04 APERTURE LIST*
%ADD10C,0.025400*%
G04 APERTURE END LIST*
D10*
G36*
X45492718Y3121936D02*
G01*
X45720146Y3027732D01*
X45924825Y2890970D01*
X46098890Y2716905D01*
X46235652Y2512226D01*
X46329856Y2284798D01*
X46377880Y2043363D01*
X46377880Y1797197D01*
X46329856Y1555762D01*
X46235652Y1328334D01*
X46098890Y1123655D01*
X45924825Y949590D01*
X45720146Y812828D01*
X45492718Y718624D01*
X45251283Y670600D01*
X45005117Y670600D01*
X44763682Y718624D01*
X44536254Y812828D01*
X44331575Y949590D01*
X44157510Y1123655D01*
X44020748Y1328334D01*
X43926544Y1555762D01*
X43878520Y1797197D01*
X43878520Y2043363D01*
X43926544Y2284798D01*
X44020748Y2512226D01*
X44157510Y2716905D01*
X44331575Y2890970D01*
X44536254Y3027732D01*
X44763682Y3121936D01*
X45005117Y3169960D01*
X45251283Y3169960D01*
X45492718Y3121936D01*
X45492718Y3121936D01*
G37*
G36*
X29288400Y910000D02*
G01*
X28288400Y910000D01*
X28288400Y2310000D01*
X29288400Y2310000D01*
X29288400Y910000D01*
X29288400Y910000D01*
G37*
G36*
X27388400Y910000D02*
G01*
X26388400Y910000D01*
X26388400Y2310000D01*
X27388400Y2310000D01*
X27388400Y910000D01*
X27388400Y910000D01*
G37*
G36*
X40974900Y1050000D02*
G01*
X39974900Y1050000D01*
X39974900Y2050000D01*
X40974900Y2050000D01*
X40974900Y1050000D01*
X40974900Y1050000D01*
G37*
G36*
X38079300Y1076000D02*
G01*
X37079300Y1076000D01*
X37079300Y2076000D01*
X38079300Y2076000D01*
X38079300Y1076000D01*
X38079300Y1076000D01*
G37*
G36*
X35209100Y1228000D02*
G01*
X34209100Y1228000D01*
X34209100Y2228000D01*
X35209100Y2228000D01*
X35209100Y1228000D01*
X35209100Y1228000D01*
G37*
G36*
X32084900Y1380000D02*
G01*
X31084900Y1380000D01*
X31084900Y2380000D01*
X32084900Y2380000D01*
X32084900Y1380000D01*
X32084900Y1380000D01*
G37*
G36*
X24209100Y1519000D02*
G01*
X23209100Y1519000D01*
X23209100Y2519000D01*
X24209100Y2519000D01*
X24209100Y1519000D01*
X24209100Y1519000D01*
G37*
G36*
X22509100Y1519000D02*
G01*
X21509100Y1519000D01*
X21509100Y2519000D01*
X22509100Y2519000D01*
X22509100Y1519000D01*
X22509100Y1519000D01*
G37*
G36*
X11447780Y5283850D02*
G01*
X11450182Y5259464D01*
X11457295Y5236015D01*
X11468828Y5214431D01*
X11894082Y4577631D01*
X11909622Y4558685D01*
X11928560Y4543135D01*
X11947215Y4533158D01*
X11949292Y4512067D01*
X11956405Y4488618D01*
X11967938Y4467034D01*
X11977496Y4452721D01*
X11967956Y4441096D01*
X11956405Y4419485D01*
X11949292Y4396036D01*
X11946890Y4371650D01*
X11946890Y1522310D01*
X9947910Y1522310D01*
X9947910Y4371650D01*
X9945508Y4396036D01*
X9938395Y4419485D01*
X9926844Y4441096D01*
X9917304Y4452721D01*
X9926862Y4467034D01*
X9938408Y4488648D01*
X9945515Y4512099D01*
X9947586Y4533161D01*
X9966212Y4543116D01*
X9985154Y4558662D01*
X10000718Y4577631D01*
X10425972Y5214431D01*
X10437518Y5236045D01*
X10444625Y5259496D01*
X10447020Y5283850D01*
X10447020Y6724230D01*
X11447780Y6724230D01*
X11447780Y5283850D01*
X11447780Y5283850D01*
G37*
G36*
X40974900Y2750000D02*
G01*
X39974900Y2750000D01*
X39974900Y3750000D01*
X40974900Y3750000D01*
X40974900Y2750000D01*
X40974900Y2750000D01*
G37*
G36*
X38079300Y2776000D02*
G01*
X37079300Y2776000D01*
X37079300Y3776000D01*
X38079300Y3776000D01*
X38079300Y2776000D01*
X38079300Y2776000D01*
G37*
G36*
X35209100Y2928000D02*
G01*
X34209100Y2928000D01*
X34209100Y3928000D01*
X35209100Y3928000D01*
X35209100Y2928000D01*
X35209100Y2928000D01*
G37*
G36*
X32084900Y3080000D02*
G01*
X31084900Y3080000D01*
X31084900Y4080000D01*
X32084900Y4080000D01*
X32084900Y3080000D01*
X32084900Y3080000D01*
G37*
G36*
X28338400Y3110000D02*
G01*
X27338400Y3110000D01*
X27338400Y4510000D01*
X28338400Y4510000D01*
X28338400Y3110000D01*
X28338400Y3110000D01*
G37*
G36*
X50491438Y5621296D02*
G01*
X50718866Y5527092D01*
X50923545Y5390330D01*
X51097610Y5216265D01*
X51234372Y5011586D01*
X51328576Y4784158D01*
X51376600Y4542723D01*
X51376600Y4296557D01*
X51328576Y4055122D01*
X51234372Y3827694D01*
X51097610Y3623015D01*
X50923545Y3448950D01*
X50718866Y3312188D01*
X50491438Y3217984D01*
X50250003Y3169960D01*
X50003837Y3169960D01*
X49762402Y3217984D01*
X49534974Y3312188D01*
X49330295Y3448950D01*
X49156230Y3623015D01*
X49019468Y3827694D01*
X48925264Y4055122D01*
X48877240Y4296557D01*
X48877240Y4542723D01*
X48925264Y4784158D01*
X49019468Y5011586D01*
X49156230Y5216265D01*
X49330295Y5390330D01*
X49534974Y5527092D01*
X49762402Y5621296D01*
X50003837Y5669320D01*
X50250003Y5669320D01*
X50491438Y5621296D01*
X50491438Y5621296D01*
G37*
G36*
X15526401Y6433075D02*
G01*
X15734413Y6346914D01*
X15921623Y6221824D01*
X16080824Y6062623D01*
X16205914Y5875413D01*
X16292075Y5667401D01*
X16336000Y5446576D01*
X16336000Y5221424D01*
X16292075Y5000599D01*
X16205914Y4792587D01*
X16080824Y4605377D01*
X15921623Y4446176D01*
X15734413Y4321086D01*
X15526401Y4234925D01*
X15305576Y4191000D01*
X15080424Y4191000D01*
X14859599Y4234925D01*
X14651587Y4321086D01*
X14464377Y4446176D01*
X14305176Y4605377D01*
X14180086Y4792587D01*
X14093925Y5000599D01*
X14050000Y5221424D01*
X14050000Y5446576D01*
X14093925Y5667401D01*
X14180086Y5875413D01*
X14305176Y6062623D01*
X14464377Y6221824D01*
X14651587Y6346914D01*
X14859599Y6433075D01*
X15080424Y6477000D01*
X15305576Y6477000D01*
X15526401Y6433075D01*
X15526401Y6433075D01*
G37*
G36*
X20526401Y6433075D02*
G01*
X20734413Y6346914D01*
X20921623Y6221824D01*
X21080824Y6062623D01*
X21205914Y5875413D01*
X21292075Y5667401D01*
X21336000Y5446576D01*
X21336000Y5221424D01*
X21292075Y5000599D01*
X21205914Y4792587D01*
X21080824Y4605377D01*
X20921623Y4446176D01*
X20734413Y4321086D01*
X20526401Y4234925D01*
X20305576Y4191000D01*
X20080424Y4191000D01*
X19859599Y4234925D01*
X19651587Y4321086D01*
X19464377Y4446176D01*
X19305176Y4605377D01*
X19180086Y4792587D01*
X19093925Y5000599D01*
X19050000Y5221424D01*
X19050000Y5446576D01*
X19093925Y5667401D01*
X19180086Y5875413D01*
X19305176Y6062623D01*
X19464377Y6221824D01*
X19651587Y6346914D01*
X19859599Y6433075D01*
X20080424Y6477000D01*
X20305576Y6477000D01*
X20526401Y6433075D01*
X20526401Y6433075D01*
G37*
G36*
X25526401Y6433075D02*
G01*
X25734413Y6346914D01*
X25921623Y6221824D01*
X26080824Y6062623D01*
X26205914Y5875413D01*
X26292075Y5667401D01*
X26336000Y5446576D01*
X26336000Y5221424D01*
X26292075Y5000599D01*
X26205914Y4792587D01*
X26080824Y4605377D01*
X25921623Y4446176D01*
X25734413Y4321086D01*
X25526401Y4234925D01*
X25305576Y4191000D01*
X25080424Y4191000D01*
X24859599Y4234925D01*
X24651587Y4321086D01*
X24464377Y4446176D01*
X24305176Y4605377D01*
X24180086Y4792587D01*
X24093925Y5000599D01*
X24050000Y5221424D01*
X24050000Y5446576D01*
X24093925Y5667401D01*
X24180086Y5875413D01*
X24305176Y6062623D01*
X24464377Y6221824D01*
X24651587Y6346914D01*
X24859599Y6433075D01*
X25080424Y6477000D01*
X25305576Y6477000D01*
X25526401Y6433075D01*
X25526401Y6433075D01*
G37*
G36*
X5981965Y6318867D02*
G01*
X6100982Y6269569D01*
X6208104Y6197992D01*
X6299192Y6106904D01*
X6299194Y6106901D01*
X6299195Y6106900D01*
X6328780Y6062623D01*
X6370769Y5999782D01*
X6420067Y5880765D01*
X6445200Y5754413D01*
X6445200Y5625587D01*
X6420067Y5499235D01*
X6370769Y5380218D01*
X6370767Y5380215D01*
X6345233Y5342000D01*
X6299192Y5273096D01*
X6208104Y5182008D01*
X6100982Y5110431D01*
X5981965Y5061133D01*
X5855613Y5036000D01*
X5726787Y5036000D01*
X5600435Y5061133D01*
X5481418Y5110431D01*
X5374296Y5182008D01*
X5283208Y5273096D01*
X5237168Y5342000D01*
X5211633Y5380215D01*
X5211631Y5380218D01*
X5162333Y5499235D01*
X5137200Y5625587D01*
X5137200Y5754413D01*
X5162333Y5880765D01*
X5211631Y5999782D01*
X5253620Y6062623D01*
X5283205Y6106900D01*
X5283206Y6106901D01*
X5283208Y6106904D01*
X5374296Y6197992D01*
X5481418Y6269569D01*
X5600435Y6318867D01*
X5726787Y6344000D01*
X5855613Y6344000D01*
X5981965Y6318867D01*
X5981965Y6318867D01*
G37*
G36*
X31523538Y7024108D02*
G01*
X31699193Y6951350D01*
X31857282Y6845718D01*
X31991718Y6711282D01*
X32097350Y6553193D01*
X32170108Y6377538D01*
X32207200Y6191065D01*
X32207200Y6000935D01*
X32170108Y5814462D01*
X32097350Y5638807D01*
X31991718Y5480718D01*
X31857282Y5346282D01*
X31699193Y5240650D01*
X31523538Y5167892D01*
X31337065Y5130800D01*
X31146935Y5130800D01*
X30960462Y5167892D01*
X30784807Y5240650D01*
X30626718Y5346282D01*
X30492282Y5480718D01*
X30386650Y5638807D01*
X30313892Y5814462D01*
X30276800Y6000935D01*
X30276800Y6191065D01*
X30313892Y6377538D01*
X30386650Y6553193D01*
X30492282Y6711282D01*
X30626718Y6845718D01*
X30784807Y6951350D01*
X30960462Y7024108D01*
X31146935Y7061200D01*
X31337065Y7061200D01*
X31523538Y7024108D01*
X31523538Y7024108D01*
G37*
G36*
X40083338Y7024108D02*
G01*
X40258993Y6951350D01*
X40417082Y6845718D01*
X40551518Y6711282D01*
X40657150Y6553193D01*
X40729908Y6377538D01*
X40767000Y6191065D01*
X40767000Y6000935D01*
X40729908Y5814462D01*
X40657150Y5638807D01*
X40551518Y5480718D01*
X40417082Y5346282D01*
X40258993Y5240650D01*
X40083338Y5167892D01*
X39896865Y5130800D01*
X39706735Y5130800D01*
X39520262Y5167892D01*
X39344607Y5240650D01*
X39186518Y5346282D01*
X39052082Y5480718D01*
X38946450Y5638807D01*
X38873692Y5814462D01*
X38836600Y6000935D01*
X38836600Y6191065D01*
X38873692Y6377538D01*
X38946450Y6553193D01*
X39052082Y6711282D01*
X39186518Y6845718D01*
X39344607Y6951350D01*
X39520262Y7024108D01*
X39706735Y7061200D01*
X39896865Y7061200D01*
X40083338Y7024108D01*
X40083338Y7024108D01*
G37*
G36*
X42496338Y7024108D02*
G01*
X42671993Y6951350D01*
X42830082Y6845718D01*
X42964518Y6711282D01*
X43070150Y6553193D01*
X43142908Y6377538D01*
X43180000Y6191065D01*
X43180000Y6000935D01*
X43142908Y5814462D01*
X43070150Y5638807D01*
X42964518Y5480718D01*
X42830082Y5346282D01*
X42671993Y5240650D01*
X42496338Y5167892D01*
X42309865Y5130800D01*
X42119735Y5130800D01*
X41933262Y5167892D01*
X41757607Y5240650D01*
X41599518Y5346282D01*
X41465082Y5480718D01*
X41359450Y5638807D01*
X41286692Y5814462D01*
X41249600Y6000935D01*
X41249600Y6191065D01*
X41286692Y6377538D01*
X41359450Y6553193D01*
X41465082Y6711282D01*
X41599518Y6845718D01*
X41757607Y6951350D01*
X41933262Y7024108D01*
X42119735Y7061200D01*
X42309865Y7061200D01*
X42496338Y7024108D01*
X42496338Y7024108D01*
G37*
G36*
X9946640Y5223090D02*
G01*
X8945880Y5223090D01*
X8945880Y6724230D01*
X9946640Y6724230D01*
X9946640Y5223090D01*
X9946640Y5223090D01*
G37*
G36*
X12948920Y5223090D02*
G01*
X11948160Y5223090D01*
X11948160Y6724230D01*
X12948920Y6724230D01*
X12948920Y5223090D01*
X12948920Y5223090D01*
G37*
G36*
X29151200Y5342000D02*
G01*
X28151200Y5342000D01*
X28151200Y6342000D01*
X29151200Y6342000D01*
X29151200Y5342000D01*
X29151200Y5342000D01*
G37*
G36*
X45492718Y8120656D02*
G01*
X45720146Y8026452D01*
X45924825Y7889690D01*
X46098890Y7715625D01*
X46235652Y7510946D01*
X46329856Y7283518D01*
X46377880Y7042083D01*
X46377880Y6795917D01*
X46329856Y6554482D01*
X46235652Y6327054D01*
X46098890Y6122375D01*
X45924825Y5948310D01*
X45720146Y5811548D01*
X45492718Y5717344D01*
X45251283Y5669320D01*
X45005117Y5669320D01*
X44763682Y5717344D01*
X44536254Y5811548D01*
X44331575Y5948310D01*
X44157510Y6122375D01*
X44020748Y6327054D01*
X43926544Y6554482D01*
X43878520Y6795917D01*
X43878520Y7042083D01*
X43926544Y7283518D01*
X44020748Y7510946D01*
X44157510Y7715625D01*
X44331575Y7889690D01*
X44536254Y8026452D01*
X44763682Y8120656D01*
X45005117Y8168680D01*
X45251283Y8168680D01*
X45492718Y8120656D01*
X45492718Y8120656D01*
G37*
G36*
X52732538Y7913108D02*
G01*
X52908193Y7840350D01*
X53066282Y7734718D01*
X53200718Y7600282D01*
X53306350Y7442193D01*
X53379108Y7266538D01*
X53416200Y7080065D01*
X53416200Y6889935D01*
X53379108Y6703462D01*
X53306350Y6527807D01*
X53200718Y6369718D01*
X53066282Y6235282D01*
X52908193Y6129650D01*
X52732538Y6056892D01*
X52546065Y6019800D01*
X52355935Y6019800D01*
X52169462Y6056892D01*
X51993807Y6129650D01*
X51835718Y6235282D01*
X51701282Y6369718D01*
X51595650Y6527807D01*
X51522892Y6703462D01*
X51485800Y6889935D01*
X51485800Y7080065D01*
X51522892Y7266538D01*
X51595650Y7442193D01*
X51701282Y7600282D01*
X51835718Y7734718D01*
X51993807Y7840350D01*
X52169462Y7913108D01*
X52355935Y7950200D01*
X52546065Y7950200D01*
X52732538Y7913108D01*
X52732538Y7913108D01*
G37*
G36*
X55555400Y6104000D02*
G01*
X54555400Y6104000D01*
X54555400Y7104000D01*
X55555400Y7104000D01*
X55555400Y6104000D01*
X55555400Y6104000D01*
G37*
G36*
X57255400Y6104000D02*
G01*
X56255400Y6104000D01*
X56255400Y7104000D01*
X57255400Y7104000D01*
X57255400Y6104000D01*
X57255400Y6104000D01*
G37*
G36*
X35806000Y7006600D02*
G01*
X34806000Y7006600D01*
X34806000Y8006600D01*
X35806000Y8006600D01*
X35806000Y7006600D01*
X35806000Y7006600D01*
G37*
G36*
X29151200Y7042000D02*
G01*
X28151200Y7042000D01*
X28151200Y8042000D01*
X29151200Y8042000D01*
X29151200Y7042000D01*
X29151200Y7042000D01*
G37*
G36*
X8521965Y8858867D02*
G01*
X8640982Y8809569D01*
X8748104Y8737992D01*
X8839192Y8646904D01*
X8910769Y8539782D01*
X8960067Y8420765D01*
X8985200Y8294413D01*
X8985200Y8165587D01*
X8960067Y8039235D01*
X8910769Y7920218D01*
X8839192Y7813096D01*
X8748104Y7722008D01*
X8748101Y7722006D01*
X8748100Y7722005D01*
X8640985Y7650433D01*
X8640982Y7650431D01*
X8521965Y7601133D01*
X8395613Y7576000D01*
X8266787Y7576000D01*
X8140435Y7601133D01*
X8021418Y7650431D01*
X8021415Y7650433D01*
X7914300Y7722005D01*
X7914299Y7722006D01*
X7914296Y7722008D01*
X7823208Y7813096D01*
X7751631Y7920218D01*
X7702333Y8039235D01*
X7677200Y8165587D01*
X7677200Y8294413D01*
X7702333Y8420765D01*
X7751631Y8539782D01*
X7823208Y8646904D01*
X7914296Y8737992D01*
X8021418Y8809569D01*
X8140435Y8858867D01*
X8266787Y8884000D01*
X8395613Y8884000D01*
X8521965Y8858867D01*
X8521965Y8858867D01*
G37*
G36*
X3441965Y8858867D02*
G01*
X3560982Y8809569D01*
X3668104Y8737992D01*
X3759192Y8646904D01*
X3830769Y8539782D01*
X3880067Y8420765D01*
X3905200Y8294413D01*
X3905200Y8165587D01*
X3880067Y8039235D01*
X3830769Y7920218D01*
X3759192Y7813096D01*
X3668104Y7722008D01*
X3668101Y7722006D01*
X3668100Y7722005D01*
X3560985Y7650433D01*
X3560982Y7650431D01*
X3441965Y7601133D01*
X3315613Y7576000D01*
X3186787Y7576000D01*
X3060435Y7601133D01*
X2941418Y7650431D01*
X2941415Y7650433D01*
X2834300Y7722005D01*
X2834299Y7722006D01*
X2834296Y7722008D01*
X2743208Y7813096D01*
X2671631Y7920218D01*
X2622333Y8039235D01*
X2597200Y8165587D01*
X2597200Y8294413D01*
X2622333Y8420765D01*
X2671631Y8539782D01*
X2743208Y8646904D01*
X2834296Y8737992D01*
X2941418Y8809569D01*
X3060435Y8858867D01*
X3186787Y8884000D01*
X3315613Y8884000D01*
X3441965Y8858867D01*
X3441965Y8858867D01*
G37*
G36*
X13652500Y8225490D02*
G01*
X12052300Y8225490D01*
X12052300Y11225230D01*
X13652500Y11225230D01*
X13652500Y8225490D01*
X13652500Y8225490D01*
G37*
G36*
X41192600Y8454000D02*
G01*
X40192600Y8454000D01*
X40192600Y9454000D01*
X41192600Y9454000D01*
X41192600Y8454000D01*
X41192600Y8454000D01*
G37*
G36*
X42892600Y8454000D02*
G01*
X41892600Y8454000D01*
X41892600Y9454000D01*
X42892600Y9454000D01*
X42892600Y8454000D01*
X42892600Y8454000D01*
G37*
G36*
X35806000Y8706600D02*
G01*
X34806000Y8706600D01*
X34806000Y9706600D01*
X35806000Y9706600D01*
X35806000Y8706600D01*
X35806000Y8706600D01*
G37*
G36*
X29349700Y9127490D02*
G01*
X27749500Y9127490D01*
X27749500Y12127230D01*
X29349700Y12127230D01*
X29349700Y9127490D01*
X29349700Y9127490D01*
G37*
G36*
X45450000Y9922000D02*
G01*
X43450000Y9922000D01*
X43450000Y11922000D01*
X45450000Y11922000D01*
X45450000Y9922000D01*
X45450000Y9922000D01*
G37*
G36*
X57142000Y10080000D02*
G01*
X56142000Y10080000D01*
X56142000Y11080000D01*
X57142000Y11080000D01*
X57142000Y10080000D01*
X57142000Y10080000D01*
G37*
G36*
X3441965Y11398867D02*
G01*
X3560982Y11349569D01*
X3668104Y11277992D01*
X3759192Y11186904D01*
X3830769Y11079782D01*
X3880067Y10960765D01*
X3905200Y10834413D01*
X3905200Y10705587D01*
X3880067Y10579235D01*
X3830769Y10460218D01*
X3759192Y10353096D01*
X3668104Y10262008D01*
X3560982Y10190431D01*
X3441965Y10141133D01*
X3315613Y10116000D01*
X3186787Y10116000D01*
X3060435Y10141133D01*
X2941418Y10190431D01*
X2834296Y10262008D01*
X2743208Y10353096D01*
X2671631Y10460218D01*
X2622333Y10579235D01*
X2597200Y10705587D01*
X2597200Y10834413D01*
X2622333Y10960765D01*
X2671631Y11079782D01*
X2743208Y11186904D01*
X2834296Y11277992D01*
X2941418Y11349569D01*
X3060435Y11398867D01*
X3186787Y11424000D01*
X3315613Y11424000D01*
X3441965Y11398867D01*
X3441965Y11398867D01*
G37*
G36*
X8521965Y11398867D02*
G01*
X8640982Y11349569D01*
X8748104Y11277992D01*
X8839192Y11186904D01*
X8910769Y11079782D01*
X8960067Y10960765D01*
X8985200Y10834413D01*
X8985200Y10705587D01*
X8960067Y10579235D01*
X8910769Y10460218D01*
X8839192Y10353096D01*
X8748104Y10262008D01*
X8640982Y10190431D01*
X8521965Y10141133D01*
X8395613Y10116000D01*
X8266787Y10116000D01*
X8140435Y10141133D01*
X8021418Y10190431D01*
X7914296Y10262008D01*
X7823208Y10353096D01*
X7751631Y10460218D01*
X7702333Y10579235D01*
X7677200Y10705587D01*
X7677200Y10834413D01*
X7702333Y10960765D01*
X7751631Y11079782D01*
X7823208Y11186904D01*
X7914296Y11277992D01*
X8021418Y11349569D01*
X8140435Y11398867D01*
X8266787Y11424000D01*
X8395613Y11424000D01*
X8521965Y11398867D01*
X8521965Y11398867D01*
G37*
G36*
X20041830Y10210900D02*
G01*
X17042090Y10210900D01*
X17042090Y11811100D01*
X20041830Y11811100D01*
X20041830Y10210900D01*
X20041830Y10210900D01*
G37*
G36*
X24441110Y10210900D02*
G01*
X21441370Y10210900D01*
X21441370Y11811100D01*
X24441110Y11811100D01*
X24441110Y10210900D01*
X24441110Y10210900D01*
G37*
G36*
X49362400Y10306000D02*
G01*
X47912400Y10306000D01*
X47912400Y12706000D01*
X49362400Y12706000D01*
X49362400Y10306000D01*
X49362400Y10306000D01*
G37*
G36*
X55262400Y10306000D02*
G01*
X53812400Y10306000D01*
X53812400Y12706000D01*
X55262400Y12706000D01*
X55262400Y10306000D01*
X55262400Y10306000D01*
G37*
G36*
X6596000Y10334000D02*
G01*
X5596000Y10334000D01*
X5596000Y11334000D01*
X6596000Y11334000D01*
X6596000Y10334000D01*
X6596000Y10334000D01*
G37*
G36*
X34878520Y13195000D02*
G01*
X35005395Y13182504D01*
X35125827Y13145971D01*
X35168188Y13133121D01*
X35318212Y13052932D01*
X35449712Y12945012D01*
X35557632Y12813512D01*
X35637821Y12663488D01*
X35637822Y12663484D01*
X35687204Y12500694D01*
X35699700Y12373819D01*
X35699700Y11984180D01*
X35687204Y11857305D01*
X35650671Y11736873D01*
X35637821Y11694512D01*
X35557632Y11544488D01*
X35449712Y11412988D01*
X35318212Y11305068D01*
X35168187Y11224879D01*
X35125826Y11212029D01*
X35005394Y11175496D01*
X34836100Y11158822D01*
X34836099Y11158822D01*
X34779668Y11164380D01*
X34666805Y11175496D01*
X34546373Y11212029D01*
X34504012Y11224879D01*
X34353988Y11305068D01*
X34222488Y11412988D01*
X34114568Y11544488D01*
X34034379Y11694513D01*
X33999013Y11811100D01*
X33984996Y11857306D01*
X33972500Y11984181D01*
X33972500Y12373820D01*
X33984996Y12500695D01*
X34034378Y12663484D01*
X34034379Y12663488D01*
X34114567Y12813509D01*
X34114569Y12813512D01*
X34222488Y12945012D01*
X34275262Y12988322D01*
X34353989Y13052932D01*
X34504013Y13133121D01*
X34546374Y13145971D01*
X34666806Y13182504D01*
X34836100Y13199178D01*
X34836101Y13199178D01*
X34878520Y13195000D01*
X34878520Y13195000D01*
G37*
G36*
X37418520Y13195000D02*
G01*
X37545395Y13182504D01*
X37665827Y13145971D01*
X37708188Y13133121D01*
X37858212Y13052932D01*
X37989712Y12945012D01*
X38097632Y12813512D01*
X38177821Y12663488D01*
X38177822Y12663484D01*
X38227204Y12500694D01*
X38239700Y12373819D01*
X38239700Y11984180D01*
X38227204Y11857305D01*
X38190671Y11736873D01*
X38177821Y11694512D01*
X38097632Y11544488D01*
X37989712Y11412988D01*
X37858212Y11305068D01*
X37708187Y11224879D01*
X37665826Y11212029D01*
X37545394Y11175496D01*
X37376100Y11158822D01*
X37376099Y11158822D01*
X37319668Y11164380D01*
X37206805Y11175496D01*
X37086373Y11212029D01*
X37044012Y11224879D01*
X36893988Y11305068D01*
X36762488Y11412988D01*
X36654568Y11544488D01*
X36574379Y11694513D01*
X36539013Y11811100D01*
X36524996Y11857306D01*
X36512500Y11984181D01*
X36512500Y12373820D01*
X36524996Y12500695D01*
X36574378Y12663484D01*
X36574379Y12663488D01*
X36654567Y12813509D01*
X36654569Y12813512D01*
X36762488Y12945012D01*
X36815262Y12988322D01*
X36893989Y13052932D01*
X37044013Y13133121D01*
X37086374Y13145971D01*
X37206806Y13182504D01*
X37376100Y13199178D01*
X37376101Y13199178D01*
X37418520Y13195000D01*
X37418520Y13195000D01*
G37*
G36*
X40779700Y11163000D02*
G01*
X39052500Y11163000D01*
X39052500Y13195000D01*
X40779700Y13195000D01*
X40779700Y11163000D01*
X40779700Y11163000D01*
G37*
G36*
X57142000Y11780000D02*
G01*
X56142000Y11780000D01*
X56142000Y12780000D01*
X57142000Y12780000D01*
X57142000Y11780000D01*
X57142000Y11780000D01*
G37*
G36*
X6596000Y12034000D02*
G01*
X5596000Y12034000D01*
X5596000Y13034000D01*
X6596000Y13034000D01*
X6596000Y12034000D01*
X6596000Y12034000D01*
G37*
G36*
X44625770Y14446628D02*
G01*
X44741689Y14423571D01*
X44923678Y14348189D01*
X45087463Y14238751D01*
X45226751Y14099463D01*
X45336189Y13935678D01*
X45411571Y13753689D01*
X45434628Y13637770D01*
X45438207Y13619782D01*
X45450000Y13560491D01*
X45450000Y13363509D01*
X45411571Y13170311D01*
X45336189Y12988322D01*
X45226751Y12824537D01*
X45087463Y12685249D01*
X44923678Y12575811D01*
X44741689Y12500429D01*
X44625770Y12477372D01*
X44548493Y12462000D01*
X44351507Y12462000D01*
X44274230Y12477372D01*
X44158311Y12500429D01*
X43976322Y12575811D01*
X43812537Y12685249D01*
X43673249Y12824537D01*
X43563811Y12988322D01*
X43488429Y13170311D01*
X43450000Y13363509D01*
X43450000Y13560491D01*
X43461794Y13619782D01*
X43465372Y13637770D01*
X43488429Y13753689D01*
X43563811Y13935678D01*
X43673249Y14099463D01*
X43812537Y14238751D01*
X43976322Y14348189D01*
X44158311Y14423571D01*
X44274230Y14446628D01*
X44351507Y14462000D01*
X44548493Y14462000D01*
X44625770Y14446628D01*
X44625770Y14446628D01*
G37*
G36*
X13652500Y12624770D02*
G01*
X12052300Y12624770D01*
X12052300Y15624510D01*
X13652500Y15624510D01*
X13652500Y12624770D01*
X13652500Y12624770D01*
G37*
G36*
X3441965Y13938867D02*
G01*
X3560982Y13889569D01*
X3668104Y13817992D01*
X3759192Y13726904D01*
X3830769Y13619782D01*
X3880067Y13500765D01*
X3905200Y13374413D01*
X3905200Y13245587D01*
X3880067Y13119235D01*
X3830769Y13000218D01*
X3830767Y13000215D01*
X3793882Y12945012D01*
X3759192Y12893096D01*
X3668104Y12802008D01*
X3560982Y12730431D01*
X3441965Y12681133D01*
X3315613Y12656000D01*
X3186787Y12656000D01*
X3060435Y12681133D01*
X2941418Y12730431D01*
X2834296Y12802008D01*
X2743208Y12893096D01*
X2708519Y12945012D01*
X2671633Y13000215D01*
X2671631Y13000218D01*
X2622333Y13119235D01*
X2597200Y13245587D01*
X2597200Y13374413D01*
X2622333Y13500765D01*
X2671631Y13619782D01*
X2743208Y13726904D01*
X2834296Y13817992D01*
X2941418Y13889569D01*
X3060435Y13938867D01*
X3186787Y13964000D01*
X3315613Y13964000D01*
X3441965Y13938867D01*
X3441965Y13938867D01*
G37*
G36*
X8521965Y13938867D02*
G01*
X8640982Y13889569D01*
X8748104Y13817992D01*
X8839192Y13726904D01*
X8910769Y13619782D01*
X8960067Y13500765D01*
X8985200Y13374413D01*
X8985200Y13245587D01*
X8960067Y13119235D01*
X8910769Y13000218D01*
X8910767Y13000215D01*
X8873882Y12945012D01*
X8839192Y12893096D01*
X8748104Y12802008D01*
X8640982Y12730431D01*
X8521965Y12681133D01*
X8395613Y12656000D01*
X8266787Y12656000D01*
X8140435Y12681133D01*
X8021418Y12730431D01*
X7914296Y12802008D01*
X7823208Y12893096D01*
X7788519Y12945012D01*
X7751633Y13000215D01*
X7751631Y13000218D01*
X7702333Y13119235D01*
X7677200Y13245587D01*
X7677200Y13374413D01*
X7702333Y13500765D01*
X7751631Y13619782D01*
X7823208Y13726904D01*
X7914296Y13817992D01*
X8021418Y13889569D01*
X8140435Y13938867D01*
X8266787Y13964000D01*
X8395613Y13964000D01*
X8521965Y13938867D01*
X8521965Y13938867D01*
G37*
G36*
X57523000Y13394000D02*
G01*
X56523000Y13394000D01*
X56523000Y14394000D01*
X57523000Y14394000D01*
X57523000Y13394000D01*
X57523000Y13394000D01*
G37*
G36*
X29349700Y13526770D02*
G01*
X27749500Y13526770D01*
X27749500Y16526510D01*
X29349700Y16526510D01*
X29349700Y13526770D01*
X29349700Y13526770D01*
G37*
G36*
X49014000Y13585000D02*
G01*
X48014000Y13585000D01*
X48014000Y14585000D01*
X49014000Y14585000D01*
X49014000Y13585000D01*
X49014000Y13585000D01*
G37*
G36*
X52732538Y16472908D02*
G01*
X52908193Y16400150D01*
X53066282Y16294518D01*
X53200718Y16160082D01*
X53306350Y16001993D01*
X53379108Y15826338D01*
X53416200Y15639865D01*
X53416200Y15449735D01*
X53379108Y15263262D01*
X53306350Y15087607D01*
X53200718Y14929518D01*
X53066282Y14795082D01*
X52908193Y14689450D01*
X52732538Y14616692D01*
X52546065Y14579600D01*
X52355935Y14579600D01*
X52169462Y14616692D01*
X51993807Y14689450D01*
X51835718Y14795082D01*
X51701282Y14929518D01*
X51595650Y15087607D01*
X51522892Y15263262D01*
X51485800Y15449735D01*
X51485800Y15639865D01*
X51522892Y15826338D01*
X51595650Y16001993D01*
X51701282Y16160082D01*
X51835718Y16294518D01*
X51993807Y16400150D01*
X52169462Y16472908D01*
X52355935Y16510000D01*
X52546065Y16510000D01*
X52732538Y16472908D01*
X52732538Y16472908D01*
G37*
G36*
X57523000Y15094000D02*
G01*
X56523000Y15094000D01*
X56523000Y16094000D01*
X57523000Y16094000D01*
X57523000Y15094000D01*
X57523000Y15094000D01*
G37*
G36*
X6445200Y15196000D02*
G01*
X5137200Y15196000D01*
X5137200Y16504000D01*
X6445200Y16504000D01*
X6445200Y15196000D01*
X6445200Y15196000D01*
G37*
G36*
X49014000Y15285000D02*
G01*
X48014000Y15285000D01*
X48014000Y16285000D01*
X49014000Y16285000D01*
X49014000Y15285000D01*
X49014000Y15285000D01*
G37*
G36*
X55795800Y15350000D02*
G01*
X54795800Y15350000D01*
X54795800Y16350000D01*
X55795800Y16350000D01*
X55795800Y15350000D01*
X55795800Y15350000D01*
G37*
G36*
X21437600Y15367000D02*
G01*
X17780000Y15367000D01*
X17780000Y17399000D01*
X21437600Y17399000D01*
X21437600Y15367000D01*
X21437600Y15367000D01*
G37*
G36*
X4144000Y16010000D02*
G01*
X3144000Y16010000D01*
X3144000Y17010000D01*
X4144000Y17010000D01*
X4144000Y16010000D01*
X4144000Y16010000D01*
G37*
G36*
X2444000Y16010000D02*
G01*
X1444000Y16010000D01*
X1444000Y17010000D01*
X2444000Y17010000D01*
X2444000Y16010000D01*
X2444000Y16010000D01*
G37*
G36*
X44938200Y16899000D02*
G01*
X43938200Y16899000D01*
X43938200Y17899000D01*
X44938200Y17899000D01*
X44938200Y16899000D01*
X44938200Y16899000D01*
G37*
G36*
X46638200Y16899000D02*
G01*
X45638200Y16899000D01*
X45638200Y17899000D01*
X46638200Y17899000D01*
X46638200Y16899000D01*
X46638200Y16899000D01*
G37*
G36*
X57472200Y16938000D02*
G01*
X56472200Y16938000D01*
X56472200Y17938000D01*
X57472200Y17938000D01*
X57472200Y16938000D01*
X57472200Y16938000D01*
G37*
G36*
X52732538Y18885908D02*
G01*
X52908193Y18813150D01*
X53066282Y18707518D01*
X53200718Y18573082D01*
X53306350Y18414993D01*
X53379108Y18239338D01*
X53416200Y18052865D01*
X53416200Y17862735D01*
X53379108Y17676262D01*
X53306350Y17500607D01*
X53200718Y17342518D01*
X53066282Y17208082D01*
X52908193Y17102450D01*
X52732538Y17029692D01*
X52546065Y16992600D01*
X52355935Y16992600D01*
X52169462Y17029692D01*
X51993807Y17102450D01*
X51835718Y17208082D01*
X51701282Y17342518D01*
X51595650Y17500607D01*
X51522892Y17676262D01*
X51485800Y17862735D01*
X51485800Y18052865D01*
X51522892Y18239338D01*
X51595650Y18414993D01*
X51701282Y18573082D01*
X51835718Y18707518D01*
X51993807Y18813150D01*
X52169462Y18885908D01*
X52355935Y18923000D01*
X52546065Y18923000D01*
X52732538Y18885908D01*
X52732538Y18885908D01*
G37*
G36*
X48418000Y17026000D02*
G01*
X47418000Y17026000D01*
X47418000Y18026000D01*
X48418000Y18026000D01*
X48418000Y17026000D01*
X48418000Y17026000D01*
G37*
G36*
X50118000Y17026000D02*
G01*
X49118000Y17026000D01*
X49118000Y18026000D01*
X50118000Y18026000D01*
X50118000Y17026000D01*
X50118000Y17026000D01*
G37*
G36*
X55795800Y17050000D02*
G01*
X54795800Y17050000D01*
X54795800Y18050000D01*
X55795800Y18050000D01*
X55795800Y17050000D01*
X55795800Y17050000D01*
G37*
G36*
X41937538Y19216108D02*
G01*
X42113193Y19143350D01*
X42271282Y19037718D01*
X42405718Y18903282D01*
X42511350Y18745193D01*
X42584108Y18569538D01*
X42621200Y18383065D01*
X42621200Y18192935D01*
X42584108Y18006462D01*
X42511350Y17830807D01*
X42405718Y17672718D01*
X42271282Y17538282D01*
X42113193Y17432650D01*
X41937538Y17359892D01*
X41751065Y17322800D01*
X41560935Y17322800D01*
X41374462Y17359892D01*
X41198807Y17432650D01*
X41040718Y17538282D01*
X40906282Y17672718D01*
X40800650Y17830807D01*
X40727892Y18006462D01*
X40690800Y18192935D01*
X40690800Y18383065D01*
X40727892Y18569538D01*
X40800650Y18745193D01*
X40906282Y18903282D01*
X41040718Y19037718D01*
X41198807Y19143350D01*
X41374462Y19216108D01*
X41560935Y19253200D01*
X41751065Y19253200D01*
X41937538Y19216108D01*
X41937538Y19216108D01*
G37*
G36*
X33377738Y19216108D02*
G01*
X33553393Y19143350D01*
X33711482Y19037718D01*
X33845918Y18903282D01*
X33951550Y18745193D01*
X34024308Y18569538D01*
X34061400Y18383065D01*
X34061400Y18192935D01*
X34024308Y18006462D01*
X33951550Y17830807D01*
X33845918Y17672718D01*
X33711482Y17538282D01*
X33553393Y17432650D01*
X33377738Y17359892D01*
X33191265Y17322800D01*
X33001135Y17322800D01*
X32814662Y17359892D01*
X32639007Y17432650D01*
X32480918Y17538282D01*
X32346482Y17672718D01*
X32240850Y17830807D01*
X32168092Y18006462D01*
X32131000Y18192935D01*
X32131000Y18383065D01*
X32168092Y18569538D01*
X32240850Y18745193D01*
X32346482Y18903282D01*
X32480918Y19037718D01*
X32639007Y19143350D01*
X32814662Y19216108D01*
X33001135Y19253200D01*
X33191265Y19253200D01*
X33377738Y19216108D01*
X33377738Y19216108D01*
G37*
G36*
X30964738Y19216108D02*
G01*
X31140393Y19143350D01*
X31298482Y19037718D01*
X31432918Y18903282D01*
X31538550Y18745193D01*
X31611308Y18569538D01*
X31648400Y18383065D01*
X31648400Y18192935D01*
X31611308Y18006462D01*
X31538550Y17830807D01*
X31432918Y17672718D01*
X31298482Y17538282D01*
X31140393Y17432650D01*
X30964738Y17359892D01*
X30778265Y17322800D01*
X30588135Y17322800D01*
X30401662Y17359892D01*
X30226007Y17432650D01*
X30067918Y17538282D01*
X29933482Y17672718D01*
X29827850Y17830807D01*
X29755092Y18006462D01*
X29718000Y18192935D01*
X29718000Y18383065D01*
X29755092Y18569538D01*
X29827850Y18745193D01*
X29933482Y18903282D01*
X30067918Y19037718D01*
X30226007Y19143350D01*
X30401662Y19216108D01*
X30588135Y19253200D01*
X30778265Y19253200D01*
X30964738Y19216108D01*
X30964738Y19216108D01*
G37*
G36*
X13727430Y17401340D02*
G01*
X11926570Y17401340D01*
X11926570Y19900700D01*
X13727430Y19900700D01*
X13727430Y17401340D01*
X13727430Y17401340D01*
G37*
G36*
X27214830Y17673340D02*
G01*
X25413970Y17673340D01*
X25413970Y20172700D01*
X27214830Y20172700D01*
X27214830Y17673340D01*
X27214830Y17673340D01*
G37*
G36*
X2444000Y17915000D02*
G01*
X1444000Y17915000D01*
X1444000Y18915000D01*
X2444000Y18915000D01*
X2444000Y17915000D01*
X2444000Y17915000D01*
G37*
G36*
X4144000Y17915000D02*
G01*
X3144000Y17915000D01*
X3144000Y18915000D01*
X4144000Y18915000D01*
X4144000Y17915000D01*
X4144000Y17915000D01*
G37*
G36*
X5981965Y19678867D02*
G01*
X6100982Y19629569D01*
X6208104Y19557992D01*
X6299192Y19466904D01*
X6370769Y19359782D01*
X6420067Y19240765D01*
X6445200Y19114413D01*
X6445200Y18985587D01*
X6420067Y18859235D01*
X6370769Y18740218D01*
X6370767Y18740215D01*
X6348920Y18707518D01*
X6299192Y18633096D01*
X6208104Y18542008D01*
X6100982Y18470431D01*
X5981965Y18421133D01*
X5855613Y18396000D01*
X5726787Y18396000D01*
X5600435Y18421133D01*
X5481418Y18470431D01*
X5374296Y18542008D01*
X5283208Y18633096D01*
X5233481Y18707518D01*
X5211633Y18740215D01*
X5211631Y18740218D01*
X5162333Y18859235D01*
X5137200Y18985587D01*
X5137200Y19114413D01*
X5162333Y19240765D01*
X5211631Y19359782D01*
X5283208Y19466904D01*
X5374296Y19557992D01*
X5481418Y19629569D01*
X5600435Y19678867D01*
X5726787Y19704000D01*
X5855613Y19704000D01*
X5981965Y19678867D01*
X5981965Y19678867D01*
G37*
G36*
X57472200Y18638000D02*
G01*
X56472200Y18638000D01*
X56472200Y19638000D01*
X57472200Y19638000D01*
X57472200Y18638000D01*
X57472200Y18638000D01*
G37*
G36*
X54602000Y19605000D02*
G01*
X53602000Y19605000D01*
X53602000Y20605000D01*
X54602000Y20605000D01*
X54602000Y19605000D01*
X54602000Y19605000D01*
G37*
G36*
X47007400Y20011000D02*
G01*
X46007400Y20011000D01*
X46007400Y21011000D01*
X47007400Y21011000D01*
X47007400Y20011000D01*
X47007400Y20011000D01*
G37*
G36*
X57523000Y20138000D02*
G01*
X56523000Y20138000D01*
X56523000Y21138000D01*
X57523000Y21138000D01*
X57523000Y20138000D01*
X57523000Y20138000D01*
G37*
G36*
X30455918Y22882936D02*
G01*
X30683346Y22788732D01*
X30888025Y22651970D01*
X31062090Y22477905D01*
X31198852Y22273226D01*
X31293056Y22045798D01*
X31341080Y21804363D01*
X31341080Y21558197D01*
X31293056Y21316762D01*
X31198852Y21089334D01*
X31062090Y20884655D01*
X30888025Y20710590D01*
X30683346Y20573828D01*
X30455918Y20479624D01*
X30214483Y20431600D01*
X29968317Y20431600D01*
X29726882Y20479624D01*
X29499454Y20573828D01*
X29294775Y20710590D01*
X29120710Y20884655D01*
X28983948Y21089334D01*
X28889744Y21316762D01*
X28841720Y21558197D01*
X28841720Y21804363D01*
X28889744Y22045798D01*
X28983948Y22273226D01*
X29120710Y22477905D01*
X29294775Y22651970D01*
X29499454Y22788732D01*
X29726882Y22882936D01*
X29968317Y22930960D01*
X30214483Y22930960D01*
X30455918Y22882936D01*
X30455918Y22882936D01*
G37*
G36*
X44392700Y20607000D02*
G01*
X41992700Y20607000D01*
X41992700Y22057000D01*
X44392700Y22057000D01*
X44392700Y20607000D01*
X44392700Y20607000D01*
G37*
G36*
X8521965Y22218867D02*
G01*
X8640982Y22169569D01*
X8748104Y22097992D01*
X8839192Y22006904D01*
X8839194Y22006901D01*
X8839195Y22006900D01*
X8910767Y21899785D01*
X8910769Y21899782D01*
X8960067Y21780765D01*
X8985200Y21654413D01*
X8985200Y21525587D01*
X8960067Y21399235D01*
X8910769Y21280218D01*
X8839192Y21173096D01*
X8748104Y21082008D01*
X8640982Y21010431D01*
X8521965Y20961133D01*
X8395613Y20936000D01*
X8266787Y20936000D01*
X8140435Y20961133D01*
X8021418Y21010431D01*
X7914296Y21082008D01*
X7823208Y21173096D01*
X7751631Y21280218D01*
X7702333Y21399235D01*
X7677200Y21525587D01*
X7677200Y21654413D01*
X7702333Y21780765D01*
X7751631Y21899782D01*
X7751633Y21899785D01*
X7823205Y22006900D01*
X7823206Y22006901D01*
X7823208Y22006904D01*
X7914296Y22097992D01*
X8021418Y22169569D01*
X8140435Y22218867D01*
X8266787Y22244000D01*
X8395613Y22244000D01*
X8521965Y22218867D01*
X8521965Y22218867D01*
G37*
G36*
X3441965Y22218867D02*
G01*
X3560982Y22169569D01*
X3668104Y22097992D01*
X3759192Y22006904D01*
X3759194Y22006901D01*
X3759195Y22006900D01*
X3830767Y21899785D01*
X3830769Y21899782D01*
X3880067Y21780765D01*
X3905200Y21654413D01*
X3905200Y21525587D01*
X3880067Y21399235D01*
X3830769Y21280218D01*
X3759192Y21173096D01*
X3668104Y21082008D01*
X3560982Y21010431D01*
X3441965Y20961133D01*
X3315613Y20936000D01*
X3186787Y20936000D01*
X3060435Y20961133D01*
X2941418Y21010431D01*
X2834296Y21082008D01*
X2743208Y21173096D01*
X2671631Y21280218D01*
X2622333Y21399235D01*
X2597200Y21525587D01*
X2597200Y21654413D01*
X2622333Y21780765D01*
X2671631Y21899782D01*
X2671633Y21899785D01*
X2743205Y22006900D01*
X2743206Y22006901D01*
X2743208Y22006904D01*
X2834296Y22097992D01*
X2941418Y22169569D01*
X3060435Y22218867D01*
X3186787Y22244000D01*
X3315613Y22244000D01*
X3441965Y22218867D01*
X3441965Y22218867D01*
G37*
G36*
X6342000Y21002000D02*
G01*
X5342000Y21002000D01*
X5342000Y22002000D01*
X6342000Y22002000D01*
X6342000Y21002000D01*
X6342000Y21002000D01*
G37*
G36*
X54602000Y21305000D02*
G01*
X53602000Y21305000D01*
X53602000Y22305000D01*
X54602000Y22305000D01*
X54602000Y21305000D01*
X54602000Y21305000D01*
G37*
G36*
X13727430Y21399300D02*
G01*
X11926570Y21399300D01*
X11926570Y23898660D01*
X13727430Y23898660D01*
X13727430Y21399300D01*
X13727430Y21399300D01*
G37*
G36*
X27214830Y21671300D02*
G01*
X25413970Y21671300D01*
X25413970Y24170660D01*
X27214830Y24170660D01*
X27214830Y21671300D01*
X27214830Y21671300D01*
G37*
G36*
X47007400Y21711000D02*
G01*
X46007400Y21711000D01*
X46007400Y22711000D01*
X47007400Y22711000D01*
X47007400Y21711000D01*
X47007400Y21711000D01*
G37*
G36*
X57523000Y21838000D02*
G01*
X56523000Y21838000D01*
X56523000Y22838000D01*
X57523000Y22838000D01*
X57523000Y21838000D01*
X57523000Y21838000D01*
G37*
G36*
X17830800Y21971000D02*
G01*
X16814800Y21971000D01*
X16814800Y24003000D01*
X17830800Y24003000D01*
X17830800Y21971000D01*
X17830800Y21971000D01*
G37*
G36*
X20116800Y21971000D02*
G01*
X19100800Y21971000D01*
X19100800Y24003000D01*
X20116800Y24003000D01*
X20116800Y21971000D01*
X20116800Y21971000D01*
G37*
G36*
X22402800Y21971000D02*
G01*
X21386800Y21971000D01*
X21386800Y24003000D01*
X22402800Y24003000D01*
X22402800Y21971000D01*
X22402800Y21971000D01*
G37*
G36*
X6342000Y22702000D02*
G01*
X5342000Y22702000D01*
X5342000Y23702000D01*
X6342000Y23702000D01*
X6342000Y22702000D01*
X6342000Y22702000D01*
G37*
G36*
X35454638Y25382296D02*
G01*
X35682066Y25288092D01*
X35886745Y25151330D01*
X36060810Y24977265D01*
X36197572Y24772586D01*
X36291776Y24545158D01*
X36339800Y24303723D01*
X36339800Y24057557D01*
X36291776Y23816122D01*
X36197572Y23588694D01*
X36060810Y23384015D01*
X35886745Y23209950D01*
X35682066Y23073188D01*
X35454638Y22978984D01*
X35213203Y22930960D01*
X34967037Y22930960D01*
X34725602Y22978984D01*
X34498174Y23073188D01*
X34293495Y23209950D01*
X34119430Y23384015D01*
X33982668Y23588694D01*
X33888464Y23816122D01*
X33840440Y24057557D01*
X33840440Y24303723D01*
X33888464Y24545158D01*
X33982668Y24772586D01*
X34119430Y24977265D01*
X34293495Y25151330D01*
X34498174Y25288092D01*
X34725602Y25382296D01*
X34967037Y25430320D01*
X35213203Y25430320D01*
X35454638Y25382296D01*
X35454638Y25382296D01*
G37*
G36*
X52062000Y23401000D02*
G01*
X51062000Y23401000D01*
X51062000Y24401000D01*
X52062000Y24401000D01*
X52062000Y23401000D01*
X52062000Y23401000D01*
G37*
G36*
X53762000Y23401000D02*
G01*
X52762000Y23401000D01*
X52762000Y24401000D01*
X53762000Y24401000D01*
X53762000Y23401000D01*
X53762000Y23401000D01*
G37*
G36*
X46966738Y25312108D02*
G01*
X47142393Y25239350D01*
X47300482Y25133718D01*
X47434918Y24999282D01*
X47540550Y24841193D01*
X47613308Y24665538D01*
X47650400Y24479065D01*
X47650400Y24288935D01*
X47613308Y24102462D01*
X47540550Y23926807D01*
X47434918Y23768718D01*
X47300482Y23634282D01*
X47142393Y23528650D01*
X46966738Y23455892D01*
X46780265Y23418800D01*
X46590135Y23418800D01*
X46403662Y23455892D01*
X46228007Y23528650D01*
X46069918Y23634282D01*
X45935482Y23768718D01*
X45829850Y23926807D01*
X45757092Y24102462D01*
X45720000Y24288935D01*
X45720000Y24479065D01*
X45757092Y24665538D01*
X45829850Y24841193D01*
X45935482Y24999282D01*
X46069918Y25133718D01*
X46228007Y25239350D01*
X46403662Y25312108D01*
X46590135Y25349200D01*
X46780265Y25349200D01*
X46966738Y25312108D01*
X46966738Y25312108D01*
G37*
G36*
X49379738Y25312108D02*
G01*
X49555393Y25239350D01*
X49713482Y25133718D01*
X49847918Y24999282D01*
X49953550Y24841193D01*
X50026308Y24665538D01*
X50063400Y24479065D01*
X50063400Y24288935D01*
X50026308Y24102462D01*
X49953550Y23926807D01*
X49847918Y23768718D01*
X49713482Y23634282D01*
X49555393Y23528650D01*
X49379738Y23455892D01*
X49193265Y23418800D01*
X49003135Y23418800D01*
X48816662Y23455892D01*
X48641007Y23528650D01*
X48482918Y23634282D01*
X48348482Y23768718D01*
X48242850Y23926807D01*
X48170092Y24102462D01*
X48133000Y24288935D01*
X48133000Y24479065D01*
X48170092Y24665538D01*
X48242850Y24841193D01*
X48348482Y24999282D01*
X48482918Y25133718D01*
X48641007Y25239350D01*
X48816662Y25312108D01*
X49003135Y25349200D01*
X49193265Y25349200D01*
X49379738Y25312108D01*
X49379738Y25312108D01*
G37*
G36*
X57939538Y25312108D02*
G01*
X58115193Y25239350D01*
X58273282Y25133718D01*
X58407718Y24999282D01*
X58513350Y24841193D01*
X58586108Y24665538D01*
X58623200Y24479065D01*
X58623200Y24288935D01*
X58586108Y24102462D01*
X58513350Y23926807D01*
X58407718Y23768718D01*
X58273282Y23634282D01*
X58115193Y23528650D01*
X57939538Y23455892D01*
X57753065Y23418800D01*
X57562935Y23418800D01*
X57376462Y23455892D01*
X57200807Y23528650D01*
X57042718Y23634282D01*
X56908282Y23768718D01*
X56802650Y23926807D01*
X56729892Y24102462D01*
X56692800Y24288935D01*
X56692800Y24479065D01*
X56729892Y24665538D01*
X56802650Y24841193D01*
X56908282Y24999282D01*
X57042718Y25133718D01*
X57200807Y25239350D01*
X57376462Y25312108D01*
X57562935Y25349200D01*
X57753065Y25349200D01*
X57939538Y25312108D01*
X57939538Y25312108D01*
G37*
G36*
X3441965Y24758867D02*
G01*
X3560982Y24709569D01*
X3668104Y24637992D01*
X3759192Y24546904D01*
X3759194Y24546901D01*
X3759195Y24546900D01*
X3830767Y24439785D01*
X3830769Y24439782D01*
X3880067Y24320765D01*
X3905200Y24194413D01*
X3905200Y24065587D01*
X3880067Y23939235D01*
X3830769Y23820218D01*
X3759192Y23713096D01*
X3668104Y23622008D01*
X3668101Y23622006D01*
X3668100Y23622005D01*
X3560985Y23550433D01*
X3560982Y23550431D01*
X3441965Y23501133D01*
X3315613Y23476000D01*
X3186787Y23476000D01*
X3060435Y23501133D01*
X2941418Y23550431D01*
X2941415Y23550433D01*
X2834300Y23622005D01*
X2834299Y23622006D01*
X2834296Y23622008D01*
X2743208Y23713096D01*
X2671631Y23820218D01*
X2622333Y23939235D01*
X2597200Y24065587D01*
X2597200Y24194413D01*
X2622333Y24320765D01*
X2671631Y24439782D01*
X2671633Y24439785D01*
X2743205Y24546900D01*
X2743206Y24546901D01*
X2743208Y24546904D01*
X2834296Y24637992D01*
X2941418Y24709569D01*
X3060435Y24758867D01*
X3186787Y24784000D01*
X3315613Y24784000D01*
X3441965Y24758867D01*
X3441965Y24758867D01*
G37*
G36*
X8521965Y24758867D02*
G01*
X8640982Y24709569D01*
X8748104Y24637992D01*
X8839192Y24546904D01*
X8839194Y24546901D01*
X8839195Y24546900D01*
X8910767Y24439785D01*
X8910769Y24439782D01*
X8960067Y24320765D01*
X8985200Y24194413D01*
X8985200Y24065587D01*
X8960067Y23939235D01*
X8910769Y23820218D01*
X8839192Y23713096D01*
X8748104Y23622008D01*
X8748101Y23622006D01*
X8748100Y23622005D01*
X8640985Y23550433D01*
X8640982Y23550431D01*
X8521965Y23501133D01*
X8395613Y23476000D01*
X8266787Y23476000D01*
X8140435Y23501133D01*
X8021418Y23550431D01*
X8021415Y23550433D01*
X7914300Y23622005D01*
X7914299Y23622006D01*
X7914296Y23622008D01*
X7823208Y23713096D01*
X7751631Y23820218D01*
X7702333Y23939235D01*
X7677200Y24065587D01*
X7677200Y24194413D01*
X7702333Y24320765D01*
X7751631Y24439782D01*
X7751633Y24439785D01*
X7823205Y24546900D01*
X7823206Y24546901D01*
X7823208Y24546904D01*
X7914296Y24637992D01*
X8021418Y24709569D01*
X8140435Y24758867D01*
X8266787Y24784000D01*
X8395613Y24784000D01*
X8521965Y24758867D01*
X8521965Y24758867D01*
G37*
G36*
X6469000Y24685000D02*
G01*
X5469000Y24685000D01*
X5469000Y25685000D01*
X6469000Y25685000D01*
X6469000Y24685000D01*
X6469000Y24685000D01*
G37*
G36*
X53990600Y25179000D02*
G01*
X52990600Y25179000D01*
X52990600Y26179000D01*
X53990600Y26179000D01*
X53990600Y25179000D01*
X53990600Y25179000D01*
G37*
G36*
X52290600Y25179000D02*
G01*
X51290600Y25179000D01*
X51290600Y26179000D01*
X52290600Y26179000D01*
X52290600Y25179000D01*
X52290600Y25179000D01*
G37*
G36*
X30455918Y27881656D02*
G01*
X30683346Y27787452D01*
X30888025Y27650690D01*
X31062090Y27476625D01*
X31198852Y27271946D01*
X31293056Y27044518D01*
X31341080Y26803083D01*
X31341080Y26556917D01*
X31293056Y26315482D01*
X31198852Y26088054D01*
X31062090Y25883375D01*
X30888025Y25709310D01*
X30683346Y25572548D01*
X30455918Y25478344D01*
X30214483Y25430320D01*
X29968317Y25430320D01*
X29726882Y25478344D01*
X29499454Y25572548D01*
X29294775Y25709310D01*
X29120710Y25883375D01*
X28983948Y26088054D01*
X28889744Y26315482D01*
X28841720Y26556917D01*
X28841720Y26803083D01*
X28889744Y27044518D01*
X28983948Y27271946D01*
X29120710Y27476625D01*
X29294775Y27650690D01*
X29499454Y27787452D01*
X29726882Y27881656D01*
X29968317Y27929680D01*
X30214483Y27929680D01*
X30455918Y27881656D01*
X30455918Y27881656D01*
G37*
G36*
X15070712Y27300435D02*
G01*
X15155295Y27292104D01*
X15275727Y27255571D01*
X15318088Y27242721D01*
X15468112Y27162532D01*
X15599612Y27054612D01*
X15707532Y26923112D01*
X15787721Y26773088D01*
X15787722Y26773084D01*
X15837104Y26610295D01*
X15853778Y26441000D01*
X15837104Y26271705D01*
X15800571Y26151273D01*
X15787721Y26108912D01*
X15707532Y25958888D01*
X15599612Y25827388D01*
X15468112Y25719468D01*
X15318088Y25639279D01*
X15275727Y25626429D01*
X15155295Y25589896D01*
X15070712Y25581565D01*
X15028421Y25577400D01*
X14943579Y25577400D01*
X14901288Y25581565D01*
X14816705Y25589896D01*
X14696273Y25626429D01*
X14653912Y25639279D01*
X14503888Y25719468D01*
X14372388Y25827388D01*
X14264468Y25958888D01*
X14184279Y26108912D01*
X14171429Y26151273D01*
X14134896Y26271705D01*
X14118222Y26441000D01*
X14134896Y26610295D01*
X14184278Y26773084D01*
X14184279Y26773088D01*
X14264468Y26923112D01*
X14372388Y27054612D01*
X14503888Y27162532D01*
X14653912Y27242721D01*
X14696273Y27255571D01*
X14816705Y27292104D01*
X14901288Y27300435D01*
X14943579Y27304600D01*
X15028421Y27304600D01*
X15070712Y27300435D01*
X15070712Y27300435D01*
G37*
G36*
X17610712Y27300435D02*
G01*
X17695295Y27292104D01*
X17815727Y27255571D01*
X17858088Y27242721D01*
X18008112Y27162532D01*
X18139612Y27054612D01*
X18247532Y26923112D01*
X18327721Y26773088D01*
X18327722Y26773084D01*
X18377104Y26610295D01*
X18393778Y26441000D01*
X18377104Y26271705D01*
X18340571Y26151273D01*
X18327721Y26108912D01*
X18247532Y25958888D01*
X18139612Y25827388D01*
X18008112Y25719468D01*
X17858088Y25639279D01*
X17815727Y25626429D01*
X17695295Y25589896D01*
X17610712Y25581565D01*
X17568421Y25577400D01*
X17483579Y25577400D01*
X17441288Y25581565D01*
X17356705Y25589896D01*
X17236273Y25626429D01*
X17193912Y25639279D01*
X17043888Y25719468D01*
X16912388Y25827388D01*
X16804468Y25958888D01*
X16724279Y26108912D01*
X16711429Y26151273D01*
X16674896Y26271705D01*
X16658222Y26441000D01*
X16674896Y26610295D01*
X16724278Y26773084D01*
X16724279Y26773088D01*
X16804468Y26923112D01*
X16912388Y27054612D01*
X17043888Y27162532D01*
X17193912Y27242721D01*
X17236273Y27255571D01*
X17356705Y27292104D01*
X17441288Y27300435D01*
X17483579Y27304600D01*
X17568421Y27304600D01*
X17610712Y27300435D01*
X17610712Y27300435D01*
G37*
G36*
X20150712Y27300435D02*
G01*
X20235295Y27292104D01*
X20355727Y27255571D01*
X20398088Y27242721D01*
X20548112Y27162532D01*
X20679612Y27054612D01*
X20787532Y26923112D01*
X20867721Y26773088D01*
X20867722Y26773084D01*
X20917104Y26610295D01*
X20933778Y26441000D01*
X20917104Y26271705D01*
X20880571Y26151273D01*
X20867721Y26108912D01*
X20787532Y25958888D01*
X20679612Y25827388D01*
X20548112Y25719468D01*
X20398088Y25639279D01*
X20355727Y25626429D01*
X20235295Y25589896D01*
X20150712Y25581565D01*
X20108421Y25577400D01*
X20023579Y25577400D01*
X19981288Y25581565D01*
X19896705Y25589896D01*
X19776273Y25626429D01*
X19733912Y25639279D01*
X19583888Y25719468D01*
X19452388Y25827388D01*
X19344468Y25958888D01*
X19264279Y26108912D01*
X19251429Y26151273D01*
X19214896Y26271705D01*
X19198222Y26441000D01*
X19214896Y26610295D01*
X19264278Y26773084D01*
X19264279Y26773088D01*
X19344468Y26923112D01*
X19452388Y27054612D01*
X19583888Y27162532D01*
X19733912Y27242721D01*
X19776273Y27255571D01*
X19896705Y27292104D01*
X19981288Y27300435D01*
X20023579Y27304600D01*
X20108421Y27304600D01*
X20150712Y27300435D01*
X20150712Y27300435D01*
G37*
G36*
X22690712Y27300435D02*
G01*
X22775295Y27292104D01*
X22895727Y27255571D01*
X22938088Y27242721D01*
X23088112Y27162532D01*
X23219612Y27054612D01*
X23327532Y26923112D01*
X23407721Y26773088D01*
X23407722Y26773084D01*
X23457104Y26610295D01*
X23473778Y26441000D01*
X23457104Y26271705D01*
X23420571Y26151273D01*
X23407721Y26108912D01*
X23327532Y25958888D01*
X23219612Y25827388D01*
X23088112Y25719468D01*
X22938088Y25639279D01*
X22895727Y25626429D01*
X22775295Y25589896D01*
X22690712Y25581565D01*
X22648421Y25577400D01*
X22563579Y25577400D01*
X22521288Y25581565D01*
X22436705Y25589896D01*
X22316273Y25626429D01*
X22273912Y25639279D01*
X22123888Y25719468D01*
X21992388Y25827388D01*
X21884468Y25958888D01*
X21804279Y26108912D01*
X21791429Y26151273D01*
X21754896Y26271705D01*
X21738222Y26441000D01*
X21754896Y26610295D01*
X21804278Y26773084D01*
X21804279Y26773088D01*
X21884468Y26923112D01*
X21992388Y27054612D01*
X22123888Y27162532D01*
X22273912Y27242721D01*
X22316273Y27255571D01*
X22436705Y27292104D01*
X22521288Y27300435D01*
X22563579Y27304600D01*
X22648421Y27304600D01*
X22690712Y27300435D01*
X22690712Y27300435D01*
G37*
G36*
X25230712Y27300435D02*
G01*
X25315295Y27292104D01*
X25435727Y27255571D01*
X25478088Y27242721D01*
X25628112Y27162532D01*
X25759612Y27054612D01*
X25867532Y26923112D01*
X25947721Y26773088D01*
X25947722Y26773084D01*
X25997104Y26610295D01*
X26013778Y26441000D01*
X25997104Y26271705D01*
X25960571Y26151273D01*
X25947721Y26108912D01*
X25867532Y25958888D01*
X25759612Y25827388D01*
X25628112Y25719468D01*
X25478088Y25639279D01*
X25435727Y25626429D01*
X25315295Y25589896D01*
X25230712Y25581565D01*
X25188421Y25577400D01*
X25103579Y25577400D01*
X25061288Y25581565D01*
X24976705Y25589896D01*
X24856273Y25626429D01*
X24813912Y25639279D01*
X24663888Y25719468D01*
X24532388Y25827388D01*
X24424468Y25958888D01*
X24344279Y26108912D01*
X24331429Y26151273D01*
X24294896Y26271705D01*
X24278222Y26441000D01*
X24294896Y26610295D01*
X24344278Y26773084D01*
X24344279Y26773088D01*
X24424468Y26923112D01*
X24532388Y27054612D01*
X24663888Y27162532D01*
X24813912Y27242721D01*
X24856273Y27255571D01*
X24976705Y27292104D01*
X25061288Y27300435D01*
X25103579Y27304600D01*
X25188421Y27304600D01*
X25230712Y27300435D01*
X25230712Y27300435D01*
G37*
G36*
X8521965Y27298867D02*
G01*
X8640982Y27249569D01*
X8748104Y27177992D01*
X8839192Y27086904D01*
X8910769Y26979782D01*
X8960067Y26860765D01*
X8985200Y26734413D01*
X8985200Y26605587D01*
X8960067Y26479235D01*
X8910769Y26360218D01*
X8839192Y26253096D01*
X8748104Y26162008D01*
X8640982Y26090431D01*
X8521965Y26041133D01*
X8395613Y26016000D01*
X8266787Y26016000D01*
X8140435Y26041133D01*
X8021418Y26090431D01*
X7914296Y26162008D01*
X7823208Y26253096D01*
X7751631Y26360218D01*
X7702333Y26479235D01*
X7677200Y26605587D01*
X7677200Y26734413D01*
X7702333Y26860765D01*
X7751631Y26979782D01*
X7823208Y27086904D01*
X7914296Y27177992D01*
X8021418Y27249569D01*
X8140435Y27298867D01*
X8266787Y27324000D01*
X8395613Y27324000D01*
X8521965Y27298867D01*
X8521965Y27298867D01*
G37*
G36*
X3441965Y27298867D02*
G01*
X3560982Y27249569D01*
X3668104Y27177992D01*
X3759192Y27086904D01*
X3830769Y26979782D01*
X3880067Y26860765D01*
X3905200Y26734413D01*
X3905200Y26605587D01*
X3880067Y26479235D01*
X3830769Y26360218D01*
X3759192Y26253096D01*
X3668104Y26162008D01*
X3560982Y26090431D01*
X3441965Y26041133D01*
X3315613Y26016000D01*
X3186787Y26016000D01*
X3060435Y26041133D01*
X2941418Y26090431D01*
X2834296Y26162008D01*
X2743208Y26253096D01*
X2671631Y26360218D01*
X2622333Y26479235D01*
X2597200Y26605587D01*
X2597200Y26734413D01*
X2622333Y26860765D01*
X2671631Y26979782D01*
X2743208Y27086904D01*
X2834296Y27177992D01*
X2941418Y27249569D01*
X3060435Y27298867D01*
X3186787Y27324000D01*
X3315613Y27324000D01*
X3441965Y27298867D01*
X3441965Y27298867D01*
G37*
G36*
X6469000Y26385000D02*
G01*
X5469000Y26385000D01*
X5469000Y27385000D01*
X6469000Y27385000D01*
X6469000Y26385000D01*
X6469000Y26385000D01*
G37*
G36*
X44392700Y26507000D02*
G01*
X41992700Y26507000D01*
X41992700Y27957000D01*
X44392700Y27957000D01*
X44392700Y26507000D01*
X44392700Y26507000D01*
G37*
G36*
X57548400Y27008000D02*
G01*
X56548400Y27008000D01*
X56548400Y28008000D01*
X57548400Y28008000D01*
X57548400Y27008000D01*
X57548400Y27008000D01*
G37*
G36*
X55135400Y27110000D02*
G01*
X54135400Y27110000D01*
X54135400Y28110000D01*
X55135400Y28110000D01*
X55135400Y27110000D01*
X55135400Y27110000D01*
G37*
G36*
X53433600Y28010000D02*
G01*
X51983600Y28010000D01*
X51983600Y30410000D01*
X53433600Y30410000D01*
X53433600Y28010000D01*
X53433600Y28010000D01*
G37*
G36*
X47533600Y28010000D02*
G01*
X46083600Y28010000D01*
X46083600Y30410000D01*
X47533600Y30410000D01*
X47533600Y28010000D01*
X47533600Y28010000D01*
G37*
G36*
X26009600Y28117400D02*
G01*
X24282400Y28117400D01*
X24282400Y29844600D01*
X26009600Y29844600D01*
X26009600Y28117400D01*
X26009600Y28117400D01*
G37*
G36*
X17610712Y29840435D02*
G01*
X17695295Y29832104D01*
X17768161Y29810000D01*
X17858088Y29782721D01*
X18008112Y29702532D01*
X18139612Y29594612D01*
X18247532Y29463112D01*
X18327721Y29313088D01*
X18327722Y29313084D01*
X18377104Y29150295D01*
X18393778Y28981000D01*
X18377104Y28811705D01*
X18345645Y28708000D01*
X18327721Y28648912D01*
X18247532Y28498888D01*
X18139612Y28367388D01*
X18008112Y28259468D01*
X17858088Y28179279D01*
X17815727Y28166429D01*
X17695295Y28129896D01*
X17610712Y28121565D01*
X17568421Y28117400D01*
X17483579Y28117400D01*
X17441288Y28121565D01*
X17356705Y28129896D01*
X17236273Y28166429D01*
X17193912Y28179279D01*
X17043888Y28259468D01*
X16912388Y28367388D01*
X16804468Y28498888D01*
X16724279Y28648912D01*
X16706355Y28708000D01*
X16674896Y28811705D01*
X16658222Y28981000D01*
X16674896Y29150295D01*
X16724278Y29313084D01*
X16724279Y29313088D01*
X16804468Y29463112D01*
X16912388Y29594612D01*
X17043888Y29702532D01*
X17193912Y29782721D01*
X17283839Y29810000D01*
X17356705Y29832104D01*
X17441288Y29840435D01*
X17483579Y29844600D01*
X17568421Y29844600D01*
X17610712Y29840435D01*
X17610712Y29840435D01*
G37*
G36*
X15070712Y29840435D02*
G01*
X15155295Y29832104D01*
X15228161Y29810000D01*
X15318088Y29782721D01*
X15468112Y29702532D01*
X15599612Y29594612D01*
X15707532Y29463112D01*
X15787721Y29313088D01*
X15787722Y29313084D01*
X15837104Y29150295D01*
X15853778Y28981000D01*
X15837104Y28811705D01*
X15805645Y28708000D01*
X15787721Y28648912D01*
X15707532Y28498888D01*
X15599612Y28367388D01*
X15468112Y28259468D01*
X15318088Y28179279D01*
X15275727Y28166429D01*
X15155295Y28129896D01*
X15070712Y28121565D01*
X15028421Y28117400D01*
X14943579Y28117400D01*
X14901288Y28121565D01*
X14816705Y28129896D01*
X14696273Y28166429D01*
X14653912Y28179279D01*
X14503888Y28259468D01*
X14372388Y28367388D01*
X14264468Y28498888D01*
X14184279Y28648912D01*
X14166355Y28708000D01*
X14134896Y28811705D01*
X14118222Y28981000D01*
X14134896Y29150295D01*
X14184278Y29313084D01*
X14184279Y29313088D01*
X14264468Y29463112D01*
X14372388Y29594612D01*
X14503888Y29702532D01*
X14653912Y29782721D01*
X14743839Y29810000D01*
X14816705Y29832104D01*
X14901288Y29840435D01*
X14943579Y29844600D01*
X15028421Y29844600D01*
X15070712Y29840435D01*
X15070712Y29840435D01*
G37*
G36*
X22690712Y29840435D02*
G01*
X22775295Y29832104D01*
X22848161Y29810000D01*
X22938088Y29782721D01*
X23088112Y29702532D01*
X23219612Y29594612D01*
X23327532Y29463112D01*
X23407721Y29313088D01*
X23407722Y29313084D01*
X23457104Y29150295D01*
X23473778Y28981000D01*
X23457104Y28811705D01*
X23425645Y28708000D01*
X23407721Y28648912D01*
X23327532Y28498888D01*
X23219612Y28367388D01*
X23088112Y28259468D01*
X22938088Y28179279D01*
X22895727Y28166429D01*
X22775295Y28129896D01*
X22690712Y28121565D01*
X22648421Y28117400D01*
X22563579Y28117400D01*
X22521288Y28121565D01*
X22436705Y28129896D01*
X22316273Y28166429D01*
X22273912Y28179279D01*
X22123888Y28259468D01*
X21992388Y28367388D01*
X21884468Y28498888D01*
X21804279Y28648912D01*
X21786355Y28708000D01*
X21754896Y28811705D01*
X21738222Y28981000D01*
X21754896Y29150295D01*
X21804278Y29313084D01*
X21804279Y29313088D01*
X21884468Y29463112D01*
X21992388Y29594612D01*
X22123888Y29702532D01*
X22273912Y29782721D01*
X22363839Y29810000D01*
X22436705Y29832104D01*
X22521288Y29840435D01*
X22563579Y29844600D01*
X22648421Y29844600D01*
X22690712Y29840435D01*
X22690712Y29840435D01*
G37*
G36*
X20150712Y29840435D02*
G01*
X20235295Y29832104D01*
X20308161Y29810000D01*
X20398088Y29782721D01*
X20548112Y29702532D01*
X20679612Y29594612D01*
X20787532Y29463112D01*
X20867721Y29313088D01*
X20867722Y29313084D01*
X20917104Y29150295D01*
X20933778Y28981000D01*
X20917104Y28811705D01*
X20885645Y28708000D01*
X20867721Y28648912D01*
X20787532Y28498888D01*
X20679612Y28367388D01*
X20548112Y28259468D01*
X20398088Y28179279D01*
X20355727Y28166429D01*
X20235295Y28129896D01*
X20150712Y28121565D01*
X20108421Y28117400D01*
X20023579Y28117400D01*
X19981288Y28121565D01*
X19896705Y28129896D01*
X19776273Y28166429D01*
X19733912Y28179279D01*
X19583888Y28259468D01*
X19452388Y28367388D01*
X19344468Y28498888D01*
X19264279Y28648912D01*
X19246355Y28708000D01*
X19214896Y28811705D01*
X19198222Y28981000D01*
X19214896Y29150295D01*
X19264278Y29313084D01*
X19264279Y29313088D01*
X19344468Y29463112D01*
X19452388Y29594612D01*
X19583888Y29702532D01*
X19733912Y29782721D01*
X19823839Y29810000D01*
X19896705Y29832104D01*
X19981288Y29840435D01*
X20023579Y29844600D01*
X20108421Y29844600D01*
X20150712Y29840435D01*
X20150712Y29840435D01*
G37*
G36*
X6445200Y28556000D02*
G01*
X5137200Y28556000D01*
X5137200Y29864000D01*
X6445200Y29864000D01*
X6445200Y28556000D01*
X6445200Y28556000D01*
G37*
G36*
X34104200Y28672000D02*
G01*
X33104200Y28672000D01*
X33104200Y29672000D01*
X34104200Y29672000D01*
X34104200Y28672000D01*
X34104200Y28672000D01*
G37*
G36*
X32404200Y28672000D02*
G01*
X31404200Y28672000D01*
X31404200Y29672000D01*
X32404200Y29672000D01*
X32404200Y28672000D01*
X32404200Y28672000D01*
G37*
G36*
X57548400Y28708000D02*
G01*
X56548400Y28708000D01*
X56548400Y29708000D01*
X57548400Y29708000D01*
X57548400Y28708000D01*
X57548400Y28708000D01*
G37*
G36*
X55135400Y28810000D02*
G01*
X54135400Y28810000D01*
X54135400Y29810000D01*
X55135400Y29810000D01*
X55135400Y28810000D01*
X55135400Y28810000D01*
G37*
G36*
X38766000Y29472000D02*
G01*
X37766000Y29472000D01*
X37766000Y30472000D01*
X38766000Y30472000D01*
X38766000Y29472000D01*
X38766000Y29472000D01*
G37*
G36*
X40466000Y29472000D02*
G01*
X39466000Y29472000D01*
X39466000Y30472000D01*
X40466000Y30472000D01*
X40466000Y29472000D01*
X40466000Y29472000D01*
G37*
G36*
X43732600Y29688000D02*
G01*
X42732600Y29688000D01*
X42732600Y30688000D01*
X43732600Y30688000D01*
X43732600Y29688000D01*
X43732600Y29688000D01*
G37*
G36*
X45432600Y29688000D02*
G01*
X44432600Y29688000D01*
X44432600Y30688000D01*
X45432600Y30688000D01*
X45432600Y29688000D01*
X45432600Y29688000D01*
G37*
G36*
X25526401Y33103075D02*
G01*
X25734413Y33016914D01*
X25921623Y32891824D01*
X26080824Y32732623D01*
X26205914Y32545413D01*
X26292075Y32337401D01*
X26336000Y32116576D01*
X26336000Y31891424D01*
X26292075Y31670599D01*
X26205914Y31462587D01*
X26080824Y31275377D01*
X25921623Y31116176D01*
X25734413Y30991086D01*
X25526401Y30904925D01*
X25305576Y30861000D01*
X25080424Y30861000D01*
X24859599Y30904925D01*
X24651587Y30991086D01*
X24464377Y31116176D01*
X24305176Y31275377D01*
X24180086Y31462587D01*
X24093925Y31670599D01*
X24050000Y31891424D01*
X24050000Y32116576D01*
X24093925Y32337401D01*
X24180086Y32545413D01*
X24305176Y32732623D01*
X24464377Y32891824D01*
X24651587Y33016914D01*
X24859599Y33103075D01*
X25080424Y33147000D01*
X25305576Y33147000D01*
X25526401Y33103075D01*
X25526401Y33103075D01*
G37*
G36*
X20526401Y33103075D02*
G01*
X20734413Y33016914D01*
X20921623Y32891824D01*
X21080824Y32732623D01*
X21205914Y32545413D01*
X21292075Y32337401D01*
X21336000Y32116576D01*
X21336000Y31891424D01*
X21292075Y31670599D01*
X21205914Y31462587D01*
X21080824Y31275377D01*
X20921623Y31116176D01*
X20734413Y30991086D01*
X20526401Y30904925D01*
X20305576Y30861000D01*
X20080424Y30861000D01*
X19859599Y30904925D01*
X19651587Y30991086D01*
X19464377Y31116176D01*
X19305176Y31275377D01*
X19180086Y31462587D01*
X19093925Y31670599D01*
X19050000Y31891424D01*
X19050000Y32116576D01*
X19093925Y32337401D01*
X19180086Y32545413D01*
X19305176Y32732623D01*
X19464377Y32891824D01*
X19651587Y33016914D01*
X19859599Y33103075D01*
X20080424Y33147000D01*
X20305576Y33147000D01*
X20526401Y33103075D01*
X20526401Y33103075D01*
G37*
G36*
X15526401Y33103075D02*
G01*
X15734413Y33016914D01*
X15921623Y32891824D01*
X16080824Y32732623D01*
X16205914Y32545413D01*
X16292075Y32337401D01*
X16336000Y32116576D01*
X16336000Y31891424D01*
X16292075Y31670599D01*
X16205914Y31462587D01*
X16080824Y31275377D01*
X15921623Y31116176D01*
X15734413Y30991086D01*
X15526401Y30904925D01*
X15305576Y30861000D01*
X15080424Y30861000D01*
X14859599Y30904925D01*
X14651587Y30991086D01*
X14464377Y31116176D01*
X14305176Y31275377D01*
X14180086Y31462587D01*
X14093925Y31670599D01*
X14050000Y31891424D01*
X14050000Y32116576D01*
X14093925Y32337401D01*
X14180086Y32545413D01*
X14305176Y32732623D01*
X14464377Y32891824D01*
X14651587Y33016914D01*
X14859599Y33103075D01*
X15080424Y33147000D01*
X15305576Y33147000D01*
X15526401Y33103075D01*
X15526401Y33103075D01*
G37*
G36*
X50068100Y31227800D02*
G01*
X49068100Y31227800D01*
X49068100Y32627800D01*
X50068100Y32627800D01*
X50068100Y31227800D01*
X50068100Y31227800D01*
G37*
G36*
X48168100Y31227800D02*
G01*
X47168100Y31227800D01*
X47168100Y32627800D01*
X48168100Y32627800D01*
X48168100Y31227800D01*
X48168100Y31227800D01*
G37*
G36*
X5981965Y32988867D02*
G01*
X6100982Y32939569D01*
X6208104Y32867992D01*
X6299192Y32776904D01*
X6370769Y32669782D01*
X6420067Y32550765D01*
X6445200Y32424413D01*
X6445200Y32295587D01*
X6420067Y32169235D01*
X6370769Y32050218D01*
X6299192Y31943096D01*
X6208104Y31852008D01*
X6100982Y31780431D01*
X5981965Y31731133D01*
X5855613Y31706000D01*
X5726787Y31706000D01*
X5600435Y31731133D01*
X5481418Y31780431D01*
X5374296Y31852008D01*
X5283208Y31943096D01*
X5211631Y32050218D01*
X5162333Y32169235D01*
X5137200Y32295587D01*
X5137200Y32424413D01*
X5162333Y32550765D01*
X5211631Y32669782D01*
X5283208Y32776904D01*
X5374296Y32867992D01*
X5481418Y32939569D01*
X5600435Y32988867D01*
X5726787Y33014000D01*
X5855613Y33014000D01*
X5981965Y32988867D01*
X5981965Y32988867D01*
G37*
G36*
X40083338Y33694108D02*
G01*
X40258993Y33621350D01*
X40417082Y33515718D01*
X40551518Y33381282D01*
X40657150Y33223193D01*
X40729908Y33047538D01*
X40767000Y32861065D01*
X40767000Y32670935D01*
X40729908Y32484462D01*
X40657150Y32308807D01*
X40551518Y32150718D01*
X40417082Y32016282D01*
X40258993Y31910650D01*
X40083338Y31837892D01*
X39896865Y31800800D01*
X39706735Y31800800D01*
X39520262Y31837892D01*
X39344607Y31910650D01*
X39186518Y32016282D01*
X39052082Y32150718D01*
X38946450Y32308807D01*
X38873692Y32484462D01*
X38836600Y32670935D01*
X38836600Y32861065D01*
X38873692Y33047538D01*
X38946450Y33223193D01*
X39052082Y33381282D01*
X39186518Y33515718D01*
X39344607Y33621350D01*
X39520262Y33694108D01*
X39706735Y33731200D01*
X39896865Y33731200D01*
X40083338Y33694108D01*
X40083338Y33694108D01*
G37*
G36*
X42496338Y33694108D02*
G01*
X42671993Y33621350D01*
X42830082Y33515718D01*
X42964518Y33381282D01*
X43070150Y33223193D01*
X43142908Y33047538D01*
X43180000Y32861065D01*
X43180000Y32670935D01*
X43142908Y32484462D01*
X43070150Y32308807D01*
X42964518Y32150718D01*
X42830082Y32016282D01*
X42671993Y31910650D01*
X42496338Y31837892D01*
X42309865Y31800800D01*
X42119735Y31800800D01*
X41933262Y31837892D01*
X41757607Y31910650D01*
X41599518Y32016282D01*
X41465082Y32150718D01*
X41359450Y32308807D01*
X41286692Y32484462D01*
X41249600Y32670935D01*
X41249600Y32861065D01*
X41286692Y33047538D01*
X41359450Y33223193D01*
X41465082Y33381282D01*
X41599518Y33515718D01*
X41757607Y33621350D01*
X41933262Y33694108D01*
X42119735Y33731200D01*
X42309865Y33731200D01*
X42496338Y33694108D01*
X42496338Y33694108D01*
G37*
G36*
X31523538Y33694108D02*
G01*
X31699193Y33621350D01*
X31857282Y33515718D01*
X31991718Y33381282D01*
X32097350Y33223193D01*
X32170108Y33047538D01*
X32207200Y32861065D01*
X32207200Y32670935D01*
X32170108Y32484462D01*
X32097350Y32308807D01*
X31991718Y32150718D01*
X31857282Y32016282D01*
X31699193Y31910650D01*
X31523538Y31837892D01*
X31337065Y31800800D01*
X31146935Y31800800D01*
X30960462Y31837892D01*
X30784807Y31910650D01*
X30626718Y32016282D01*
X30492282Y32150718D01*
X30386650Y32308807D01*
X30313892Y32484462D01*
X30276800Y32670935D01*
X30276800Y32861065D01*
X30313892Y33047538D01*
X30386650Y33223193D01*
X30492282Y33381282D01*
X30626718Y33515718D01*
X30784807Y33621350D01*
X30960462Y33694108D01*
X31146935Y33731200D01*
X31337065Y33731200D01*
X31523538Y33694108D01*
X31523538Y33694108D01*
G37*
G36*
X52732538Y34024308D02*
G01*
X52908193Y33951550D01*
X53066282Y33845918D01*
X53200718Y33711482D01*
X53306350Y33553393D01*
X53379108Y33377738D01*
X53416200Y33191265D01*
X53416200Y33001135D01*
X53379108Y32814662D01*
X53306350Y32639007D01*
X53200718Y32480918D01*
X53066282Y32346482D01*
X52908193Y32240850D01*
X52732538Y32168092D01*
X52546065Y32131000D01*
X52355935Y32131000D01*
X52169462Y32168092D01*
X51993807Y32240850D01*
X51835718Y32346482D01*
X51701282Y32480918D01*
X51595650Y32639007D01*
X51522892Y32814662D01*
X51485800Y33001135D01*
X51485800Y33191265D01*
X51522892Y33377738D01*
X51595650Y33553393D01*
X51701282Y33711482D01*
X51835718Y33845918D01*
X51993807Y33951550D01*
X52169462Y34024308D01*
X52355935Y34061400D01*
X52546065Y34061400D01*
X52732538Y34024308D01*
X52732538Y34024308D01*
G37*
G36*
X46587400Y32202500D02*
G01*
X45587400Y32202500D01*
X45587400Y33202500D01*
X46587400Y33202500D01*
X46587400Y32202500D01*
X46587400Y32202500D01*
G37*
G36*
X44887400Y32202500D02*
G01*
X43887400Y32202500D01*
X43887400Y33202500D01*
X44887400Y33202500D01*
X44887400Y32202500D01*
X44887400Y32202500D01*
G37*
G36*
X57343400Y32227900D02*
G01*
X56343400Y32227900D01*
X56343400Y33227900D01*
X57343400Y33227900D01*
X57343400Y32227900D01*
X57343400Y32227900D01*
G37*
G36*
X55643400Y32227900D02*
G01*
X54643400Y32227900D01*
X54643400Y33227900D01*
X55643400Y33227900D01*
X55643400Y32227900D01*
X55643400Y32227900D01*
G37*
G36*
X35259000Y33358200D02*
G01*
X34259000Y33358200D01*
X34259000Y34358200D01*
X35259000Y34358200D01*
X35259000Y33358200D01*
X35259000Y33358200D01*
G37*
G36*
X33559000Y33358200D02*
G01*
X32559000Y33358200D01*
X32559000Y34358200D01*
X33559000Y34358200D01*
X33559000Y33358200D01*
X33559000Y33358200D01*
G37*
G36*
X13957300Y33409890D02*
G01*
X12357100Y33409890D01*
X12357100Y36409630D01*
X13957300Y36409630D01*
X13957300Y33409890D01*
X13957300Y33409890D01*
G37*
G36*
X49118100Y33427800D02*
G01*
X48118100Y33427800D01*
X48118100Y34827800D01*
X49118100Y34827800D01*
X49118100Y33427800D01*
X49118100Y33427800D01*
G37*
G36*
X55999000Y33804500D02*
G01*
X54999000Y33804500D01*
X54999000Y34804500D01*
X55999000Y34804500D01*
X55999000Y33804500D01*
X55999000Y33804500D01*
G37*
G36*
X57624600Y33829000D02*
G01*
X56624600Y33829000D01*
X56624600Y34829000D01*
X57624600Y34829000D01*
X57624600Y33829000D01*
X57624600Y33829000D01*
G37*
G36*
X8521965Y35528867D02*
G01*
X8640982Y35479569D01*
X8640985Y35479567D01*
X8738911Y35414135D01*
X8748104Y35407992D01*
X8839192Y35316904D01*
X8910769Y35209782D01*
X8960067Y35090765D01*
X8985200Y34964413D01*
X8985200Y34835587D01*
X8960067Y34709235D01*
X8910769Y34590218D01*
X8839192Y34483096D01*
X8748104Y34392008D01*
X8640982Y34320431D01*
X8521965Y34271133D01*
X8395613Y34246000D01*
X8266787Y34246000D01*
X8140435Y34271133D01*
X8021418Y34320431D01*
X7914296Y34392008D01*
X7823208Y34483096D01*
X7751631Y34590218D01*
X7702333Y34709235D01*
X7677200Y34835587D01*
X7677200Y34964413D01*
X7702333Y35090765D01*
X7751631Y35209782D01*
X7823208Y35316904D01*
X7914296Y35407992D01*
X7923490Y35414135D01*
X8021415Y35479567D01*
X8021418Y35479569D01*
X8140435Y35528867D01*
X8266787Y35554000D01*
X8395613Y35554000D01*
X8521965Y35528867D01*
X8521965Y35528867D01*
G37*
G36*
X3441965Y35528867D02*
G01*
X3560982Y35479569D01*
X3560985Y35479567D01*
X3658911Y35414135D01*
X3668104Y35407992D01*
X3759192Y35316904D01*
X3830769Y35209782D01*
X3880067Y35090765D01*
X3905200Y34964413D01*
X3905200Y34835587D01*
X3880067Y34709235D01*
X3830769Y34590218D01*
X3759192Y34483096D01*
X3668104Y34392008D01*
X3560982Y34320431D01*
X3441965Y34271133D01*
X3315613Y34246000D01*
X3186787Y34246000D01*
X3060435Y34271133D01*
X2941418Y34320431D01*
X2834296Y34392008D01*
X2743208Y34483096D01*
X2671631Y34590218D01*
X2622333Y34709235D01*
X2597200Y34835587D01*
X2597200Y34964413D01*
X2622333Y35090765D01*
X2671631Y35209782D01*
X2743208Y35316904D01*
X2834296Y35407992D01*
X2843490Y35414135D01*
X2941415Y35479567D01*
X2941418Y35479569D01*
X3060435Y35528867D01*
X3186787Y35554000D01*
X3315613Y35554000D01*
X3441965Y35528867D01*
X3441965Y35528867D01*
G37*
G36*
X52732538Y36437308D02*
G01*
X52908193Y36364550D01*
X53066282Y36258918D01*
X53200718Y36124482D01*
X53306350Y35966393D01*
X53379108Y35790738D01*
X53416200Y35604265D01*
X53416200Y35414135D01*
X53379108Y35227662D01*
X53306350Y35052007D01*
X53200718Y34893918D01*
X53066282Y34759482D01*
X52908193Y34653850D01*
X52732538Y34581092D01*
X52546065Y34544000D01*
X52355935Y34544000D01*
X52169462Y34581092D01*
X51993807Y34653850D01*
X51835718Y34759482D01*
X51701282Y34893918D01*
X51595650Y35052007D01*
X51522892Y35227662D01*
X51485800Y35414135D01*
X51485800Y35604265D01*
X51522892Y35790738D01*
X51595650Y35966393D01*
X51701282Y36124482D01*
X51835718Y36258918D01*
X51993807Y36364550D01*
X52169462Y36437308D01*
X52355935Y36474400D01*
X52546065Y36474400D01*
X52732538Y36437308D01*
X52732538Y36437308D01*
G37*
G36*
X19893800Y34704400D02*
G01*
X18893800Y34704400D01*
X18893800Y35704400D01*
X19893800Y35704400D01*
X19893800Y34704400D01*
X19893800Y34704400D01*
G37*
G36*
X21593800Y34704400D02*
G01*
X20593800Y34704400D01*
X20593800Y35704400D01*
X21593800Y35704400D01*
X21593800Y34704400D01*
X21593800Y34704400D01*
G37*
G36*
X31488000Y34718000D02*
G01*
X30488000Y34718000D01*
X30488000Y35718000D01*
X31488000Y35718000D01*
X31488000Y34718000D01*
X31488000Y34718000D01*
G37*
G36*
X55999000Y35504500D02*
G01*
X54999000Y35504500D01*
X54999000Y36504500D01*
X55999000Y36504500D01*
X55999000Y35504500D01*
X55999000Y35504500D01*
G37*
G36*
X36024400Y35504800D02*
G01*
X35024400Y35504800D01*
X35024400Y36904800D01*
X36024400Y36904800D01*
X36024400Y35504800D01*
X36024400Y35504800D01*
G37*
G36*
X37924400Y35504800D02*
G01*
X36924400Y35504800D01*
X36924400Y36904800D01*
X37924400Y36904800D01*
X37924400Y35504800D01*
X37924400Y35504800D01*
G37*
G36*
X57624600Y35529000D02*
G01*
X56624600Y35529000D01*
X56624600Y36529000D01*
X57624600Y36529000D01*
X57624600Y35529000D01*
X57624600Y35529000D01*
G37*
G36*
X39705800Y35771200D02*
G01*
X38705800Y35771200D01*
X38705800Y36771200D01*
X39705800Y36771200D01*
X39705800Y35771200D01*
X39705800Y35771200D01*
G37*
G36*
X41405800Y35771200D02*
G01*
X40405800Y35771200D01*
X40405800Y36771200D01*
X41405800Y36771200D01*
X41405800Y35771200D01*
X41405800Y35771200D01*
G37*
G36*
X31488000Y36418000D02*
G01*
X30488000Y36418000D01*
X30488000Y37418000D01*
X31488000Y37418000D01*
X31488000Y36418000D01*
X31488000Y36418000D01*
G37*
G36*
X24477600Y36496000D02*
G01*
X23477600Y36496000D01*
X23477600Y37496000D01*
X24477600Y37496000D01*
X24477600Y36496000D01*
X24477600Y36496000D01*
G37*
G36*
X22328800Y36503200D02*
G01*
X21328800Y36503200D01*
X21328800Y37903200D01*
X22328800Y37903200D01*
X22328800Y36503200D01*
X22328800Y36503200D01*
G37*
G36*
X20428800Y36503200D02*
G01*
X19428800Y36503200D01*
X19428800Y37903200D01*
X20428800Y37903200D01*
X20428800Y36503200D01*
X20428800Y36503200D01*
G37*
G36*
X45450000Y36592000D02*
G01*
X43450000Y36592000D01*
X43450000Y38592000D01*
X45450000Y38592000D01*
X45450000Y36592000D01*
X45450000Y36592000D01*
G37*
G36*
X3441965Y38068867D02*
G01*
X3560982Y38019569D01*
X3668104Y37947992D01*
X3759192Y37856904D01*
X3830769Y37749782D01*
X3880067Y37630765D01*
X3905200Y37504413D01*
X3905200Y37375587D01*
X3880067Y37249235D01*
X3830769Y37130218D01*
X3759192Y37023096D01*
X3668104Y36932008D01*
X3560982Y36860431D01*
X3441965Y36811133D01*
X3315613Y36786000D01*
X3186787Y36786000D01*
X3060435Y36811133D01*
X2941418Y36860431D01*
X2834296Y36932008D01*
X2743208Y37023096D01*
X2671631Y37130218D01*
X2622333Y37249235D01*
X2597200Y37375587D01*
X2597200Y37504413D01*
X2622333Y37630765D01*
X2671631Y37749782D01*
X2743208Y37856904D01*
X2834296Y37947992D01*
X2941418Y38019569D01*
X3060435Y38068867D01*
X3186787Y38094000D01*
X3315613Y38094000D01*
X3441965Y38068867D01*
X3441965Y38068867D01*
G37*
G36*
X8521965Y38068867D02*
G01*
X8640982Y38019569D01*
X8748104Y37947992D01*
X8839192Y37856904D01*
X8910769Y37749782D01*
X8960067Y37630765D01*
X8985200Y37504413D01*
X8985200Y37375587D01*
X8960067Y37249235D01*
X8910769Y37130218D01*
X8839192Y37023096D01*
X8748104Y36932008D01*
X8640982Y36860431D01*
X8521965Y36811133D01*
X8395613Y36786000D01*
X8266787Y36786000D01*
X8140435Y36811133D01*
X8021418Y36860431D01*
X7914296Y36932008D01*
X7823208Y37023096D01*
X7751631Y37130218D01*
X7702333Y37249235D01*
X7677200Y37375587D01*
X7677200Y37504413D01*
X7702333Y37630765D01*
X7751631Y37749782D01*
X7823208Y37856904D01*
X7914296Y37947992D01*
X8021418Y38019569D01*
X8140435Y38068867D01*
X8266787Y38094000D01*
X8395613Y38094000D01*
X8521965Y38068867D01*
X8521965Y38068867D01*
G37*
G36*
X36974400Y37704800D02*
G01*
X35974400Y37704800D01*
X35974400Y39104800D01*
X36974400Y39104800D01*
X36974400Y37704800D01*
X36974400Y37704800D01*
G37*
G36*
X13957300Y37809170D02*
G01*
X12357100Y37809170D01*
X12357100Y40808910D01*
X13957300Y40808910D01*
X13957300Y37809170D01*
X13957300Y37809170D01*
G37*
G36*
X49070300Y37877900D02*
G01*
X47620300Y37877900D01*
X47620300Y40277900D01*
X49070300Y40277900D01*
X49070300Y37877900D01*
X49070300Y37877900D01*
G37*
G36*
X54970300Y37877900D02*
G01*
X53520300Y37877900D01*
X53520300Y40277900D01*
X54970300Y40277900D01*
X54970300Y37877900D01*
X54970300Y37877900D01*
G37*
G36*
X24477600Y38196000D02*
G01*
X23477600Y38196000D01*
X23477600Y39196000D01*
X24477600Y39196000D01*
X24477600Y38196000D01*
X24477600Y38196000D01*
G37*
G36*
X56430800Y38389200D02*
G01*
X55430800Y38389200D01*
X55430800Y39389200D01*
X56430800Y39389200D01*
X56430800Y38389200D01*
X56430800Y38389200D01*
G37*
G36*
X21378800Y38703200D02*
G01*
X20378800Y38703200D01*
X20378800Y40103200D01*
X21378800Y40103200D01*
X21378800Y38703200D01*
X21378800Y38703200D01*
G37*
G36*
X44625770Y41116628D02*
G01*
X44741689Y41093571D01*
X44923678Y41018189D01*
X45087463Y40908751D01*
X45226751Y40769463D01*
X45336189Y40605678D01*
X45411571Y40423689D01*
X45432633Y40317800D01*
X45438207Y40289782D01*
X45450000Y40230491D01*
X45450000Y40033509D01*
X45411571Y39840311D01*
X45336189Y39658322D01*
X45226751Y39494537D01*
X45087463Y39355249D01*
X44923678Y39245811D01*
X44741689Y39170429D01*
X44625770Y39147372D01*
X44548493Y39132000D01*
X44351507Y39132000D01*
X44274230Y39147372D01*
X44158311Y39170429D01*
X43976322Y39245811D01*
X43812537Y39355249D01*
X43673249Y39494537D01*
X43563811Y39658322D01*
X43488429Y39840311D01*
X43450000Y40033509D01*
X43450000Y40230491D01*
X43461794Y40289782D01*
X43467367Y40317800D01*
X43488429Y40423689D01*
X43563811Y40605678D01*
X43673249Y40769463D01*
X43812537Y40908751D01*
X43976322Y41018189D01*
X44158311Y41093571D01*
X44274230Y41116628D01*
X44351507Y41132000D01*
X44548493Y41132000D01*
X44625770Y41116628D01*
X44625770Y41116628D01*
G37*
G36*
X8521965Y40608867D02*
G01*
X8640982Y40559569D01*
X8748104Y40487992D01*
X8839192Y40396904D01*
X8910769Y40289782D01*
X8960067Y40170765D01*
X8985200Y40044413D01*
X8985200Y39915587D01*
X8960067Y39789235D01*
X8910769Y39670218D01*
X8839192Y39563096D01*
X8748104Y39472008D01*
X8640982Y39400431D01*
X8521965Y39351133D01*
X8395613Y39326000D01*
X8266787Y39326000D01*
X8140435Y39351133D01*
X8021418Y39400431D01*
X7914296Y39472008D01*
X7823208Y39563096D01*
X7751631Y39670218D01*
X7702333Y39789235D01*
X7677200Y39915587D01*
X7677200Y40044413D01*
X7702333Y40170765D01*
X7751631Y40289782D01*
X7823208Y40396904D01*
X7914296Y40487992D01*
X8021418Y40559569D01*
X8140435Y40608867D01*
X8266787Y40634000D01*
X8395613Y40634000D01*
X8521965Y40608867D01*
X8521965Y40608867D01*
G37*
G36*
X3441965Y40608867D02*
G01*
X3560982Y40559569D01*
X3668104Y40487992D01*
X3759192Y40396904D01*
X3830769Y40289782D01*
X3880067Y40170765D01*
X3905200Y40044413D01*
X3905200Y39915587D01*
X3880067Y39789235D01*
X3830769Y39670218D01*
X3759192Y39563096D01*
X3668104Y39472008D01*
X3560982Y39400431D01*
X3441965Y39351133D01*
X3315613Y39326000D01*
X3186787Y39326000D01*
X3060435Y39351133D01*
X2941418Y39400431D01*
X2834296Y39472008D01*
X2743208Y39563096D01*
X2671631Y39670218D01*
X2622333Y39789235D01*
X2597200Y39915587D01*
X2597200Y40044413D01*
X2622333Y40170765D01*
X2671631Y40289782D01*
X2743208Y40396904D01*
X2834296Y40487992D01*
X2941418Y40559569D01*
X3060435Y40608867D01*
X3186787Y40634000D01*
X3315613Y40634000D01*
X3441965Y40608867D01*
X3441965Y40608867D01*
G37*
G36*
X56430800Y40089200D02*
G01*
X55430800Y40089200D01*
X55430800Y41089200D01*
X56430800Y41089200D01*
X56430800Y40089200D01*
X56430800Y40089200D01*
G37*
G36*
X40479600Y40192600D02*
G01*
X39479600Y40192600D01*
X39479600Y41192600D01*
X40479600Y41192600D01*
X40479600Y40192600D01*
X40479600Y40192600D01*
G37*
G36*
X37520500Y40317800D02*
G01*
X36520500Y40317800D01*
X36520500Y41317800D01*
X37520500Y41317800D01*
X37520500Y40317800D01*
X37520500Y40317800D01*
G37*
G36*
X58361200Y40408500D02*
G01*
X57361200Y40408500D01*
X57361200Y41408500D01*
X58361200Y41408500D01*
X58361200Y40408500D01*
X58361200Y40408500D01*
G37*
G36*
X31908000Y40902000D02*
G01*
X30908000Y40902000D01*
X30908000Y41902000D01*
X31908000Y41902000D01*
X31908000Y40902000D01*
X31908000Y40902000D01*
G37*
G36*
X33608000Y40902000D02*
G01*
X32608000Y40902000D01*
X32608000Y41902000D01*
X33608000Y41902000D01*
X33608000Y40902000D01*
X33608000Y40902000D01*
G37*
G36*
X6445200Y41866000D02*
G01*
X5137200Y41866000D01*
X5137200Y43174000D01*
X6445200Y43174000D01*
X6445200Y41866000D01*
X6445200Y41866000D01*
G37*
G36*
X40479600Y41892600D02*
G01*
X39479600Y41892600D01*
X39479600Y42892600D01*
X40479600Y42892600D01*
X40479600Y41892600D01*
X40479600Y41892600D01*
G37*
G36*
X37520500Y42017800D02*
G01*
X36520500Y42017800D01*
X36520500Y43017800D01*
X37520500Y43017800D01*
X37520500Y42017800D01*
X37520500Y42017800D01*
G37*
G36*
X58361200Y42108500D02*
G01*
X57361200Y42108500D01*
X57361200Y43108500D01*
X58361200Y43108500D01*
X58361200Y42108500D01*
X58361200Y42108500D01*
G37*
G36*
X50474500Y42249100D02*
G01*
X49474500Y42249100D01*
X49474500Y43249100D01*
X50474500Y43249100D01*
X50474500Y42249100D01*
X50474500Y42249100D01*
G37*
G36*
X43604700Y42565700D02*
G01*
X42604700Y42565700D01*
X42604700Y43565700D01*
X43604700Y43565700D01*
X43604700Y42565700D01*
X43604700Y42565700D01*
G37*
G36*
X45304700Y42565700D02*
G01*
X44304700Y42565700D01*
X44304700Y43565700D01*
X45304700Y43565700D01*
X45304700Y42565700D01*
X45304700Y42565700D01*
G37*
G36*
X4144000Y42680000D02*
G01*
X3144000Y42680000D01*
X3144000Y43680000D01*
X4144000Y43680000D01*
X4144000Y42680000D01*
X4144000Y42680000D01*
G37*
G36*
X10240000Y42680000D02*
G01*
X9240000Y42680000D01*
X9240000Y43680000D01*
X10240000Y43680000D01*
X10240000Y42680000D01*
X10240000Y42680000D01*
G37*
G36*
X8540000Y42680000D02*
G01*
X7540000Y42680000D01*
X7540000Y43680000D01*
X8540000Y43680000D01*
X8540000Y42680000D01*
X8540000Y42680000D01*
G37*
G36*
X2444000Y42680000D02*
G01*
X1444000Y42680000D01*
X1444000Y43680000D01*
X2444000Y43680000D01*
X2444000Y42680000D01*
X2444000Y42680000D01*
G37*
G36*
X48961400Y42819700D02*
G01*
X47961400Y42819700D01*
X47961400Y43819700D01*
X48961400Y43819700D01*
X48961400Y42819700D01*
X48961400Y42819700D01*
G37*
G36*
X47261400Y42819700D02*
G01*
X46261400Y42819700D01*
X46261400Y43819700D01*
X47261400Y43819700D01*
X47261400Y42819700D01*
X47261400Y42819700D01*
G37*
G36*
X52732538Y44997108D02*
G01*
X52908193Y44924350D01*
X53066282Y44818718D01*
X53200718Y44684282D01*
X53306350Y44526193D01*
X53379108Y44350538D01*
X53416200Y44164065D01*
X53416200Y43973935D01*
X53379108Y43787462D01*
X53306350Y43611807D01*
X53200718Y43453718D01*
X53066282Y43319282D01*
X52908193Y43213650D01*
X52732538Y43140892D01*
X52546065Y43103800D01*
X52355935Y43103800D01*
X52169462Y43140892D01*
X51993807Y43213650D01*
X51835718Y43319282D01*
X51701282Y43453718D01*
X51595650Y43611807D01*
X51522892Y43787462D01*
X51485800Y43973935D01*
X51485800Y44164065D01*
X51522892Y44350538D01*
X51595650Y44526193D01*
X51701282Y44684282D01*
X51835718Y44818718D01*
X51993807Y44924350D01*
X52169462Y44997108D01*
X52355935Y45034200D01*
X52546065Y45034200D01*
X52732538Y44997108D01*
X52732538Y44997108D01*
G37*
G36*
X50474500Y43949100D02*
G01*
X49474500Y43949100D01*
X49474500Y44949100D01*
X50474500Y44949100D01*
X50474500Y43949100D01*
X50474500Y43949100D01*
G37*
G36*
X40083338Y45886108D02*
G01*
X40258993Y45813350D01*
X40417082Y45707718D01*
X40551518Y45573282D01*
X40657150Y45415193D01*
X40729908Y45239538D01*
X40767000Y45053065D01*
X40767000Y44862935D01*
X40729908Y44676462D01*
X40657150Y44500807D01*
X40551518Y44342718D01*
X40417082Y44208282D01*
X40258993Y44102650D01*
X40083338Y44029892D01*
X39896865Y43992800D01*
X39706735Y43992800D01*
X39520262Y44029892D01*
X39344607Y44102650D01*
X39186518Y44208282D01*
X39052082Y44342718D01*
X38946450Y44500807D01*
X38873692Y44676462D01*
X38836600Y44862935D01*
X38836600Y45053065D01*
X38873692Y45239538D01*
X38946450Y45415193D01*
X39052082Y45573282D01*
X39186518Y45707718D01*
X39344607Y45813350D01*
X39520262Y45886108D01*
X39706735Y45923200D01*
X39896865Y45923200D01*
X40083338Y45886108D01*
X40083338Y45886108D01*
G37*
G36*
X42496338Y45886108D02*
G01*
X42671993Y45813350D01*
X42830082Y45707718D01*
X42964518Y45573282D01*
X43070150Y45415193D01*
X43142908Y45239538D01*
X43180000Y45053065D01*
X43180000Y44862935D01*
X43142908Y44676462D01*
X43070150Y44500807D01*
X42964518Y44342718D01*
X42830082Y44208282D01*
X42671993Y44102650D01*
X42496338Y44029892D01*
X42309865Y43992800D01*
X42119735Y43992800D01*
X41933262Y44029892D01*
X41757607Y44102650D01*
X41599518Y44208282D01*
X41465082Y44342718D01*
X41359450Y44500807D01*
X41286692Y44676462D01*
X41249600Y44862935D01*
X41249600Y45053065D01*
X41286692Y45239538D01*
X41359450Y45415193D01*
X41465082Y45573282D01*
X41599518Y45707718D01*
X41757607Y45813350D01*
X41933262Y45886108D01*
X42119735Y45923200D01*
X42309865Y45923200D01*
X42496338Y45886108D01*
X42496338Y45886108D01*
G37*
G36*
X31523538Y45886108D02*
G01*
X31699193Y45813350D01*
X31857282Y45707718D01*
X31991718Y45573282D01*
X32097350Y45415193D01*
X32170108Y45239538D01*
X32207200Y45053065D01*
X32207200Y44862935D01*
X32170108Y44676462D01*
X32097350Y44500807D01*
X31991718Y44342718D01*
X31857282Y44208282D01*
X31699193Y44102650D01*
X31523538Y44029892D01*
X31337065Y43992800D01*
X31146935Y43992800D01*
X30960462Y44029892D01*
X30784807Y44102650D01*
X30626718Y44208282D01*
X30492282Y44342718D01*
X30386650Y44500807D01*
X30313892Y44676462D01*
X30276800Y44862935D01*
X30276800Y45053065D01*
X30313892Y45239538D01*
X30386650Y45415193D01*
X30492282Y45573282D01*
X30626718Y45707718D01*
X30784807Y45813350D01*
X30960462Y45886108D01*
X31146935Y45923200D01*
X31337065Y45923200D01*
X31523538Y45886108D01*
X31523538Y45886108D01*
G37*
G36*
X35640000Y44204000D02*
G01*
X34640000Y44204000D01*
X34640000Y45204000D01*
X35640000Y45204000D01*
X35640000Y44204000D01*
X35640000Y44204000D01*
G37*
G36*
X33940000Y44204000D02*
G01*
X32940000Y44204000D01*
X32940000Y45204000D01*
X33940000Y45204000D01*
X33940000Y44204000D01*
X33940000Y44204000D01*
G37*
G36*
X5981965Y46348867D02*
G01*
X6100982Y46299569D01*
X6208104Y46227992D01*
X6299192Y46136904D01*
X6370769Y46029782D01*
X6420067Y45910765D01*
X6445200Y45784413D01*
X6445200Y45655587D01*
X6420067Y45529235D01*
X6370769Y45410218D01*
X6299192Y45303096D01*
X6208104Y45212008D01*
X6208101Y45212006D01*
X6208100Y45212005D01*
X6100985Y45140433D01*
X6100982Y45140431D01*
X5981965Y45091133D01*
X5855613Y45066000D01*
X5726787Y45066000D01*
X5600435Y45091133D01*
X5481418Y45140431D01*
X5481415Y45140433D01*
X5374300Y45212005D01*
X5374299Y45212006D01*
X5374296Y45212008D01*
X5283208Y45303096D01*
X5211631Y45410218D01*
X5162333Y45529235D01*
X5137200Y45655587D01*
X5137200Y45784413D01*
X5162333Y45910765D01*
X5211631Y46029782D01*
X5283208Y46136904D01*
X5374296Y46227992D01*
X5481418Y46299569D01*
X5600435Y46348867D01*
X5726787Y46374000D01*
X5855613Y46374000D01*
X5981965Y46348867D01*
X5981965Y46348867D01*
G37*
G36*
X2444000Y45220000D02*
G01*
X1444000Y45220000D01*
X1444000Y46220000D01*
X2444000Y46220000D01*
X2444000Y45220000D01*
X2444000Y45220000D01*
G37*
G36*
X4144000Y45220000D02*
G01*
X3144000Y45220000D01*
X3144000Y46220000D01*
X4144000Y46220000D01*
X4144000Y45220000D01*
X4144000Y45220000D01*
G37*
G36*
X45823800Y46536200D02*
G01*
X44823800Y46536200D01*
X44823800Y47936200D01*
X45823800Y47936200D01*
X45823800Y46536200D01*
X45823800Y46536200D01*
G37*
G36*
X43923800Y46536200D02*
G01*
X42923800Y46536200D01*
X42923800Y47936200D01*
X43923800Y47936200D01*
X43923800Y46536200D01*
X43923800Y46536200D01*
G37*
G36*
X49432200Y47150400D02*
G01*
X48432200Y47150400D01*
X48432200Y48150400D01*
X49432200Y48150400D01*
X49432200Y47150400D01*
X49432200Y47150400D01*
G37*
G36*
X47732200Y47150400D02*
G01*
X46732200Y47150400D01*
X46732200Y48150400D01*
X47732200Y48150400D01*
X47732200Y47150400D01*
X47732200Y47150400D01*
G37*
G36*
X53307500Y47201200D02*
G01*
X52307500Y47201200D01*
X52307500Y48201200D01*
X53307500Y48201200D01*
X53307500Y47201200D01*
X53307500Y47201200D01*
G37*
G36*
X55007500Y47201200D02*
G01*
X54007500Y47201200D01*
X54007500Y48201200D01*
X55007500Y48201200D01*
X55007500Y47201200D01*
X55007500Y47201200D01*
G37*
G36*
X3441965Y48888867D02*
G01*
X3560982Y48839569D01*
X3668104Y48767992D01*
X3759192Y48676904D01*
X3830769Y48569782D01*
X3880067Y48450765D01*
X3905200Y48324413D01*
X3905200Y48195587D01*
X3880067Y48069235D01*
X3830769Y47950218D01*
X3759192Y47843096D01*
X3668104Y47752008D01*
X3560982Y47680431D01*
X3441965Y47631133D01*
X3315613Y47606000D01*
X3186787Y47606000D01*
X3060435Y47631133D01*
X2941418Y47680431D01*
X2834296Y47752008D01*
X2743208Y47843096D01*
X2671631Y47950218D01*
X2622333Y48069235D01*
X2597200Y48195587D01*
X2597200Y48324413D01*
X2622333Y48450765D01*
X2671631Y48569782D01*
X2743208Y48676904D01*
X2834296Y48767992D01*
X2941418Y48839569D01*
X3060435Y48888867D01*
X3186787Y48914000D01*
X3315613Y48914000D01*
X3441965Y48888867D01*
X3441965Y48888867D01*
G37*
G36*
X8521965Y48888867D02*
G01*
X8640982Y48839569D01*
X8748104Y48767992D01*
X8839192Y48676904D01*
X8910769Y48569782D01*
X8960067Y48450765D01*
X8985200Y48324413D01*
X8985200Y48195587D01*
X8960067Y48069235D01*
X8910769Y47950218D01*
X8839192Y47843096D01*
X8748104Y47752008D01*
X8640982Y47680431D01*
X8521965Y47631133D01*
X8395613Y47606000D01*
X8266787Y47606000D01*
X8140435Y47631133D01*
X8021418Y47680431D01*
X7914296Y47752008D01*
X7823208Y47843096D01*
X7751631Y47950218D01*
X7702333Y48069235D01*
X7677200Y48195587D01*
X7677200Y48324413D01*
X7702333Y48450765D01*
X7751631Y48569782D01*
X7823208Y48676904D01*
X7914296Y48767992D01*
X8021418Y48839569D01*
X8140435Y48888867D01*
X8266787Y48914000D01*
X8395613Y48914000D01*
X8521965Y48888867D01*
X8521965Y48888867D01*
G37*
G36*
X6088000Y47926000D02*
G01*
X5088000Y47926000D01*
X5088000Y48926000D01*
X6088000Y48926000D01*
X6088000Y47926000D01*
X6088000Y47926000D01*
G37*
G36*
X44873800Y48736200D02*
G01*
X43873800Y48736200D01*
X43873800Y50136200D01*
X44873800Y50136200D01*
X44873800Y48736200D01*
X44873800Y48736200D01*
G37*
G36*
X6088000Y49626000D02*
G01*
X5088000Y49626000D01*
X5088000Y50626000D01*
X6088000Y50626000D01*
X6088000Y49626000D01*
X6088000Y49626000D01*
G37*
G36*
X53117000Y49893600D02*
G01*
X52117000Y49893600D01*
X52117000Y50893600D01*
X53117000Y50893600D01*
X53117000Y49893600D01*
X53117000Y49893600D01*
G37*
G36*
X54817000Y49893600D02*
G01*
X53817000Y49893600D01*
X53817000Y50893600D01*
X54817000Y50893600D01*
X54817000Y49893600D01*
X54817000Y49893600D01*
G37*
G36*
X57939538Y51982108D02*
G01*
X58115193Y51909350D01*
X58273282Y51803718D01*
X58407718Y51669282D01*
X58513350Y51511193D01*
X58586108Y51335538D01*
X58623200Y51149065D01*
X58623200Y50958935D01*
X58586108Y50772462D01*
X58513350Y50596807D01*
X58407718Y50438718D01*
X58273282Y50304282D01*
X58115193Y50198650D01*
X57939538Y50125892D01*
X57753065Y50088800D01*
X57562935Y50088800D01*
X57376462Y50125892D01*
X57200807Y50198650D01*
X57042718Y50304282D01*
X56908282Y50438718D01*
X56802650Y50596807D01*
X56729892Y50772462D01*
X56692800Y50958935D01*
X56692800Y51149065D01*
X56729892Y51335538D01*
X56802650Y51511193D01*
X56908282Y51669282D01*
X57042718Y51803718D01*
X57200807Y51909350D01*
X57376462Y51982108D01*
X57562935Y52019200D01*
X57753065Y52019200D01*
X57939538Y51982108D01*
X57939538Y51982108D01*
G37*
G36*
X46966738Y51982108D02*
G01*
X47142393Y51909350D01*
X47300482Y51803718D01*
X47434918Y51669282D01*
X47540550Y51511193D01*
X47613308Y51335538D01*
X47650400Y51149065D01*
X47650400Y50958935D01*
X47613308Y50772462D01*
X47540550Y50596807D01*
X47434918Y50438718D01*
X47300482Y50304282D01*
X47142393Y50198650D01*
X46966738Y50125892D01*
X46780265Y50088800D01*
X46590135Y50088800D01*
X46403662Y50125892D01*
X46228007Y50198650D01*
X46069918Y50304282D01*
X45935482Y50438718D01*
X45829850Y50596807D01*
X45757092Y50772462D01*
X45720000Y50958935D01*
X45720000Y51149065D01*
X45757092Y51335538D01*
X45829850Y51511193D01*
X45935482Y51669282D01*
X46069918Y51803718D01*
X46228007Y51909350D01*
X46403662Y51982108D01*
X46590135Y52019200D01*
X46780265Y52019200D01*
X46966738Y51982108D01*
X46966738Y51982108D01*
G37*
G36*
X49379738Y51982108D02*
G01*
X49555393Y51909350D01*
X49713482Y51803718D01*
X49847918Y51669282D01*
X49953550Y51511193D01*
X50026308Y51335538D01*
X50063400Y51149065D01*
X50063400Y50958935D01*
X50026308Y50772462D01*
X49953550Y50596807D01*
X49847918Y50438718D01*
X49713482Y50304282D01*
X49555393Y50198650D01*
X49379738Y50125892D01*
X49193265Y50088800D01*
X49003135Y50088800D01*
X48816662Y50125892D01*
X48641007Y50198650D01*
X48482918Y50304282D01*
X48348482Y50438718D01*
X48242850Y50596807D01*
X48170092Y50772462D01*
X48133000Y50958935D01*
X48133000Y51149065D01*
X48170092Y51335538D01*
X48242850Y51511193D01*
X48348482Y51669282D01*
X48482918Y51803718D01*
X48641007Y51909350D01*
X48816662Y51982108D01*
X49003135Y52019200D01*
X49193265Y52019200D01*
X49379738Y51982108D01*
X49379738Y51982108D01*
G37*
G36*
X32785512Y51852135D02*
G01*
X32870095Y51843804D01*
X32990527Y51807271D01*
X33032888Y51794421D01*
X33182912Y51714232D01*
X33314412Y51606312D01*
X33422332Y51474812D01*
X33502521Y51324788D01*
X33502522Y51324784D01*
X33551904Y51161995D01*
X33568578Y50992700D01*
X33551904Y50823405D01*
X33536450Y50772462D01*
X33502521Y50660612D01*
X33422332Y50510588D01*
X33314412Y50379088D01*
X33182912Y50271168D01*
X33032888Y50190979D01*
X32990527Y50178129D01*
X32870095Y50141596D01*
X32785512Y50133265D01*
X32743221Y50129100D01*
X32658379Y50129100D01*
X32616088Y50133265D01*
X32531505Y50141596D01*
X32411073Y50178129D01*
X32368712Y50190979D01*
X32218688Y50271168D01*
X32087188Y50379088D01*
X31979268Y50510588D01*
X31899079Y50660612D01*
X31865150Y50772462D01*
X31849696Y50823405D01*
X31833022Y50992700D01*
X31849696Y51161995D01*
X31899078Y51324784D01*
X31899079Y51324788D01*
X31979268Y51474812D01*
X32087188Y51606312D01*
X32218688Y51714232D01*
X32368712Y51794421D01*
X32411073Y51807271D01*
X32531505Y51843804D01*
X32616088Y51852135D01*
X32658379Y51856300D01*
X32743221Y51856300D01*
X32785512Y51852135D01*
X32785512Y51852135D01*
G37*
G36*
X31024400Y50129100D02*
G01*
X29297200Y50129100D01*
X29297200Y51856300D01*
X31024400Y51856300D01*
X31024400Y50129100D01*
X31024400Y50129100D01*
G37*
G36*
X37865512Y51852135D02*
G01*
X37950095Y51843804D01*
X38070527Y51807271D01*
X38112888Y51794421D01*
X38262912Y51714232D01*
X38394412Y51606312D01*
X38502332Y51474812D01*
X38582521Y51324788D01*
X38582522Y51324784D01*
X38631904Y51161995D01*
X38648578Y50992700D01*
X38631904Y50823405D01*
X38616450Y50772462D01*
X38582521Y50660612D01*
X38502332Y50510588D01*
X38394412Y50379088D01*
X38262912Y50271168D01*
X38112888Y50190979D01*
X38070527Y50178129D01*
X37950095Y50141596D01*
X37865512Y50133265D01*
X37823221Y50129100D01*
X37738379Y50129100D01*
X37696088Y50133265D01*
X37611505Y50141596D01*
X37491073Y50178129D01*
X37448712Y50190979D01*
X37298688Y50271168D01*
X37167188Y50379088D01*
X37059268Y50510588D01*
X36979079Y50660612D01*
X36945150Y50772462D01*
X36929696Y50823405D01*
X36913022Y50992700D01*
X36929696Y51161995D01*
X36979078Y51324784D01*
X36979079Y51324788D01*
X37059268Y51474812D01*
X37167188Y51606312D01*
X37298688Y51714232D01*
X37448712Y51794421D01*
X37491073Y51807271D01*
X37611505Y51843804D01*
X37696088Y51852135D01*
X37738379Y51856300D01*
X37823221Y51856300D01*
X37865512Y51852135D01*
X37865512Y51852135D01*
G37*
G36*
X35325512Y51852135D02*
G01*
X35410095Y51843804D01*
X35530527Y51807271D01*
X35572888Y51794421D01*
X35722912Y51714232D01*
X35854412Y51606312D01*
X35962332Y51474812D01*
X36042521Y51324788D01*
X36042522Y51324784D01*
X36091904Y51161995D01*
X36108578Y50992700D01*
X36091904Y50823405D01*
X36076450Y50772462D01*
X36042521Y50660612D01*
X35962332Y50510588D01*
X35854412Y50379088D01*
X35722912Y50271168D01*
X35572888Y50190979D01*
X35530527Y50178129D01*
X35410095Y50141596D01*
X35325512Y50133265D01*
X35283221Y50129100D01*
X35198379Y50129100D01*
X35156088Y50133265D01*
X35071505Y50141596D01*
X34951073Y50178129D01*
X34908712Y50190979D01*
X34758688Y50271168D01*
X34627188Y50379088D01*
X34519268Y50510588D01*
X34439079Y50660612D01*
X34405150Y50772462D01*
X34389696Y50823405D01*
X34373022Y50992700D01*
X34389696Y51161995D01*
X34439078Y51324784D01*
X34439079Y51324788D01*
X34519268Y51474812D01*
X34627188Y51606312D01*
X34758688Y51714232D01*
X34908712Y51794421D01*
X34951073Y51807271D01*
X35071505Y51843804D01*
X35156088Y51852135D01*
X35198379Y51856300D01*
X35283221Y51856300D01*
X35325512Y51852135D01*
X35325512Y51852135D01*
G37*
G36*
X8521965Y51428867D02*
G01*
X8640982Y51379569D01*
X8640985Y51379567D01*
X8722974Y51324784D01*
X8748104Y51307992D01*
X8839192Y51216904D01*
X8839194Y51216901D01*
X8839195Y51216900D01*
X8910767Y51109785D01*
X8910769Y51109782D01*
X8960067Y50990765D01*
X8985200Y50864413D01*
X8985200Y50735587D01*
X8960067Y50609235D01*
X8910769Y50490218D01*
X8839192Y50383096D01*
X8748104Y50292008D01*
X8748101Y50292006D01*
X8748100Y50292005D01*
X8716915Y50271168D01*
X8640982Y50220431D01*
X8521965Y50171133D01*
X8395613Y50146000D01*
X8266787Y50146000D01*
X8140435Y50171133D01*
X8021418Y50220431D01*
X7945485Y50271168D01*
X7914300Y50292005D01*
X7914299Y50292006D01*
X7914296Y50292008D01*
X7823208Y50383096D01*
X7751631Y50490218D01*
X7702333Y50609235D01*
X7677200Y50735587D01*
X7677200Y50864413D01*
X7702333Y50990765D01*
X7751631Y51109782D01*
X7751633Y51109785D01*
X7823205Y51216900D01*
X7823206Y51216901D01*
X7823208Y51216904D01*
X7914296Y51307992D01*
X7939427Y51324784D01*
X8021415Y51379567D01*
X8021418Y51379569D01*
X8140435Y51428867D01*
X8266787Y51454000D01*
X8395613Y51454000D01*
X8521965Y51428867D01*
X8521965Y51428867D01*
G37*
G36*
X3441965Y51428867D02*
G01*
X3560982Y51379569D01*
X3560985Y51379567D01*
X3642974Y51324784D01*
X3668104Y51307992D01*
X3759192Y51216904D01*
X3759194Y51216901D01*
X3759195Y51216900D01*
X3830767Y51109785D01*
X3830769Y51109782D01*
X3880067Y50990765D01*
X3905200Y50864413D01*
X3905200Y50735587D01*
X3880067Y50609235D01*
X3830769Y50490218D01*
X3759192Y50383096D01*
X3668104Y50292008D01*
X3668101Y50292006D01*
X3668100Y50292005D01*
X3636915Y50271168D01*
X3560982Y50220431D01*
X3441965Y50171133D01*
X3315613Y50146000D01*
X3186787Y50146000D01*
X3060435Y50171133D01*
X2941418Y50220431D01*
X2865485Y50271168D01*
X2834300Y50292005D01*
X2834299Y50292006D01*
X2834296Y50292008D01*
X2743208Y50383096D01*
X2671631Y50490218D01*
X2622333Y50609235D01*
X2597200Y50735587D01*
X2597200Y50864413D01*
X2622333Y50990765D01*
X2671631Y51109782D01*
X2671633Y51109785D01*
X2743205Y51216900D01*
X2743206Y51216901D01*
X2743208Y51216904D01*
X2834296Y51307992D01*
X2859427Y51324784D01*
X2941415Y51379567D01*
X2941418Y51379569D01*
X3060435Y51428867D01*
X3186787Y51454000D01*
X3315613Y51454000D01*
X3441965Y51428867D01*
X3441965Y51428867D01*
G37*
G36*
X6189600Y51341400D02*
G01*
X5189600Y51341400D01*
X5189600Y52341400D01*
X6189600Y52341400D01*
X6189600Y51341400D01*
X6189600Y51341400D01*
G37*
G36*
X43934000Y52345600D02*
G01*
X42934000Y52345600D01*
X42934000Y53345600D01*
X43934000Y53345600D01*
X43934000Y52345600D01*
X43934000Y52345600D01*
G37*
G36*
X15044000Y52505200D02*
G01*
X14044000Y52505200D01*
X14044000Y53905200D01*
X15044000Y53905200D01*
X15044000Y52505200D01*
X15044000Y52505200D01*
G37*
G36*
X16944000Y52505200D02*
G01*
X15944000Y52505200D01*
X15944000Y53905200D01*
X16944000Y53905200D01*
X16944000Y52505200D01*
X16944000Y52505200D01*
G37*
G36*
X32785512Y54392135D02*
G01*
X32870095Y54383804D01*
X32990527Y54347271D01*
X33032888Y54334421D01*
X33182912Y54254232D01*
X33314412Y54146312D01*
X33422332Y54014812D01*
X33502521Y53864788D01*
X33502522Y53864784D01*
X33551904Y53701995D01*
X33568578Y53532700D01*
X33551904Y53363405D01*
X33525264Y53275587D01*
X33502521Y53200612D01*
X33422332Y53050588D01*
X33314412Y52919088D01*
X33182912Y52811168D01*
X33032888Y52730979D01*
X32990527Y52718129D01*
X32870095Y52681596D01*
X32785512Y52673265D01*
X32743221Y52669100D01*
X32658379Y52669100D01*
X32616088Y52673265D01*
X32531505Y52681596D01*
X32411073Y52718129D01*
X32368712Y52730979D01*
X32218688Y52811168D01*
X32087188Y52919088D01*
X31979268Y53050588D01*
X31899079Y53200612D01*
X31876336Y53275587D01*
X31849696Y53363405D01*
X31833022Y53532700D01*
X31849696Y53701995D01*
X31899078Y53864784D01*
X31899079Y53864788D01*
X31979268Y54014812D01*
X32087188Y54146312D01*
X32218688Y54254232D01*
X32368712Y54334421D01*
X32411073Y54347271D01*
X32531505Y54383804D01*
X32616088Y54392135D01*
X32658379Y54396300D01*
X32743221Y54396300D01*
X32785512Y54392135D01*
X32785512Y54392135D01*
G37*
G36*
X30245512Y54392135D02*
G01*
X30330095Y54383804D01*
X30450527Y54347271D01*
X30492888Y54334421D01*
X30642912Y54254232D01*
X30774412Y54146312D01*
X30882332Y54014812D01*
X30962521Y53864788D01*
X30962522Y53864784D01*
X31011904Y53701995D01*
X31028578Y53532700D01*
X31011904Y53363405D01*
X30985264Y53275587D01*
X30962521Y53200612D01*
X30882332Y53050588D01*
X30774412Y52919088D01*
X30642912Y52811168D01*
X30492888Y52730979D01*
X30450527Y52718129D01*
X30330095Y52681596D01*
X30245512Y52673265D01*
X30203221Y52669100D01*
X30118379Y52669100D01*
X30076088Y52673265D01*
X29991505Y52681596D01*
X29871073Y52718129D01*
X29828712Y52730979D01*
X29678688Y52811168D01*
X29547188Y52919088D01*
X29439268Y53050588D01*
X29359079Y53200612D01*
X29336336Y53275587D01*
X29309696Y53363405D01*
X29293022Y53532700D01*
X29309696Y53701995D01*
X29359078Y53864784D01*
X29359079Y53864788D01*
X29439268Y54014812D01*
X29547188Y54146312D01*
X29678688Y54254232D01*
X29828712Y54334421D01*
X29871073Y54347271D01*
X29991505Y54383804D01*
X30076088Y54392135D01*
X30118379Y54396300D01*
X30203221Y54396300D01*
X30245512Y54392135D01*
X30245512Y54392135D01*
G37*
G36*
X35325512Y54392135D02*
G01*
X35410095Y54383804D01*
X35530527Y54347271D01*
X35572888Y54334421D01*
X35722912Y54254232D01*
X35854412Y54146312D01*
X35962332Y54014812D01*
X36042521Y53864788D01*
X36042522Y53864784D01*
X36091904Y53701995D01*
X36108578Y53532700D01*
X36091904Y53363405D01*
X36065264Y53275587D01*
X36042521Y53200612D01*
X35962332Y53050588D01*
X35854412Y52919088D01*
X35722912Y52811168D01*
X35572888Y52730979D01*
X35530527Y52718129D01*
X35410095Y52681596D01*
X35325512Y52673265D01*
X35283221Y52669100D01*
X35198379Y52669100D01*
X35156088Y52673265D01*
X35071505Y52681596D01*
X34951073Y52718129D01*
X34908712Y52730979D01*
X34758688Y52811168D01*
X34627188Y52919088D01*
X34519268Y53050588D01*
X34439079Y53200612D01*
X34416336Y53275587D01*
X34389696Y53363405D01*
X34373022Y53532700D01*
X34389696Y53701995D01*
X34439078Y53864784D01*
X34439079Y53864788D01*
X34519268Y54014812D01*
X34627188Y54146312D01*
X34758688Y54254232D01*
X34908712Y54334421D01*
X34951073Y54347271D01*
X35071505Y54383804D01*
X35156088Y54392135D01*
X35198379Y54396300D01*
X35283221Y54396300D01*
X35325512Y54392135D01*
X35325512Y54392135D01*
G37*
G36*
X37865512Y54392135D02*
G01*
X37950095Y54383804D01*
X38070527Y54347271D01*
X38112888Y54334421D01*
X38262912Y54254232D01*
X38394412Y54146312D01*
X38502332Y54014812D01*
X38582521Y53864788D01*
X38582522Y53864784D01*
X38631904Y53701995D01*
X38648578Y53532700D01*
X38631904Y53363405D01*
X38605264Y53275587D01*
X38582521Y53200612D01*
X38502332Y53050588D01*
X38394412Y52919088D01*
X38262912Y52811168D01*
X38112888Y52730979D01*
X38070527Y52718129D01*
X37950095Y52681596D01*
X37865512Y52673265D01*
X37823221Y52669100D01*
X37738379Y52669100D01*
X37696088Y52673265D01*
X37611505Y52681596D01*
X37491073Y52718129D01*
X37448712Y52730979D01*
X37298688Y52811168D01*
X37167188Y52919088D01*
X37059268Y53050588D01*
X36979079Y53200612D01*
X36956336Y53275587D01*
X36929696Y53363405D01*
X36913022Y53532700D01*
X36929696Y53701995D01*
X36979078Y53864784D01*
X36979079Y53864788D01*
X37059268Y54014812D01*
X37167188Y54146312D01*
X37298688Y54254232D01*
X37448712Y54334421D01*
X37491073Y54347271D01*
X37611505Y54383804D01*
X37696088Y54392135D01*
X37738379Y54396300D01*
X37823221Y54396300D01*
X37865512Y54392135D01*
X37865512Y54392135D01*
G37*
G36*
X8521965Y53968867D02*
G01*
X8640982Y53919569D01*
X8640985Y53919567D01*
X8722974Y53864784D01*
X8748104Y53847992D01*
X8839192Y53756904D01*
X8910769Y53649782D01*
X8960067Y53530765D01*
X8985200Y53404413D01*
X8985200Y53275587D01*
X8960067Y53149235D01*
X8910769Y53030218D01*
X8839192Y52923096D01*
X8748104Y52832008D01*
X8748101Y52832006D01*
X8748100Y52832005D01*
X8716915Y52811168D01*
X8640982Y52760431D01*
X8521965Y52711133D01*
X8395613Y52686000D01*
X8266787Y52686000D01*
X8140435Y52711133D01*
X8021418Y52760431D01*
X7945485Y52811168D01*
X7914300Y52832005D01*
X7914299Y52832006D01*
X7914296Y52832008D01*
X7823208Y52923096D01*
X7751631Y53030218D01*
X7702333Y53149235D01*
X7677200Y53275587D01*
X7677200Y53404413D01*
X7702333Y53530765D01*
X7751631Y53649782D01*
X7823208Y53756904D01*
X7914296Y53847992D01*
X7939427Y53864784D01*
X8021415Y53919567D01*
X8021418Y53919569D01*
X8140435Y53968867D01*
X8266787Y53994000D01*
X8395613Y53994000D01*
X8521965Y53968867D01*
X8521965Y53968867D01*
G37*
G36*
X3441965Y53968867D02*
G01*
X3560982Y53919569D01*
X3560985Y53919567D01*
X3642974Y53864784D01*
X3668104Y53847992D01*
X3759192Y53756904D01*
X3830769Y53649782D01*
X3880067Y53530765D01*
X3905200Y53404413D01*
X3905200Y53275587D01*
X3880067Y53149235D01*
X3830769Y53030218D01*
X3759192Y52923096D01*
X3668104Y52832008D01*
X3668101Y52832006D01*
X3668100Y52832005D01*
X3636915Y52811168D01*
X3560982Y52760431D01*
X3441965Y52711133D01*
X3315613Y52686000D01*
X3186787Y52686000D01*
X3060435Y52711133D01*
X2941418Y52760431D01*
X2865485Y52811168D01*
X2834300Y52832005D01*
X2834299Y52832006D01*
X2834296Y52832008D01*
X2743208Y52923096D01*
X2671631Y53030218D01*
X2622333Y53149235D01*
X2597200Y53275587D01*
X2597200Y53404413D01*
X2622333Y53530765D01*
X2671631Y53649782D01*
X2743208Y53756904D01*
X2834296Y53847992D01*
X2859427Y53864784D01*
X2941415Y53919567D01*
X2941418Y53919569D01*
X3060435Y53968867D01*
X3186787Y53994000D01*
X3315613Y53994000D01*
X3441965Y53968867D01*
X3441965Y53968867D01*
G37*
G36*
X45991400Y52866300D02*
G01*
X44991400Y52866300D01*
X44991400Y53866300D01*
X45991400Y53866300D01*
X45991400Y52866300D01*
X45991400Y52866300D01*
G37*
G36*
X6189600Y53041400D02*
G01*
X5189600Y53041400D01*
X5189600Y54041400D01*
X6189600Y54041400D01*
X6189600Y53041400D01*
X6189600Y53041400D01*
G37*
G36*
X13238100Y53361600D02*
G01*
X12238100Y53361600D01*
X12238100Y54361600D01*
X13238100Y54361600D01*
X13238100Y53361600D01*
X13238100Y53361600D01*
G37*
G36*
X56938800Y53666400D02*
G01*
X55938800Y53666400D01*
X55938800Y54666400D01*
X56938800Y54666400D01*
X56938800Y53666400D01*
X56938800Y53666400D01*
G37*
G36*
X49133800Y53816400D02*
G01*
X47683800Y53816400D01*
X47683800Y56216400D01*
X49133800Y56216400D01*
X49133800Y53816400D01*
X49133800Y53816400D01*
G37*
G36*
X55033800Y53816400D02*
G01*
X53583800Y53816400D01*
X53583800Y56216400D01*
X55033800Y56216400D01*
X55033800Y53816400D01*
X55033800Y53816400D01*
G37*
G36*
X43934000Y54045600D02*
G01*
X42934000Y54045600D01*
X42934000Y55045600D01*
X43934000Y55045600D01*
X43934000Y54045600D01*
X43934000Y54045600D01*
G37*
G36*
X45991400Y54566300D02*
G01*
X44991400Y54566300D01*
X44991400Y55566300D01*
X45991400Y55566300D01*
X45991400Y54566300D01*
X45991400Y54566300D01*
G37*
G36*
X15994000Y54705200D02*
G01*
X14994000Y54705200D01*
X14994000Y56105200D01*
X15994000Y56105200D01*
X15994000Y54705200D01*
X15994000Y54705200D01*
G37*
G36*
X18534900Y54910100D02*
G01*
X17534900Y54910100D01*
X17534900Y55910100D01*
X18534900Y55910100D01*
X18534900Y54910100D01*
X18534900Y54910100D01*
G37*
G36*
X20234900Y54910100D02*
G01*
X19234900Y54910100D01*
X19234900Y55910100D01*
X20234900Y55910100D01*
X20234900Y54910100D01*
X20234900Y54910100D01*
G37*
G36*
X13238100Y55061600D02*
G01*
X12238100Y55061600D01*
X12238100Y56061600D01*
X13238100Y56061600D01*
X13238100Y55061600D01*
X13238100Y55061600D01*
G37*
G36*
X6445200Y55226000D02*
G01*
X5137200Y55226000D01*
X5137200Y56534000D01*
X6445200Y56534000D01*
X6445200Y55226000D01*
X6445200Y55226000D01*
G37*
G36*
X56938800Y55366400D02*
G01*
X55938800Y55366400D01*
X55938800Y56366400D01*
X56938800Y56366400D01*
X56938800Y55366400D01*
X56938800Y55366400D01*
G37*
G36*
X51755400Y57158000D02*
G01*
X50755400Y57158000D01*
X50755400Y58158000D01*
X51755400Y58158000D01*
X51755400Y57158000D01*
X51755400Y57158000D01*
G37*
G36*
X50055400Y57158000D02*
G01*
X49055400Y57158000D01*
X49055400Y58158000D01*
X50055400Y58158000D01*
X50055400Y57158000D01*
X50055400Y57158000D01*
G37*
G36*
X25526401Y59773075D02*
G01*
X25734413Y59686914D01*
X25921623Y59561824D01*
X26080824Y59402623D01*
X26205914Y59215413D01*
X26292075Y59007401D01*
X26336000Y58786576D01*
X26336000Y58561424D01*
X26292075Y58340599D01*
X26205914Y58132587D01*
X26080824Y57945377D01*
X25921623Y57786176D01*
X25734413Y57661086D01*
X25526401Y57574925D01*
X25305576Y57531000D01*
X25080424Y57531000D01*
X24859599Y57574925D01*
X24651587Y57661086D01*
X24464377Y57786176D01*
X24305176Y57945377D01*
X24180086Y58132587D01*
X24093925Y58340599D01*
X24050000Y58561424D01*
X24050000Y58786576D01*
X24093925Y59007401D01*
X24180086Y59215413D01*
X24305176Y59402623D01*
X24464377Y59561824D01*
X24651587Y59686914D01*
X24859599Y59773075D01*
X25080424Y59817000D01*
X25305576Y59817000D01*
X25526401Y59773075D01*
X25526401Y59773075D01*
G37*
G36*
X15526401Y59773075D02*
G01*
X15734413Y59686914D01*
X15921623Y59561824D01*
X16080824Y59402623D01*
X16205914Y59215413D01*
X16292075Y59007401D01*
X16336000Y58786576D01*
X16336000Y58561424D01*
X16292075Y58340599D01*
X16205914Y58132587D01*
X16080824Y57945377D01*
X15921623Y57786176D01*
X15734413Y57661086D01*
X15526401Y57574925D01*
X15305576Y57531000D01*
X15080424Y57531000D01*
X14859599Y57574925D01*
X14651587Y57661086D01*
X14464377Y57786176D01*
X14305176Y57945377D01*
X14180086Y58132587D01*
X14093925Y58340599D01*
X14050000Y58561424D01*
X14050000Y58786576D01*
X14093925Y59007401D01*
X14180086Y59215413D01*
X14305176Y59402623D01*
X14464377Y59561824D01*
X14651587Y59686914D01*
X14859599Y59773075D01*
X15080424Y59817000D01*
X15305576Y59817000D01*
X15526401Y59773075D01*
X15526401Y59773075D01*
G37*
G36*
X20526401Y59773075D02*
G01*
X20734413Y59686914D01*
X20921623Y59561824D01*
X21080824Y59402623D01*
X21205914Y59215413D01*
X21292075Y59007401D01*
X21336000Y58786576D01*
X21336000Y58561424D01*
X21292075Y58340599D01*
X21205914Y58132587D01*
X21080824Y57945377D01*
X20921623Y57786176D01*
X20734413Y57661086D01*
X20526401Y57574925D01*
X20305576Y57531000D01*
X20080424Y57531000D01*
X19859599Y57574925D01*
X19651587Y57661086D01*
X19464377Y57786176D01*
X19305176Y57945377D01*
X19180086Y58132587D01*
X19093925Y58340599D01*
X19050000Y58561424D01*
X19050000Y58786576D01*
X19093925Y59007401D01*
X19180086Y59215413D01*
X19305176Y59402623D01*
X19464377Y59561824D01*
X19651587Y59686914D01*
X19859599Y59773075D01*
X20080424Y59817000D01*
X20305576Y59817000D01*
X20526401Y59773075D01*
X20526401Y59773075D01*
G37*
G36*
X55770400Y58199400D02*
G01*
X54770400Y58199400D01*
X54770400Y59199400D01*
X55770400Y59199400D01*
X55770400Y58199400D01*
X55770400Y58199400D01*
G37*
G36*
X5981965Y59658467D02*
G01*
X6100982Y59609169D01*
X6100985Y59609167D01*
X6171839Y59561824D01*
X6208104Y59537592D01*
X6299192Y59446504D01*
X6299194Y59446501D01*
X6299195Y59446500D01*
X6328515Y59402620D01*
X6370769Y59339382D01*
X6420067Y59220365D01*
X6445200Y59094013D01*
X6445200Y58965187D01*
X6420067Y58838835D01*
X6370769Y58719818D01*
X6299192Y58612696D01*
X6208104Y58521608D01*
X6100982Y58450031D01*
X5981965Y58400733D01*
X5855613Y58375600D01*
X5726787Y58375600D01*
X5600435Y58400733D01*
X5481418Y58450031D01*
X5374296Y58521608D01*
X5283208Y58612696D01*
X5211631Y58719818D01*
X5162333Y58838835D01*
X5137200Y58965187D01*
X5137200Y59094013D01*
X5162333Y59220365D01*
X5211631Y59339382D01*
X5253885Y59402620D01*
X5283205Y59446500D01*
X5283206Y59446501D01*
X5283208Y59446504D01*
X5374296Y59537592D01*
X5410562Y59561824D01*
X5481415Y59609167D01*
X5481418Y59609169D01*
X5600435Y59658467D01*
X5726787Y59683600D01*
X5855613Y59683600D01*
X5981965Y59658467D01*
X5981965Y59658467D01*
G37*
G36*
X40083338Y60364108D02*
G01*
X40258993Y60291350D01*
X40417082Y60185718D01*
X40551518Y60051282D01*
X40657150Y59893193D01*
X40729908Y59717538D01*
X40767000Y59531065D01*
X40767000Y59340935D01*
X40729908Y59154462D01*
X40657150Y58978807D01*
X40551518Y58820718D01*
X40417082Y58686282D01*
X40258993Y58580650D01*
X40083338Y58507892D01*
X39896865Y58470800D01*
X39706735Y58470800D01*
X39520262Y58507892D01*
X39344607Y58580650D01*
X39186518Y58686282D01*
X39052082Y58820718D01*
X38946450Y58978807D01*
X38873692Y59154462D01*
X38836600Y59340935D01*
X38836600Y59531065D01*
X38873692Y59717538D01*
X38946450Y59893193D01*
X39052082Y60051282D01*
X39186518Y60185718D01*
X39344607Y60291350D01*
X39520262Y60364108D01*
X39706735Y60401200D01*
X39896865Y60401200D01*
X40083338Y60364108D01*
X40083338Y60364108D01*
G37*
G36*
X42496338Y60364108D02*
G01*
X42671993Y60291350D01*
X42830082Y60185718D01*
X42964518Y60051282D01*
X43070150Y59893193D01*
X43142908Y59717538D01*
X43180000Y59531065D01*
X43180000Y59340935D01*
X43142908Y59154462D01*
X43070150Y58978807D01*
X42964518Y58820718D01*
X42830082Y58686282D01*
X42671993Y58580650D01*
X42496338Y58507892D01*
X42309865Y58470800D01*
X42119735Y58470800D01*
X41933262Y58507892D01*
X41757607Y58580650D01*
X41599518Y58686282D01*
X41465082Y58820718D01*
X41359450Y58978807D01*
X41286692Y59154462D01*
X41249600Y59340935D01*
X41249600Y59531065D01*
X41286692Y59717538D01*
X41359450Y59893193D01*
X41465082Y60051282D01*
X41599518Y60185718D01*
X41757607Y60291350D01*
X41933262Y60364108D01*
X42119735Y60401200D01*
X42309865Y60401200D01*
X42496338Y60364108D01*
X42496338Y60364108D01*
G37*
G36*
X31523538Y60364108D02*
G01*
X31699193Y60291350D01*
X31857282Y60185718D01*
X31991718Y60051282D01*
X32097350Y59893193D01*
X32170108Y59717538D01*
X32207200Y59531065D01*
X32207200Y59340935D01*
X32170108Y59154462D01*
X32097350Y58978807D01*
X31991718Y58820718D01*
X31857282Y58686282D01*
X31699193Y58580650D01*
X31523538Y58507892D01*
X31337065Y58470800D01*
X31146935Y58470800D01*
X30960462Y58507892D01*
X30784807Y58580650D01*
X30626718Y58686282D01*
X30492282Y58820718D01*
X30386650Y58978807D01*
X30313892Y59154462D01*
X30276800Y59340935D01*
X30276800Y59531065D01*
X30313892Y59717538D01*
X30386650Y59893193D01*
X30492282Y60051282D01*
X30626718Y60185718D01*
X30784807Y60291350D01*
X30960462Y60364108D01*
X31146935Y60401200D01*
X31337065Y60401200D01*
X31523538Y60364108D01*
X31523538Y60364108D01*
G37*
G36*
X45915200Y58783600D02*
G01*
X44915200Y58783600D01*
X44915200Y59783600D01*
X45915200Y59783600D01*
X45915200Y58783600D01*
X45915200Y58783600D01*
G37*
G36*
X52732538Y60694308D02*
G01*
X52908193Y60621550D01*
X53066282Y60515918D01*
X53200718Y60381482D01*
X53306350Y60223393D01*
X53379108Y60047738D01*
X53416200Y59861265D01*
X53416200Y59671135D01*
X53379108Y59484662D01*
X53306350Y59309007D01*
X53200718Y59150918D01*
X53066282Y59016482D01*
X52908193Y58910850D01*
X52732538Y58838092D01*
X52546065Y58801000D01*
X52355935Y58801000D01*
X52169462Y58838092D01*
X51993807Y58910850D01*
X51835718Y59016482D01*
X51701282Y59150918D01*
X51595650Y59309007D01*
X51522892Y59484662D01*
X51485800Y59671135D01*
X51485800Y59861265D01*
X51522892Y60047738D01*
X51595650Y60223393D01*
X51701282Y60381482D01*
X51835718Y60515918D01*
X51993807Y60621550D01*
X52169462Y60694308D01*
X52355935Y60731400D01*
X52546065Y60731400D01*
X52732538Y60694308D01*
X52732538Y60694308D01*
G37*
G36*
X50583800Y59294800D02*
G01*
X49583800Y59294800D01*
X49583800Y60694800D01*
X50583800Y60694800D01*
X50583800Y59294800D01*
X50583800Y59294800D01*
G37*
G36*
X48683800Y59294800D02*
G01*
X47683800Y59294800D01*
X47683800Y60694800D01*
X48683800Y60694800D01*
X48683800Y59294800D01*
X48683800Y59294800D01*
G37*
G36*
X55770400Y59899400D02*
G01*
X54770400Y59899400D01*
X54770400Y60899400D01*
X55770400Y60899400D01*
X55770400Y59899400D01*
X55770400Y59899400D01*
G37*
G36*
X45915200Y60483600D02*
G01*
X44915200Y60483600D01*
X44915200Y61483600D01*
X45915200Y61483600D01*
X45915200Y60483600D01*
X45915200Y60483600D01*
G37*
G36*
X8521965Y62198467D02*
G01*
X8640982Y62149169D01*
X8640985Y62149167D01*
X8738311Y62084136D01*
X8748104Y62077592D01*
X8839192Y61986504D01*
X8910769Y61879382D01*
X8960067Y61760365D01*
X8985200Y61634013D01*
X8985200Y61505187D01*
X8960067Y61378835D01*
X8910769Y61259818D01*
X8910767Y61259815D01*
X8860644Y61184800D01*
X8839192Y61152696D01*
X8748104Y61061608D01*
X8640982Y60990031D01*
X8521965Y60940733D01*
X8395613Y60915600D01*
X8266787Y60915600D01*
X8140435Y60940733D01*
X8021418Y60990031D01*
X7914296Y61061608D01*
X7823208Y61152696D01*
X7801757Y61184800D01*
X7751633Y61259815D01*
X7751631Y61259818D01*
X7702333Y61378835D01*
X7677200Y61505187D01*
X7677200Y61634013D01*
X7702333Y61760365D01*
X7751631Y61879382D01*
X7823208Y61986504D01*
X7914296Y62077592D01*
X7924090Y62084136D01*
X8021415Y62149167D01*
X8021418Y62149169D01*
X8140435Y62198467D01*
X8266787Y62223600D01*
X8395613Y62223600D01*
X8521965Y62198467D01*
X8521965Y62198467D01*
G37*
G36*
X3441965Y62198467D02*
G01*
X3560982Y62149169D01*
X3560985Y62149167D01*
X3658311Y62084136D01*
X3668104Y62077592D01*
X3759192Y61986504D01*
X3830769Y61879382D01*
X3880067Y61760365D01*
X3905200Y61634013D01*
X3905200Y61505187D01*
X3880067Y61378835D01*
X3830769Y61259818D01*
X3830767Y61259815D01*
X3780644Y61184800D01*
X3759192Y61152696D01*
X3668104Y61061608D01*
X3560982Y60990031D01*
X3441965Y60940733D01*
X3315613Y60915600D01*
X3186787Y60915600D01*
X3060435Y60940733D01*
X2941418Y60990031D01*
X2834296Y61061608D01*
X2743208Y61152696D01*
X2721757Y61184800D01*
X2671633Y61259815D01*
X2671631Y61259818D01*
X2622333Y61378835D01*
X2597200Y61505187D01*
X2597200Y61634013D01*
X2622333Y61760365D01*
X2671631Y61879382D01*
X2743208Y61986504D01*
X2834296Y62077592D01*
X2844090Y62084136D01*
X2941415Y62149167D01*
X2941418Y62149169D01*
X3060435Y62198467D01*
X3186787Y62223600D01*
X3315613Y62223600D01*
X3441965Y62198467D01*
X3441965Y62198467D01*
G37*
G36*
X21899500Y61085500D02*
G01*
X20899500Y61085500D01*
X20899500Y62485500D01*
X21899500Y62485500D01*
X21899500Y61085500D01*
X21899500Y61085500D01*
G37*
G36*
X23799500Y61085500D02*
G01*
X22799500Y61085500D01*
X22799500Y62485500D01*
X23799500Y62485500D01*
X23799500Y61085500D01*
X23799500Y61085500D01*
G37*
G36*
X34370900Y61184800D02*
G01*
X33370900Y61184800D01*
X33370900Y62184800D01*
X34370900Y62184800D01*
X34370900Y61184800D01*
X34370900Y61184800D01*
G37*
G36*
X52732538Y63107308D02*
G01*
X52908193Y63034550D01*
X53066282Y62928918D01*
X53200718Y62794482D01*
X53306350Y62636393D01*
X53379108Y62460738D01*
X53416200Y62274265D01*
X53416200Y62084135D01*
X53379108Y61897662D01*
X53306350Y61722007D01*
X53200718Y61563918D01*
X53066282Y61429482D01*
X52908193Y61323850D01*
X52732538Y61251092D01*
X52546065Y61214000D01*
X52355935Y61214000D01*
X52169462Y61251092D01*
X51993807Y61323850D01*
X51835718Y61429482D01*
X51701282Y61563918D01*
X51595650Y61722007D01*
X51522892Y61897662D01*
X51485800Y62084135D01*
X51485800Y62274265D01*
X51522892Y62460738D01*
X51595650Y62636393D01*
X51701282Y62794482D01*
X51835718Y62928918D01*
X51993807Y63034550D01*
X52169462Y63107308D01*
X52355935Y63144400D01*
X52546065Y63144400D01*
X52732538Y63107308D01*
X52732538Y63107308D01*
G37*
G36*
X49633800Y61494800D02*
G01*
X48633800Y61494800D01*
X48633800Y62894800D01*
X49633800Y62894800D01*
X49633800Y61494800D01*
X49633800Y61494800D01*
G37*
G36*
X55745000Y61501400D02*
G01*
X54745000Y61501400D01*
X54745000Y62501400D01*
X55745000Y62501400D01*
X55745000Y61501400D01*
X55745000Y61501400D01*
G37*
G36*
X11168000Y61642000D02*
G01*
X10168000Y61642000D01*
X10168000Y62642000D01*
X11168000Y62642000D01*
X11168000Y61642000D01*
X11168000Y61642000D01*
G37*
G36*
X17416400Y62746900D02*
G01*
X16416400Y62746900D01*
X16416400Y63746900D01*
X17416400Y63746900D01*
X17416400Y62746900D01*
X17416400Y62746900D01*
G37*
G36*
X34370900Y62884800D02*
G01*
X33370900Y62884800D01*
X33370900Y63884800D01*
X34370900Y63884800D01*
X34370900Y62884800D01*
X34370900Y62884800D01*
G37*
G36*
X55745000Y63201400D02*
G01*
X54745000Y63201400D01*
X54745000Y64201400D01*
X55745000Y64201400D01*
X55745000Y63201400D01*
X55745000Y63201400D01*
G37*
G36*
X45450000Y63262000D02*
G01*
X43450000Y63262000D01*
X43450000Y65262000D01*
X45450000Y65262000D01*
X45450000Y63262000D01*
X45450000Y63262000D01*
G37*
G36*
X22849500Y63285500D02*
G01*
X21849500Y63285500D01*
X21849500Y64685500D01*
X22849500Y64685500D01*
X22849500Y63285500D01*
X22849500Y63285500D01*
G37*
G36*
X11168000Y63342000D02*
G01*
X10168000Y63342000D01*
X10168000Y64342000D01*
X11168000Y64342000D01*
X11168000Y63342000D01*
X11168000Y63342000D01*
G37*
G36*
X8521965Y64738467D02*
G01*
X8640982Y64689169D01*
X8748104Y64617592D01*
X8839192Y64526504D01*
X8910769Y64419382D01*
X8960067Y64300365D01*
X8985200Y64174013D01*
X8985200Y64045187D01*
X8960067Y63918835D01*
X8910769Y63799818D01*
X8839192Y63692696D01*
X8748104Y63601608D01*
X8640982Y63530031D01*
X8521965Y63480733D01*
X8395613Y63455600D01*
X8266787Y63455600D01*
X8140435Y63480733D01*
X8021418Y63530031D01*
X7914296Y63601608D01*
X7823208Y63692696D01*
X7751631Y63799818D01*
X7702333Y63918835D01*
X7677200Y64045187D01*
X7677200Y64174013D01*
X7702333Y64300365D01*
X7751631Y64419382D01*
X7823208Y64526504D01*
X7914296Y64617592D01*
X8021418Y64689169D01*
X8140435Y64738467D01*
X8266787Y64763600D01*
X8395613Y64763600D01*
X8521965Y64738467D01*
X8521965Y64738467D01*
G37*
G36*
X3441965Y64738467D02*
G01*
X3560982Y64689169D01*
X3668104Y64617592D01*
X3759192Y64526504D01*
X3830769Y64419382D01*
X3880067Y64300365D01*
X3905200Y64174013D01*
X3905200Y64045187D01*
X3880067Y63918835D01*
X3830769Y63799818D01*
X3759192Y63692696D01*
X3668104Y63601608D01*
X3560982Y63530031D01*
X3441965Y63480733D01*
X3315613Y63455600D01*
X3186787Y63455600D01*
X3060435Y63480733D01*
X2941418Y63530031D01*
X2834296Y63601608D01*
X2743208Y63692696D01*
X2671631Y63799818D01*
X2622333Y63918835D01*
X2597200Y64045187D01*
X2597200Y64174013D01*
X2622333Y64300365D01*
X2671631Y64419382D01*
X2743208Y64526504D01*
X2834296Y64617592D01*
X2941418Y64689169D01*
X3060435Y64738467D01*
X3186787Y64763600D01*
X3315613Y64763600D01*
X3441965Y64738467D01*
X3441965Y64738467D01*
G37*
G36*
X17416400Y64446900D02*
G01*
X16416400Y64446900D01*
X16416400Y65446900D01*
X17416400Y65446900D01*
X17416400Y64446900D01*
X17416400Y64446900D01*
G37*
G36*
X40873300Y64601100D02*
G01*
X39873300Y64601100D01*
X39873300Y65601100D01*
X40873300Y65601100D01*
X40873300Y64601100D01*
X40873300Y64601100D01*
G37*
G36*
X57472200Y65020200D02*
G01*
X56472200Y65020200D01*
X56472200Y66020200D01*
X57472200Y66020200D01*
X57472200Y65020200D01*
X57472200Y65020200D01*
G37*
G36*
X25684100Y65312300D02*
G01*
X24684100Y65312300D01*
X24684100Y66312300D01*
X25684100Y66312300D01*
X25684100Y65312300D01*
X25684100Y65312300D01*
G37*
G36*
X49591000Y65398800D02*
G01*
X48141000Y65398800D01*
X48141000Y67798800D01*
X49591000Y67798800D01*
X49591000Y65398800D01*
X49591000Y65398800D01*
G37*
G36*
X55491000Y65398800D02*
G01*
X54041000Y65398800D01*
X54041000Y67798800D01*
X55491000Y67798800D01*
X55491000Y65398800D01*
X55491000Y65398800D01*
G37*
G36*
X44625770Y67786628D02*
G01*
X44741689Y67763571D01*
X44923678Y67688189D01*
X45087463Y67578751D01*
X45226751Y67439463D01*
X45336189Y67275678D01*
X45411571Y67093689D01*
X45416978Y67066504D01*
X45450000Y66900493D01*
X45450000Y66703507D01*
X45434628Y66626230D01*
X45411571Y66510311D01*
X45336189Y66328322D01*
X45226751Y66164537D01*
X45087463Y66025249D01*
X44923678Y65915811D01*
X44741689Y65840429D01*
X44625770Y65817372D01*
X44548493Y65802000D01*
X44351507Y65802000D01*
X44274230Y65817372D01*
X44158311Y65840429D01*
X43976322Y65915811D01*
X43812537Y66025249D01*
X43673249Y66164537D01*
X43563811Y66328322D01*
X43488429Y66510311D01*
X43465372Y66626230D01*
X43450000Y66703507D01*
X43450000Y66900493D01*
X43483022Y67066504D01*
X43488429Y67093689D01*
X43563811Y67275678D01*
X43673249Y67439463D01*
X43812537Y67578751D01*
X43976322Y67688189D01*
X44158311Y67763571D01*
X44274230Y67786628D01*
X44351507Y67802000D01*
X44548493Y67802000D01*
X44625770Y67786628D01*
X44625770Y67786628D01*
G37*
G36*
X3441965Y67278467D02*
G01*
X3560982Y67229169D01*
X3668104Y67157592D01*
X3759192Y67066504D01*
X3830769Y66959382D01*
X3880067Y66840365D01*
X3905200Y66714013D01*
X3905200Y66585187D01*
X3880067Y66458835D01*
X3830769Y66339818D01*
X3759192Y66232696D01*
X3668104Y66141608D01*
X3560982Y66070031D01*
X3452877Y66025253D01*
X3441965Y66020733D01*
X3315613Y65995600D01*
X3186787Y65995600D01*
X3060435Y66020733D01*
X3049523Y66025253D01*
X2941418Y66070031D01*
X2834296Y66141608D01*
X2743208Y66232696D01*
X2671631Y66339818D01*
X2622333Y66458835D01*
X2597200Y66585187D01*
X2597200Y66714013D01*
X2622333Y66840365D01*
X2671631Y66959382D01*
X2743208Y67066504D01*
X2834296Y67157592D01*
X2941418Y67229169D01*
X3060435Y67278467D01*
X3186787Y67303600D01*
X3315613Y67303600D01*
X3441965Y67278467D01*
X3441965Y67278467D01*
G37*
G36*
X8521965Y67278467D02*
G01*
X8640982Y67229169D01*
X8748104Y67157592D01*
X8839192Y67066504D01*
X8910769Y66959382D01*
X8960067Y66840365D01*
X8985200Y66714013D01*
X8985200Y66585187D01*
X8960067Y66458835D01*
X8910769Y66339818D01*
X8839192Y66232696D01*
X8748104Y66141608D01*
X8640982Y66070031D01*
X8532877Y66025253D01*
X8521965Y66020733D01*
X8395613Y65995600D01*
X8266787Y65995600D01*
X8140435Y66020733D01*
X8129523Y66025253D01*
X8021418Y66070031D01*
X7914296Y66141608D01*
X7823208Y66232696D01*
X7751631Y66339818D01*
X7702333Y66458835D01*
X7677200Y66585187D01*
X7677200Y66714013D01*
X7702333Y66840365D01*
X7751631Y66959382D01*
X7823208Y67066504D01*
X7914296Y67157592D01*
X8021418Y67229169D01*
X8140435Y67278467D01*
X8266787Y67303600D01*
X8395613Y67303600D01*
X8521965Y67278467D01*
X8521965Y67278467D01*
G37*
G36*
X40873300Y66301100D02*
G01*
X39873300Y66301100D01*
X39873300Y67301100D01*
X40873300Y67301100D01*
X40873300Y66301100D01*
X40873300Y66301100D01*
G37*
G36*
X57472200Y66720200D02*
G01*
X56472200Y66720200D01*
X56472200Y67720200D01*
X57472200Y67720200D01*
X57472200Y66720200D01*
X57472200Y66720200D01*
G37*
G36*
X25684100Y67012300D02*
G01*
X24684100Y67012300D01*
X24684100Y68012300D01*
X25684100Y68012300D01*
X25684100Y67012300D01*
X25684100Y67012300D01*
G37*
G36*
X14012800Y67217300D02*
G01*
X13012800Y67217300D01*
X13012800Y68217300D01*
X14012800Y68217300D01*
X14012800Y67217300D01*
X14012800Y67217300D01*
G37*
G36*
X22912000Y67705100D02*
G01*
X16712000Y67705100D01*
X16712000Y68905100D01*
X22912000Y68905100D01*
X22912000Y67705100D01*
X22912000Y67705100D01*
G37*
G36*
X35462200Y68435600D02*
G01*
X34462200Y68435600D01*
X34462200Y69435600D01*
X35462200Y69435600D01*
X35462200Y68435600D01*
X35462200Y68435600D01*
G37*
G36*
X33762200Y68435600D02*
G01*
X32762200Y68435600D01*
X32762200Y69435600D01*
X33762200Y69435600D01*
X33762200Y68435600D01*
X33762200Y68435600D01*
G37*
G36*
X6445200Y68535600D02*
G01*
X5137200Y68535600D01*
X5137200Y69843600D01*
X6445200Y69843600D01*
X6445200Y68535600D01*
X6445200Y68535600D01*
G37*
G36*
X12209400Y68538100D02*
G01*
X11209400Y68538100D01*
X11209400Y69538100D01*
X12209400Y69538100D01*
X12209400Y68538100D01*
X12209400Y68538100D01*
G37*
G36*
X4144000Y68715000D02*
G01*
X3144000Y68715000D01*
X3144000Y69715000D01*
X4144000Y69715000D01*
X4144000Y68715000D01*
X4144000Y68715000D01*
G37*
G36*
X2444000Y68715000D02*
G01*
X1444000Y68715000D01*
X1444000Y69715000D01*
X2444000Y69715000D01*
X2444000Y68715000D01*
X2444000Y68715000D01*
G37*
G36*
X45356400Y68728600D02*
G01*
X44356400Y68728600D01*
X44356400Y69728600D01*
X45356400Y69728600D01*
X45356400Y68728600D01*
X45356400Y68728600D01*
G37*
G36*
X56100600Y68804800D02*
G01*
X55100600Y68804800D01*
X55100600Y69804800D01*
X56100600Y69804800D01*
X56100600Y68804800D01*
X56100600Y68804800D01*
G37*
G36*
X57599200Y68881000D02*
G01*
X56599200Y68881000D01*
X56599200Y69881000D01*
X57599200Y69881000D01*
X57599200Y68881000D01*
X57599200Y68881000D01*
G37*
G36*
X14012800Y68917300D02*
G01*
X13012800Y68917300D01*
X13012800Y69917300D01*
X14012800Y69917300D01*
X14012800Y68917300D01*
X14012800Y68917300D01*
G37*
G36*
X16162000Y69455100D02*
G01*
X14962000Y69455100D01*
X14962000Y75655100D01*
X16162000Y75655100D01*
X16162000Y69455100D01*
X16162000Y69455100D01*
G37*
G36*
X24662000Y69455100D02*
G01*
X23462000Y69455100D01*
X23462000Y75655100D01*
X24662000Y75655100D01*
X24662000Y69455100D01*
X24662000Y69455100D01*
G37*
G36*
X48456100Y69654800D02*
G01*
X47456100Y69654800D01*
X47456100Y70654800D01*
X48456100Y70654800D01*
X48456100Y69654800D01*
X48456100Y69654800D01*
G37*
G36*
X50156100Y69654800D02*
G01*
X49156100Y69654800D01*
X49156100Y70654800D01*
X50156100Y70654800D01*
X50156100Y69654800D01*
X50156100Y69654800D01*
G37*
G36*
X52732538Y71667108D02*
G01*
X52908193Y71594350D01*
X53066282Y71488718D01*
X53200718Y71354282D01*
X53306350Y71196193D01*
X53379108Y71020538D01*
X53416200Y70834065D01*
X53416200Y70643935D01*
X53379108Y70457462D01*
X53306350Y70281807D01*
X53200718Y70123718D01*
X53066282Y69989282D01*
X52908193Y69883650D01*
X52732538Y69810892D01*
X52546065Y69773800D01*
X52355935Y69773800D01*
X52169462Y69810892D01*
X51993807Y69883650D01*
X51835718Y69989282D01*
X51701282Y70123718D01*
X51595650Y70281807D01*
X51522892Y70457462D01*
X51485800Y70643935D01*
X51485800Y70834065D01*
X51522892Y71020538D01*
X51595650Y71196193D01*
X51701282Y71354282D01*
X51835718Y71488718D01*
X51993807Y71594350D01*
X52169462Y71667108D01*
X52355935Y71704200D01*
X52546065Y71704200D01*
X52732538Y71667108D01*
X52732538Y71667108D01*
G37*
G36*
X12209400Y70238100D02*
G01*
X11209400Y70238100D01*
X11209400Y71238100D01*
X12209400Y71238100D01*
X12209400Y70238100D01*
X12209400Y70238100D01*
G37*
G36*
X45356400Y70428600D02*
G01*
X44356400Y70428600D01*
X44356400Y71428600D01*
X45356400Y71428600D01*
X45356400Y70428600D01*
X45356400Y70428600D01*
G37*
G36*
X56100600Y70504800D02*
G01*
X55100600Y70504800D01*
X55100600Y71504800D01*
X56100600Y71504800D01*
X56100600Y70504800D01*
X56100600Y70504800D01*
G37*
G36*
X34054300Y70518400D02*
G01*
X33054300Y70518400D01*
X33054300Y71518400D01*
X34054300Y71518400D01*
X34054300Y70518400D01*
X34054300Y70518400D01*
G37*
G36*
X35754300Y70518400D02*
G01*
X34754300Y70518400D01*
X34754300Y71518400D01*
X35754300Y71518400D01*
X35754300Y70518400D01*
X35754300Y70518400D01*
G37*
G36*
X57599200Y70581000D02*
G01*
X56599200Y70581000D01*
X56599200Y71581000D01*
X57599200Y71581000D01*
X57599200Y70581000D01*
X57599200Y70581000D01*
G37*
G36*
X42496338Y72556108D02*
G01*
X42671993Y72483350D01*
X42830082Y72377718D01*
X42964518Y72243282D01*
X43070150Y72085193D01*
X43142908Y71909538D01*
X43180000Y71723065D01*
X43180000Y71532935D01*
X43142908Y71346462D01*
X43070150Y71170807D01*
X42964518Y71012718D01*
X42830082Y70878282D01*
X42671993Y70772650D01*
X42496338Y70699892D01*
X42309865Y70662800D01*
X42119735Y70662800D01*
X41933262Y70699892D01*
X41757607Y70772650D01*
X41599518Y70878282D01*
X41465082Y71012718D01*
X41359450Y71170807D01*
X41286692Y71346462D01*
X41249600Y71532935D01*
X41249600Y71723065D01*
X41286692Y71909538D01*
X41359450Y72085193D01*
X41465082Y72243282D01*
X41599518Y72377718D01*
X41757607Y72483350D01*
X41933262Y72556108D01*
X42119735Y72593200D01*
X42309865Y72593200D01*
X42496338Y72556108D01*
X42496338Y72556108D01*
G37*
G36*
X40083338Y72556108D02*
G01*
X40258993Y72483350D01*
X40417082Y72377718D01*
X40551518Y72243282D01*
X40657150Y72085193D01*
X40729908Y71909538D01*
X40767000Y71723065D01*
X40767000Y71532935D01*
X40729908Y71346462D01*
X40657150Y71170807D01*
X40551518Y71012718D01*
X40417082Y70878282D01*
X40258993Y70772650D01*
X40083338Y70699892D01*
X39896865Y70662800D01*
X39706735Y70662800D01*
X39520262Y70699892D01*
X39344607Y70772650D01*
X39186518Y70878282D01*
X39052082Y71012718D01*
X38946450Y71170807D01*
X38873692Y71346462D01*
X38836600Y71532935D01*
X38836600Y71723065D01*
X38873692Y71909538D01*
X38946450Y72085193D01*
X39052082Y72243282D01*
X39186518Y72377718D01*
X39344607Y72483350D01*
X39520262Y72556108D01*
X39706735Y72593200D01*
X39896865Y72593200D01*
X40083338Y72556108D01*
X40083338Y72556108D01*
G37*
G36*
X31523538Y72556108D02*
G01*
X31699193Y72483350D01*
X31857282Y72377718D01*
X31991718Y72243282D01*
X32097350Y72085193D01*
X32170108Y71909538D01*
X32207200Y71723065D01*
X32207200Y71532935D01*
X32170108Y71346462D01*
X32097350Y71170807D01*
X31991718Y71012718D01*
X31857282Y70878282D01*
X31699193Y70772650D01*
X31523538Y70699892D01*
X31337065Y70662800D01*
X31146935Y70662800D01*
X30960462Y70699892D01*
X30784807Y70772650D01*
X30626718Y70878282D01*
X30492282Y71012718D01*
X30386650Y71170807D01*
X30313892Y71346462D01*
X30276800Y71532935D01*
X30276800Y71723065D01*
X30313892Y71909538D01*
X30386650Y72085193D01*
X30492282Y72243282D01*
X30626718Y72377718D01*
X30784807Y72483350D01*
X30960462Y72556108D01*
X31146935Y72593200D01*
X31337065Y72593200D01*
X31523538Y72556108D01*
X31523538Y72556108D01*
G37*
G36*
X48405300Y71382000D02*
G01*
X47405300Y71382000D01*
X47405300Y72382000D01*
X48405300Y72382000D01*
X48405300Y71382000D01*
X48405300Y71382000D01*
G37*
G36*
X50105300Y71382000D02*
G01*
X49105300Y71382000D01*
X49105300Y72382000D01*
X50105300Y72382000D01*
X50105300Y71382000D01*
X50105300Y71382000D01*
G37*
G36*
X5981965Y73018867D02*
G01*
X6100982Y72969569D01*
X6208104Y72897992D01*
X6299192Y72806904D01*
X6370769Y72699782D01*
X6420067Y72580765D01*
X6445200Y72454413D01*
X6445200Y72325587D01*
X6420067Y72199235D01*
X6370769Y72080218D01*
X6299192Y71973096D01*
X6208104Y71882008D01*
X6100982Y71810431D01*
X5981965Y71761133D01*
X5855613Y71736000D01*
X5726787Y71736000D01*
X5600435Y71761133D01*
X5481418Y71810431D01*
X5374296Y71882008D01*
X5283208Y71973096D01*
X5211631Y72080218D01*
X5162333Y72199235D01*
X5137200Y72325587D01*
X5137200Y72454413D01*
X5162333Y72580765D01*
X5211631Y72699782D01*
X5283208Y72806904D01*
X5374296Y72897992D01*
X5481418Y72969569D01*
X5600435Y73018867D01*
X5726787Y73044000D01*
X5855613Y73044000D01*
X5981965Y73018867D01*
X5981965Y73018867D01*
G37*
G36*
X2444000Y71890000D02*
G01*
X1444000Y71890000D01*
X1444000Y72890000D01*
X2444000Y72890000D01*
X2444000Y71890000D01*
X2444000Y71890000D01*
G37*
G36*
X4144000Y71890000D02*
G01*
X3144000Y71890000D01*
X3144000Y72890000D01*
X4144000Y72890000D01*
X4144000Y71890000D01*
X4144000Y71890000D01*
G37*
G36*
X57661800Y72702800D02*
G01*
X56661800Y72702800D01*
X56661800Y73702800D01*
X57661800Y73702800D01*
X57661800Y72702800D01*
X57661800Y72702800D01*
G37*
G36*
X55961800Y72702800D02*
G01*
X54961800Y72702800D01*
X54961800Y73702800D01*
X55961800Y73702800D01*
X55961800Y72702800D01*
X55961800Y72702800D01*
G37*
G36*
X28821000Y73058400D02*
G01*
X27821000Y73058400D01*
X27821000Y74058400D01*
X28821000Y74058400D01*
X28821000Y73058400D01*
X28821000Y73058400D01*
G37*
G36*
X3441965Y75558867D02*
G01*
X3560982Y75509569D01*
X3668104Y75437992D01*
X3759192Y75346904D01*
X3830769Y75239782D01*
X3880067Y75120765D01*
X3905200Y74994413D01*
X3905200Y74865587D01*
X3880067Y74739235D01*
X3830769Y74620218D01*
X3759192Y74513096D01*
X3668104Y74422008D01*
X3560982Y74350431D01*
X3441965Y74301133D01*
X3315613Y74276000D01*
X3186787Y74276000D01*
X3060435Y74301133D01*
X2941418Y74350431D01*
X2834296Y74422008D01*
X2743208Y74513096D01*
X2671631Y74620218D01*
X2622333Y74739235D01*
X2597200Y74865587D01*
X2597200Y74994413D01*
X2622333Y75120765D01*
X2671631Y75239782D01*
X2743208Y75346904D01*
X2834296Y75437992D01*
X2941418Y75509569D01*
X3060435Y75558867D01*
X3186787Y75584000D01*
X3315613Y75584000D01*
X3441965Y75558867D01*
X3441965Y75558867D01*
G37*
G36*
X8521965Y75558867D02*
G01*
X8640982Y75509569D01*
X8748104Y75437992D01*
X8839192Y75346904D01*
X8910769Y75239782D01*
X8960067Y75120765D01*
X8985200Y74994413D01*
X8985200Y74865587D01*
X8960067Y74739235D01*
X8910769Y74620218D01*
X8839192Y74513096D01*
X8748104Y74422008D01*
X8640982Y74350431D01*
X8521965Y74301133D01*
X8395613Y74276000D01*
X8266787Y74276000D01*
X8140435Y74301133D01*
X8021418Y74350431D01*
X7914296Y74422008D01*
X7823208Y74513096D01*
X7751631Y74620218D01*
X7702333Y74739235D01*
X7677200Y74865587D01*
X7677200Y74994413D01*
X7702333Y75120765D01*
X7751631Y75239782D01*
X7823208Y75346904D01*
X7914296Y75437992D01*
X8021418Y75509569D01*
X8140435Y75558867D01*
X8266787Y75584000D01*
X8395613Y75584000D01*
X8521965Y75558867D01*
X8521965Y75558867D01*
G37*
G36*
X6342000Y74342000D02*
G01*
X5342000Y74342000D01*
X5342000Y75342000D01*
X6342000Y75342000D01*
X6342000Y74342000D01*
X6342000Y74342000D01*
G37*
G36*
X56063400Y74531600D02*
G01*
X55063400Y74531600D01*
X55063400Y75531600D01*
X56063400Y75531600D01*
X56063400Y74531600D01*
X56063400Y74531600D01*
G37*
G36*
X57763400Y74531600D02*
G01*
X56763400Y74531600D01*
X56763400Y75531600D01*
X57763400Y75531600D01*
X57763400Y74531600D01*
X57763400Y74531600D01*
G37*
G36*
X28821000Y74758400D02*
G01*
X27821000Y74758400D01*
X27821000Y75758400D01*
X28821000Y75758400D01*
X28821000Y74758400D01*
X28821000Y74758400D01*
G37*
G36*
X44975400Y74865000D02*
G01*
X43975400Y74865000D01*
X43975400Y76265000D01*
X44975400Y76265000D01*
X44975400Y74865000D01*
X44975400Y74865000D01*
G37*
G36*
X43075400Y74865000D02*
G01*
X42075400Y74865000D01*
X42075400Y76265000D01*
X43075400Y76265000D01*
X43075400Y74865000D01*
X43075400Y74865000D01*
G37*
G36*
X6342000Y76042000D02*
G01*
X5342000Y76042000D01*
X5342000Y77042000D01*
X6342000Y77042000D01*
X6342000Y76042000D01*
X6342000Y76042000D01*
G37*
G36*
X22912000Y76205100D02*
G01*
X16712000Y76205100D01*
X16712000Y77405100D01*
X22912000Y77405100D01*
X22912000Y76205100D01*
X22912000Y76205100D01*
G37*
G36*
X57939538Y78652108D02*
G01*
X58115193Y78579350D01*
X58273282Y78473718D01*
X58407718Y78339282D01*
X58513350Y78181193D01*
X58586108Y78005538D01*
X58623200Y77819065D01*
X58623200Y77628935D01*
X58586108Y77442462D01*
X58513350Y77266807D01*
X58407718Y77108718D01*
X58273282Y76974282D01*
X58115193Y76868650D01*
X57939538Y76795892D01*
X57753065Y76758800D01*
X57562935Y76758800D01*
X57376462Y76795892D01*
X57200807Y76868650D01*
X57042718Y76974282D01*
X56908282Y77108718D01*
X56802650Y77266807D01*
X56729892Y77442462D01*
X56692800Y77628935D01*
X56692800Y77819065D01*
X56729892Y78005538D01*
X56802650Y78181193D01*
X56908282Y78339282D01*
X57042718Y78473718D01*
X57200807Y78579350D01*
X57376462Y78652108D01*
X57562935Y78689200D01*
X57753065Y78689200D01*
X57939538Y78652108D01*
X57939538Y78652108D01*
G37*
G36*
X46966738Y78652108D02*
G01*
X47142393Y78579350D01*
X47300482Y78473718D01*
X47434918Y78339282D01*
X47540550Y78181193D01*
X47613308Y78005538D01*
X47650400Y77819065D01*
X47650400Y77628935D01*
X47613308Y77442462D01*
X47540550Y77266807D01*
X47434918Y77108718D01*
X47300482Y76974282D01*
X47142393Y76868650D01*
X46966738Y76795892D01*
X46780265Y76758800D01*
X46590135Y76758800D01*
X46403662Y76795892D01*
X46228007Y76868650D01*
X46069918Y76974282D01*
X45935482Y77108718D01*
X45829850Y77266807D01*
X45757092Y77442462D01*
X45720000Y77628935D01*
X45720000Y77819065D01*
X45757092Y78005538D01*
X45829850Y78181193D01*
X45935482Y78339282D01*
X46069918Y78473718D01*
X46228007Y78579350D01*
X46403662Y78652108D01*
X46590135Y78689200D01*
X46780265Y78689200D01*
X46966738Y78652108D01*
X46966738Y78652108D01*
G37*
G36*
X49379738Y78652108D02*
G01*
X49555393Y78579350D01*
X49713482Y78473718D01*
X49847918Y78339282D01*
X49953550Y78181193D01*
X50026308Y78005538D01*
X50063400Y77819065D01*
X50063400Y77628935D01*
X50026308Y77442462D01*
X49953550Y77266807D01*
X49847918Y77108718D01*
X49713482Y76974282D01*
X49555393Y76868650D01*
X49379738Y76795892D01*
X49193265Y76758800D01*
X49003135Y76758800D01*
X48816662Y76795892D01*
X48641007Y76868650D01*
X48482918Y76974282D01*
X48348482Y77108718D01*
X48242850Y77266807D01*
X48170092Y77442462D01*
X48133000Y77628935D01*
X48133000Y77819065D01*
X48170092Y78005538D01*
X48242850Y78181193D01*
X48348482Y78339282D01*
X48482918Y78473718D01*
X48641007Y78579350D01*
X48816662Y78652108D01*
X49003135Y78689200D01*
X49193265Y78689200D01*
X49379738Y78652108D01*
X49379738Y78652108D01*
G37*
G36*
X8521965Y78098867D02*
G01*
X8640982Y78049569D01*
X8748104Y77977992D01*
X8839192Y77886904D01*
X8839194Y77886901D01*
X8839195Y77886900D01*
X8890845Y77809600D01*
X8910769Y77779782D01*
X8960067Y77660765D01*
X8985200Y77534413D01*
X8985200Y77405587D01*
X8960067Y77279235D01*
X8910769Y77160218D01*
X8910767Y77160215D01*
X8862561Y77088069D01*
X8839192Y77053096D01*
X8748104Y76962008D01*
X8748101Y76962006D01*
X8748100Y76962005D01*
X8640985Y76890433D01*
X8640982Y76890431D01*
X8521965Y76841133D01*
X8395613Y76816000D01*
X8266787Y76816000D01*
X8140435Y76841133D01*
X8021418Y76890431D01*
X8021415Y76890433D01*
X7914300Y76962005D01*
X7914299Y76962006D01*
X7914296Y76962008D01*
X7823208Y77053096D01*
X7799840Y77088069D01*
X7751633Y77160215D01*
X7751631Y77160218D01*
X7702333Y77279235D01*
X7677200Y77405587D01*
X7677200Y77534413D01*
X7702333Y77660765D01*
X7751631Y77779782D01*
X7771555Y77809600D01*
X7823205Y77886900D01*
X7823206Y77886901D01*
X7823208Y77886904D01*
X7914296Y77977992D01*
X8021418Y78049569D01*
X8140435Y78098867D01*
X8266787Y78124000D01*
X8395613Y78124000D01*
X8521965Y78098867D01*
X8521965Y78098867D01*
G37*
G36*
X3441965Y78098867D02*
G01*
X3560982Y78049569D01*
X3668104Y77977992D01*
X3759192Y77886904D01*
X3759194Y77886901D01*
X3759195Y77886900D01*
X3810845Y77809600D01*
X3830769Y77779782D01*
X3880067Y77660765D01*
X3905200Y77534413D01*
X3905200Y77405587D01*
X3880067Y77279235D01*
X3830769Y77160218D01*
X3830767Y77160215D01*
X3782561Y77088069D01*
X3759192Y77053096D01*
X3668104Y76962008D01*
X3668101Y76962006D01*
X3668100Y76962005D01*
X3560985Y76890433D01*
X3560982Y76890431D01*
X3441965Y76841133D01*
X3315613Y76816000D01*
X3186787Y76816000D01*
X3060435Y76841133D01*
X2941418Y76890431D01*
X2941415Y76890433D01*
X2834300Y76962005D01*
X2834299Y76962006D01*
X2834296Y76962008D01*
X2743208Y77053096D01*
X2719840Y77088069D01*
X2671633Y77160215D01*
X2671631Y77160218D01*
X2622333Y77279235D01*
X2597200Y77405587D01*
X2597200Y77534413D01*
X2622333Y77660765D01*
X2671631Y77779782D01*
X2691555Y77809600D01*
X2743205Y77886900D01*
X2743206Y77886901D01*
X2743208Y77886904D01*
X2834296Y77977992D01*
X2941418Y78049569D01*
X3060435Y78098867D01*
X3186787Y78124000D01*
X3315613Y78124000D01*
X3441965Y78098867D01*
X3441965Y78098867D01*
G37*
G36*
X32683800Y76946000D02*
G01*
X30956600Y76946000D01*
X30956600Y78673200D01*
X32683800Y78673200D01*
X32683800Y76946000D01*
X32683800Y76946000D01*
G37*
G36*
X34444912Y78669035D02*
G01*
X34529495Y78660704D01*
X34649927Y78624171D01*
X34692288Y78611321D01*
X34842312Y78531132D01*
X34973812Y78423212D01*
X35081732Y78291712D01*
X35161921Y78141688D01*
X35174771Y78099327D01*
X35211304Y77978895D01*
X35227978Y77809600D01*
X35211304Y77640305D01*
X35179182Y77534413D01*
X35161921Y77477512D01*
X35081732Y77327488D01*
X34973812Y77195988D01*
X34842312Y77088068D01*
X34692288Y77007879D01*
X34649927Y76995029D01*
X34529495Y76958496D01*
X34444912Y76950165D01*
X34402621Y76946000D01*
X34317779Y76946000D01*
X34275488Y76950165D01*
X34190905Y76958496D01*
X34070473Y76995029D01*
X34028112Y77007879D01*
X33878088Y77088068D01*
X33746588Y77195988D01*
X33638668Y77327488D01*
X33558479Y77477512D01*
X33541218Y77534413D01*
X33509096Y77640305D01*
X33492422Y77809600D01*
X33509096Y77978895D01*
X33545629Y78099327D01*
X33558479Y78141688D01*
X33638668Y78291712D01*
X33746588Y78423212D01*
X33878088Y78531132D01*
X34028112Y78611321D01*
X34070473Y78624171D01*
X34190905Y78660704D01*
X34275488Y78669035D01*
X34317779Y78673200D01*
X34402621Y78673200D01*
X34444912Y78669035D01*
X34444912Y78669035D01*
G37*
G36*
X39524912Y78669035D02*
G01*
X39609495Y78660704D01*
X39729927Y78624171D01*
X39772288Y78611321D01*
X39922312Y78531132D01*
X40053812Y78423212D01*
X40161732Y78291712D01*
X40241921Y78141688D01*
X40254771Y78099327D01*
X40291304Y77978895D01*
X40307978Y77809600D01*
X40291304Y77640305D01*
X40259182Y77534413D01*
X40241921Y77477512D01*
X40161732Y77327488D01*
X40053812Y77195988D01*
X39922312Y77088068D01*
X39772288Y77007879D01*
X39729927Y76995029D01*
X39609495Y76958496D01*
X39524912Y76950165D01*
X39482621Y76946000D01*
X39397779Y76946000D01*
X39355488Y76950165D01*
X39270905Y76958496D01*
X39150473Y76995029D01*
X39108112Y77007879D01*
X38958088Y77088068D01*
X38826588Y77195988D01*
X38718668Y77327488D01*
X38638479Y77477512D01*
X38621218Y77534413D01*
X38589096Y77640305D01*
X38572422Y77809600D01*
X38589096Y77978895D01*
X38625629Y78099327D01*
X38638479Y78141688D01*
X38718668Y78291712D01*
X38826588Y78423212D01*
X38958088Y78531132D01*
X39108112Y78611321D01*
X39150473Y78624171D01*
X39270905Y78660704D01*
X39355488Y78669035D01*
X39397779Y78673200D01*
X39482621Y78673200D01*
X39524912Y78669035D01*
X39524912Y78669035D01*
G37*
G36*
X36984912Y78669035D02*
G01*
X37069495Y78660704D01*
X37189927Y78624171D01*
X37232288Y78611321D01*
X37382312Y78531132D01*
X37513812Y78423212D01*
X37621732Y78291712D01*
X37701921Y78141688D01*
X37714771Y78099327D01*
X37751304Y77978895D01*
X37767978Y77809600D01*
X37751304Y77640305D01*
X37719182Y77534413D01*
X37701921Y77477512D01*
X37621732Y77327488D01*
X37513812Y77195988D01*
X37382312Y77088068D01*
X37232288Y77007879D01*
X37189927Y76995029D01*
X37069495Y76958496D01*
X36984912Y76950165D01*
X36942621Y76946000D01*
X36857779Y76946000D01*
X36815488Y76950165D01*
X36730905Y76958496D01*
X36610473Y76995029D01*
X36568112Y77007879D01*
X36418088Y77088068D01*
X36286588Y77195988D01*
X36178668Y77327488D01*
X36098479Y77477512D01*
X36081218Y77534413D01*
X36049096Y77640305D01*
X36032422Y77809600D01*
X36049096Y77978895D01*
X36085629Y78099327D01*
X36098479Y78141688D01*
X36178668Y78291712D01*
X36286588Y78423212D01*
X36418088Y78531132D01*
X36568112Y78611321D01*
X36610473Y78624171D01*
X36730905Y78660704D01*
X36815488Y78669035D01*
X36857779Y78673200D01*
X36942621Y78673200D01*
X36984912Y78669035D01*
X36984912Y78669035D01*
G37*
G36*
X44025400Y77065000D02*
G01*
X43025400Y77065000D01*
X43025400Y78465000D01*
X44025400Y78465000D01*
X44025400Y77065000D01*
X44025400Y77065000D01*
G37*
G36*
X52874800Y77135100D02*
G01*
X51874800Y77135100D01*
X51874800Y78135100D01*
X52874800Y78135100D01*
X52874800Y77135100D01*
X52874800Y77135100D01*
G37*
G36*
X54574800Y77135100D02*
G01*
X53574800Y77135100D01*
X53574800Y78135100D01*
X54574800Y78135100D01*
X54574800Y77135100D01*
X54574800Y77135100D01*
G37*
G36*
X6469000Y78025000D02*
G01*
X5469000Y78025000D01*
X5469000Y79025000D01*
X6469000Y79025000D01*
X6469000Y78025000D01*
X6469000Y78025000D01*
G37*
G36*
X15979500Y78049500D02*
G01*
X14979500Y78049500D01*
X14979500Y79049500D01*
X15979500Y79049500D01*
X15979500Y78049500D01*
X15979500Y78049500D01*
G37*
G36*
X14279500Y78049500D02*
G01*
X13279500Y78049500D01*
X13279500Y79049500D01*
X14279500Y79049500D01*
X14279500Y78049500D01*
X14279500Y78049500D01*
G37*
G36*
X8521965Y80638867D02*
G01*
X8640982Y80589569D01*
X8640985Y80589567D01*
X8739712Y80523600D01*
X8748104Y80517992D01*
X8839192Y80426904D01*
X8910769Y80319782D01*
X8960067Y80200765D01*
X8985200Y80074413D01*
X8985200Y79945587D01*
X8960067Y79819235D01*
X8910769Y79700218D01*
X8910767Y79700215D01*
X8862561Y79628069D01*
X8839192Y79593096D01*
X8748104Y79502008D01*
X8748101Y79502006D01*
X8748100Y79502005D01*
X8640985Y79430433D01*
X8640982Y79430431D01*
X8521965Y79381133D01*
X8395613Y79356000D01*
X8266787Y79356000D01*
X8140435Y79381133D01*
X8021418Y79430431D01*
X8021415Y79430433D01*
X7914300Y79502005D01*
X7914299Y79502006D01*
X7914296Y79502008D01*
X7823208Y79593096D01*
X7799840Y79628069D01*
X7751633Y79700215D01*
X7751631Y79700218D01*
X7702333Y79819235D01*
X7677200Y79945587D01*
X7677200Y80074413D01*
X7702333Y80200765D01*
X7751631Y80319782D01*
X7823208Y80426904D01*
X7914296Y80517992D01*
X7922689Y80523600D01*
X8021415Y80589567D01*
X8021418Y80589569D01*
X8140435Y80638867D01*
X8266787Y80664000D01*
X8395613Y80664000D01*
X8521965Y80638867D01*
X8521965Y80638867D01*
G37*
G36*
X3441965Y80638867D02*
G01*
X3560982Y80589569D01*
X3560985Y80589567D01*
X3659712Y80523600D01*
X3668104Y80517992D01*
X3759192Y80426904D01*
X3830769Y80319782D01*
X3880067Y80200765D01*
X3905200Y80074413D01*
X3905200Y79945587D01*
X3880067Y79819235D01*
X3830769Y79700218D01*
X3830767Y79700215D01*
X3782561Y79628069D01*
X3759192Y79593096D01*
X3668104Y79502008D01*
X3668101Y79502006D01*
X3668100Y79502005D01*
X3560985Y79430433D01*
X3560982Y79430431D01*
X3441965Y79381133D01*
X3315613Y79356000D01*
X3186787Y79356000D01*
X3060435Y79381133D01*
X2941418Y79430431D01*
X2941415Y79430433D01*
X2834300Y79502005D01*
X2834299Y79502006D01*
X2834296Y79502008D01*
X2743208Y79593096D01*
X2719840Y79628069D01*
X2671633Y79700215D01*
X2671631Y79700218D01*
X2622333Y79819235D01*
X2597200Y79945587D01*
X2597200Y80074413D01*
X2622333Y80200765D01*
X2671631Y80319782D01*
X2743208Y80426904D01*
X2834296Y80517992D01*
X2842689Y80523600D01*
X2941415Y80589567D01*
X2941418Y80589569D01*
X3060435Y80638867D01*
X3186787Y80664000D01*
X3315613Y80664000D01*
X3441965Y80638867D01*
X3441965Y80638867D01*
G37*
G36*
X34444912Y81209035D02*
G01*
X34529495Y81200704D01*
X34649927Y81164171D01*
X34692288Y81151321D01*
X34842312Y81071132D01*
X34973812Y80963212D01*
X35081732Y80831712D01*
X35161921Y80681688D01*
X35174771Y80639327D01*
X35211304Y80518895D01*
X35227978Y80349600D01*
X35211304Y80180305D01*
X35179182Y80074413D01*
X35161921Y80017512D01*
X35081732Y79867488D01*
X34973812Y79735988D01*
X34842312Y79628068D01*
X34692288Y79547879D01*
X34649927Y79535029D01*
X34529495Y79498496D01*
X34444912Y79490165D01*
X34402621Y79486000D01*
X34317779Y79486000D01*
X34275488Y79490165D01*
X34190905Y79498496D01*
X34070473Y79535029D01*
X34028112Y79547879D01*
X33878088Y79628068D01*
X33746588Y79735988D01*
X33638668Y79867488D01*
X33558479Y80017512D01*
X33541218Y80074413D01*
X33509096Y80180305D01*
X33492422Y80349600D01*
X33509096Y80518895D01*
X33545629Y80639327D01*
X33558479Y80681688D01*
X33638668Y80831712D01*
X33746588Y80963212D01*
X33878088Y81071132D01*
X34028112Y81151321D01*
X34070473Y81164171D01*
X34190905Y81200704D01*
X34275488Y81209035D01*
X34317779Y81213200D01*
X34402621Y81213200D01*
X34444912Y81209035D01*
X34444912Y81209035D01*
G37*
G36*
X39524912Y81209035D02*
G01*
X39609495Y81200704D01*
X39729927Y81164171D01*
X39772288Y81151321D01*
X39922312Y81071132D01*
X40053812Y80963212D01*
X40161732Y80831712D01*
X40241921Y80681688D01*
X40254771Y80639327D01*
X40291304Y80518895D01*
X40307978Y80349600D01*
X40291304Y80180305D01*
X40259182Y80074413D01*
X40241921Y80017512D01*
X40161732Y79867488D01*
X40053812Y79735988D01*
X39922312Y79628068D01*
X39772288Y79547879D01*
X39729927Y79535029D01*
X39609495Y79498496D01*
X39524912Y79490165D01*
X39482621Y79486000D01*
X39397779Y79486000D01*
X39355488Y79490165D01*
X39270905Y79498496D01*
X39150473Y79535029D01*
X39108112Y79547879D01*
X38958088Y79628068D01*
X38826588Y79735988D01*
X38718668Y79867488D01*
X38638479Y80017512D01*
X38621218Y80074413D01*
X38589096Y80180305D01*
X38572422Y80349600D01*
X38589096Y80518895D01*
X38625629Y80639327D01*
X38638479Y80681688D01*
X38718668Y80831712D01*
X38826588Y80963212D01*
X38958088Y81071132D01*
X39108112Y81151321D01*
X39150473Y81164171D01*
X39270905Y81200704D01*
X39355488Y81209035D01*
X39397779Y81213200D01*
X39482621Y81213200D01*
X39524912Y81209035D01*
X39524912Y81209035D01*
G37*
G36*
X31904912Y81209035D02*
G01*
X31989495Y81200704D01*
X32109927Y81164171D01*
X32152288Y81151321D01*
X32302312Y81071132D01*
X32433812Y80963212D01*
X32541732Y80831712D01*
X32621921Y80681688D01*
X32634771Y80639327D01*
X32671304Y80518895D01*
X32687978Y80349600D01*
X32671304Y80180305D01*
X32639182Y80074413D01*
X32621921Y80017512D01*
X32541732Y79867488D01*
X32433812Y79735988D01*
X32302312Y79628068D01*
X32152288Y79547879D01*
X32109927Y79535029D01*
X31989495Y79498496D01*
X31904912Y79490165D01*
X31862621Y79486000D01*
X31777779Y79486000D01*
X31735488Y79490165D01*
X31650905Y79498496D01*
X31530473Y79535029D01*
X31488112Y79547879D01*
X31338088Y79628068D01*
X31206588Y79735988D01*
X31098668Y79867488D01*
X31018479Y80017512D01*
X31001218Y80074413D01*
X30969096Y80180305D01*
X30952422Y80349600D01*
X30969096Y80518895D01*
X31005629Y80639327D01*
X31018479Y80681688D01*
X31098668Y80831712D01*
X31206588Y80963212D01*
X31338088Y81071132D01*
X31488112Y81151321D01*
X31530473Y81164171D01*
X31650905Y81200704D01*
X31735488Y81209035D01*
X31777779Y81213200D01*
X31862621Y81213200D01*
X31904912Y81209035D01*
X31904912Y81209035D01*
G37*
G36*
X36984912Y81209035D02*
G01*
X37069495Y81200704D01*
X37189927Y81164171D01*
X37232288Y81151321D01*
X37382312Y81071132D01*
X37513812Y80963212D01*
X37621732Y80831712D01*
X37701921Y80681688D01*
X37714771Y80639327D01*
X37751304Y80518895D01*
X37767978Y80349600D01*
X37751304Y80180305D01*
X37719182Y80074413D01*
X37701921Y80017512D01*
X37621732Y79867488D01*
X37513812Y79735988D01*
X37382312Y79628068D01*
X37232288Y79547879D01*
X37189927Y79535029D01*
X37069495Y79498496D01*
X36984912Y79490165D01*
X36942621Y79486000D01*
X36857779Y79486000D01*
X36815488Y79490165D01*
X36730905Y79498496D01*
X36610473Y79535029D01*
X36568112Y79547879D01*
X36418088Y79628068D01*
X36286588Y79735988D01*
X36178668Y79867488D01*
X36098479Y80017512D01*
X36081218Y80074413D01*
X36049096Y80180305D01*
X36032422Y80349600D01*
X36049096Y80518895D01*
X36085629Y80639327D01*
X36098479Y80681688D01*
X36178668Y80831712D01*
X36286588Y80963212D01*
X36418088Y81071132D01*
X36568112Y81151321D01*
X36610473Y81164171D01*
X36730905Y81200704D01*
X36815488Y81209035D01*
X36857779Y81213200D01*
X36942621Y81213200D01*
X36984912Y81209035D01*
X36984912Y81209035D01*
G37*
G36*
X43883200Y79523600D02*
G01*
X42883200Y79523600D01*
X42883200Y80523600D01*
X43883200Y80523600D01*
X43883200Y79523600D01*
X43883200Y79523600D01*
G37*
G36*
X6469000Y79725000D02*
G01*
X5469000Y79725000D01*
X5469000Y80725000D01*
X6469000Y80725000D01*
X6469000Y79725000D01*
X6469000Y79725000D01*
G37*
G36*
X57853200Y80807200D02*
G01*
X56853200Y80807200D01*
X56853200Y81807200D01*
X57853200Y81807200D01*
X57853200Y80807200D01*
X57853200Y80807200D01*
G37*
G36*
X55973600Y80807200D02*
G01*
X54973600Y80807200D01*
X54973600Y81807200D01*
X55973600Y81807200D01*
X55973600Y80807200D01*
X55973600Y80807200D01*
G37*
G36*
X21607020Y83235800D02*
G01*
X21733895Y83223304D01*
X21854327Y83186771D01*
X21896688Y83173921D01*
X22046712Y83093732D01*
X22178212Y82985812D01*
X22286132Y82854312D01*
X22366321Y82704288D01*
X22366322Y82704284D01*
X22415704Y82541494D01*
X22428200Y82414619D01*
X22428200Y82024980D01*
X22415704Y81898105D01*
X22415065Y81896000D01*
X22366321Y81735312D01*
X22286132Y81585288D01*
X22178212Y81453788D01*
X22046712Y81345868D01*
X21896687Y81265679D01*
X21854326Y81252829D01*
X21733894Y81216296D01*
X21564600Y81199622D01*
X21564599Y81199622D01*
X21508168Y81205180D01*
X21395305Y81216296D01*
X21274873Y81252829D01*
X21232512Y81265679D01*
X21082488Y81345868D01*
X20950988Y81453788D01*
X20843068Y81585288D01*
X20762879Y81735313D01*
X20714135Y81896000D01*
X20713496Y81898106D01*
X20701000Y82024981D01*
X20701000Y82414620D01*
X20713496Y82541495D01*
X20762878Y82704284D01*
X20762879Y82704288D01*
X20843067Y82854309D01*
X20843069Y82854312D01*
X20950988Y82985812D01*
X20992546Y83019917D01*
X21082489Y83093732D01*
X21232513Y83173921D01*
X21274874Y83186771D01*
X21395306Y83223304D01*
X21564600Y83239978D01*
X21564601Y83239978D01*
X21607020Y83235800D01*
X21607020Y83235800D01*
G37*
G36*
X19067020Y83235800D02*
G01*
X19193895Y83223304D01*
X19314327Y83186771D01*
X19356688Y83173921D01*
X19506712Y83093732D01*
X19638212Y82985812D01*
X19746132Y82854312D01*
X19826321Y82704288D01*
X19826322Y82704284D01*
X19875704Y82541494D01*
X19888200Y82414619D01*
X19888200Y82024980D01*
X19875704Y81898105D01*
X19875065Y81896000D01*
X19826321Y81735312D01*
X19746132Y81585288D01*
X19638212Y81453788D01*
X19506712Y81345868D01*
X19356687Y81265679D01*
X19314326Y81252829D01*
X19193894Y81216296D01*
X19024600Y81199622D01*
X19024599Y81199622D01*
X18968168Y81205180D01*
X18855305Y81216296D01*
X18734873Y81252829D01*
X18692512Y81265679D01*
X18542488Y81345868D01*
X18410988Y81453788D01*
X18303068Y81585288D01*
X18222879Y81735313D01*
X18174135Y81896000D01*
X18173496Y81898106D01*
X18161000Y82024981D01*
X18161000Y82414620D01*
X18173496Y82541495D01*
X18222878Y82704284D01*
X18222879Y82704288D01*
X18303067Y82854309D01*
X18303069Y82854312D01*
X18410988Y82985812D01*
X18452546Y83019917D01*
X18542489Y83093732D01*
X18692513Y83173921D01*
X18734874Y83186771D01*
X18855306Y83223304D01*
X19024600Y83239978D01*
X19024601Y83239978D01*
X19067020Y83235800D01*
X19067020Y83235800D01*
G37*
G36*
X16527020Y83235800D02*
G01*
X16653895Y83223304D01*
X16774327Y83186771D01*
X16816688Y83173921D01*
X16966712Y83093732D01*
X17098212Y82985812D01*
X17206132Y82854312D01*
X17286321Y82704288D01*
X17286322Y82704284D01*
X17335704Y82541494D01*
X17348200Y82414619D01*
X17348200Y82024980D01*
X17335704Y81898105D01*
X17335065Y81896000D01*
X17286321Y81735312D01*
X17206132Y81585288D01*
X17098212Y81453788D01*
X16966712Y81345868D01*
X16816687Y81265679D01*
X16774326Y81252829D01*
X16653894Y81216296D01*
X16484600Y81199622D01*
X16484599Y81199622D01*
X16428168Y81205180D01*
X16315305Y81216296D01*
X16194873Y81252829D01*
X16152512Y81265679D01*
X16002488Y81345868D01*
X15870988Y81453788D01*
X15763068Y81585288D01*
X15682879Y81735313D01*
X15634135Y81896000D01*
X15633496Y81898106D01*
X15621000Y82024981D01*
X15621000Y82414620D01*
X15633496Y82541495D01*
X15682878Y82704284D01*
X15682879Y82704288D01*
X15763067Y82854309D01*
X15763069Y82854312D01*
X15870988Y82985812D01*
X15912546Y83019917D01*
X16002489Y83093732D01*
X16152513Y83173921D01*
X16194874Y83186771D01*
X16315306Y83223304D01*
X16484600Y83239978D01*
X16484601Y83239978D01*
X16527020Y83235800D01*
X16527020Y83235800D01*
G37*
G36*
X13987020Y83235800D02*
G01*
X14113895Y83223304D01*
X14234327Y83186771D01*
X14276688Y83173921D01*
X14426712Y83093732D01*
X14558212Y82985812D01*
X14666132Y82854312D01*
X14746321Y82704288D01*
X14746322Y82704284D01*
X14795704Y82541494D01*
X14808200Y82414619D01*
X14808200Y82024980D01*
X14795704Y81898105D01*
X14795065Y81896000D01*
X14746321Y81735312D01*
X14666132Y81585288D01*
X14558212Y81453788D01*
X14426712Y81345868D01*
X14276687Y81265679D01*
X14234326Y81252829D01*
X14113894Y81216296D01*
X13944600Y81199622D01*
X13944599Y81199622D01*
X13888168Y81205180D01*
X13775305Y81216296D01*
X13654873Y81252829D01*
X13612512Y81265679D01*
X13462488Y81345868D01*
X13330988Y81453788D01*
X13223068Y81585288D01*
X13142879Y81735313D01*
X13094135Y81896000D01*
X13093496Y81898106D01*
X13081000Y82024981D01*
X13081000Y82414620D01*
X13093496Y82541495D01*
X13142878Y82704284D01*
X13142879Y82704288D01*
X13223067Y82854309D01*
X13223069Y82854312D01*
X13330988Y82985812D01*
X13372546Y83019917D01*
X13462489Y83093732D01*
X13612513Y83173921D01*
X13654874Y83186771D01*
X13775306Y83223304D01*
X13944600Y83239978D01*
X13944601Y83239978D01*
X13987020Y83235800D01*
X13987020Y83235800D01*
G37*
G36*
X11447020Y83235800D02*
G01*
X11573895Y83223304D01*
X11694327Y83186771D01*
X11736688Y83173921D01*
X11886712Y83093732D01*
X12018212Y82985812D01*
X12126132Y82854312D01*
X12206321Y82704288D01*
X12206322Y82704284D01*
X12255704Y82541494D01*
X12268200Y82414619D01*
X12268200Y82024980D01*
X12255704Y81898105D01*
X12255065Y81896000D01*
X12206321Y81735312D01*
X12126132Y81585288D01*
X12018212Y81453788D01*
X11886712Y81345868D01*
X11736687Y81265679D01*
X11694326Y81252829D01*
X11573894Y81216296D01*
X11404600Y81199622D01*
X11404599Y81199622D01*
X11348168Y81205180D01*
X11235305Y81216296D01*
X11114873Y81252829D01*
X11072512Y81265679D01*
X10922488Y81345868D01*
X10790988Y81453788D01*
X10683068Y81585288D01*
X10602879Y81735313D01*
X10554135Y81896000D01*
X10553496Y81898106D01*
X10541000Y82024981D01*
X10541000Y82414620D01*
X10553496Y82541495D01*
X10602878Y82704284D01*
X10602879Y82704288D01*
X10683067Y82854309D01*
X10683069Y82854312D01*
X10790988Y82985812D01*
X10832546Y83019917D01*
X10922489Y83093732D01*
X11072513Y83173921D01*
X11114874Y83186771D01*
X11235306Y83223304D01*
X11404600Y83239978D01*
X11404601Y83239978D01*
X11447020Y83235800D01*
X11447020Y83235800D01*
G37*
G36*
X24968200Y81203800D02*
G01*
X23241000Y81203800D01*
X23241000Y83235800D01*
X24968200Y83235800D01*
X24968200Y81203800D01*
X24968200Y81203800D01*
G37*
G36*
X43883200Y81223600D02*
G01*
X42883200Y81223600D01*
X42883200Y82223600D01*
X43883200Y82223600D01*
X43883200Y81223600D01*
X43883200Y81223600D01*
G37*
G36*
X45940600Y81250800D02*
G01*
X44940600Y81250800D01*
X44940600Y82250800D01*
X45940600Y82250800D01*
X45940600Y81250800D01*
X45940600Y81250800D01*
G37*
G36*
X54170200Y81324600D02*
G01*
X52720200Y81324600D01*
X52720200Y83724600D01*
X54170200Y83724600D01*
X54170200Y81324600D01*
X54170200Y81324600D01*
G37*
G36*
X48270200Y81324600D02*
G01*
X46820200Y81324600D01*
X46820200Y83724600D01*
X48270200Y83724600D01*
X48270200Y81324600D01*
X48270200Y81324600D01*
G37*
G36*
X6445200Y81896000D02*
G01*
X5137200Y81896000D01*
X5137200Y83204000D01*
X6445200Y83204000D01*
X6445200Y81896000D01*
X6445200Y81896000D01*
G37*
G36*
X55973600Y82507200D02*
G01*
X54973600Y82507200D01*
X54973600Y83507200D01*
X55973600Y83507200D01*
X55973600Y82507200D01*
X55973600Y82507200D01*
G37*
G36*
X57853200Y82507200D02*
G01*
X56853200Y82507200D01*
X56853200Y83507200D01*
X57853200Y83507200D01*
X57853200Y82507200D01*
X57853200Y82507200D01*
G37*
G36*
X45940600Y82950800D02*
G01*
X44940600Y82950800D01*
X44940600Y83950800D01*
X45940600Y83950800D01*
X45940600Y82950800D01*
X45940600Y82950800D01*
G37*
G36*
X34194000Y84031200D02*
G01*
X33194000Y84031200D01*
X33194000Y85031200D01*
X34194000Y85031200D01*
X34194000Y84031200D01*
X34194000Y84031200D01*
G37*
G36*
X35894000Y84031200D02*
G01*
X34894000Y84031200D01*
X34894000Y85031200D01*
X35894000Y85031200D01*
X35894000Y84031200D01*
X35894000Y84031200D01*
G37*
G36*
X15526401Y86443075D02*
G01*
X15734413Y86356914D01*
X15921623Y86231824D01*
X16080824Y86072623D01*
X16205914Y85885413D01*
X16292075Y85677401D01*
X16336000Y85456576D01*
X16336000Y85231424D01*
X16292075Y85010599D01*
X16205914Y84802587D01*
X16080824Y84615377D01*
X15921623Y84456176D01*
X15734413Y84331086D01*
X15526401Y84244925D01*
X15305576Y84201000D01*
X15080424Y84201000D01*
X14859599Y84244925D01*
X14651587Y84331086D01*
X14464377Y84456176D01*
X14305176Y84615377D01*
X14180086Y84802587D01*
X14093925Y85010599D01*
X14050000Y85231424D01*
X14050000Y85456576D01*
X14093925Y85677401D01*
X14180086Y85885413D01*
X14305176Y86072623D01*
X14464377Y86231824D01*
X14651587Y86356914D01*
X14859599Y86443075D01*
X15080424Y86487000D01*
X15305576Y86487000D01*
X15526401Y86443075D01*
X15526401Y86443075D01*
G37*
G36*
X25526401Y86443075D02*
G01*
X25734413Y86356914D01*
X25921623Y86231824D01*
X26080824Y86072623D01*
X26205914Y85885413D01*
X26292075Y85677401D01*
X26336000Y85456576D01*
X26336000Y85231424D01*
X26292075Y85010599D01*
X26205914Y84802587D01*
X26080824Y84615377D01*
X25921623Y84456176D01*
X25734413Y84331086D01*
X25526401Y84244925D01*
X25305576Y84201000D01*
X25080424Y84201000D01*
X24859599Y84244925D01*
X24651587Y84331086D01*
X24464377Y84456176D01*
X24305176Y84615377D01*
X24180086Y84802587D01*
X24093925Y85010599D01*
X24050000Y85231424D01*
X24050000Y85456576D01*
X24093925Y85677401D01*
X24180086Y85885413D01*
X24305176Y86072623D01*
X24464377Y86231824D01*
X24651587Y86356914D01*
X24859599Y86443075D01*
X25080424Y86487000D01*
X25305576Y86487000D01*
X25526401Y86443075D01*
X25526401Y86443075D01*
G37*
G36*
X20526401Y86443075D02*
G01*
X20734413Y86356914D01*
X20921623Y86231824D01*
X21080824Y86072623D01*
X21205914Y85885413D01*
X21292075Y85677401D01*
X21336000Y85456576D01*
X21336000Y85231424D01*
X21292075Y85010599D01*
X21205914Y84802587D01*
X21080824Y84615377D01*
X20921623Y84456176D01*
X20734413Y84331086D01*
X20526401Y84244925D01*
X20305576Y84201000D01*
X20080424Y84201000D01*
X19859599Y84244925D01*
X19651587Y84331086D01*
X19464377Y84456176D01*
X19305176Y84615377D01*
X19180086Y84802587D01*
X19093925Y85010599D01*
X19050000Y85231424D01*
X19050000Y85456576D01*
X19093925Y85677401D01*
X19180086Y85885413D01*
X19305176Y86072623D01*
X19464377Y86231824D01*
X19651587Y86356914D01*
X19859599Y86443075D01*
X20080424Y86487000D01*
X20305576Y86487000D01*
X20526401Y86443075D01*
X20526401Y86443075D01*
G37*
G36*
X5981965Y86328467D02*
G01*
X6100982Y86279169D01*
X6100985Y86279167D01*
X6171839Y86231824D01*
X6208104Y86207592D01*
X6299192Y86116504D01*
X6299194Y86116501D01*
X6299195Y86116500D01*
X6328515Y86072620D01*
X6370769Y86009382D01*
X6420067Y85890365D01*
X6445200Y85764013D01*
X6445200Y85635187D01*
X6420067Y85508835D01*
X6370769Y85389818D01*
X6299192Y85282696D01*
X6208104Y85191608D01*
X6100982Y85120031D01*
X5981965Y85070733D01*
X5855613Y85045600D01*
X5726787Y85045600D01*
X5600435Y85070733D01*
X5481418Y85120031D01*
X5374296Y85191608D01*
X5283208Y85282696D01*
X5211631Y85389818D01*
X5162333Y85508835D01*
X5137200Y85635187D01*
X5137200Y85764013D01*
X5162333Y85890365D01*
X5211631Y86009382D01*
X5253885Y86072620D01*
X5283205Y86116500D01*
X5283206Y86116501D01*
X5283208Y86116504D01*
X5374296Y86207592D01*
X5410562Y86231824D01*
X5481415Y86279167D01*
X5481418Y86279169D01*
X5600435Y86328467D01*
X5726787Y86353600D01*
X5855613Y86353600D01*
X5981965Y86328467D01*
X5981965Y86328467D01*
G37*
G36*
X42496338Y87034108D02*
G01*
X42671993Y86961350D01*
X42830082Y86855718D01*
X42964518Y86721282D01*
X43070150Y86563193D01*
X43142908Y86387538D01*
X43180000Y86201065D01*
X43180000Y86010935D01*
X43142908Y85824462D01*
X43070150Y85648807D01*
X42964518Y85490718D01*
X42830082Y85356282D01*
X42671993Y85250650D01*
X42496338Y85177892D01*
X42309865Y85140800D01*
X42119735Y85140800D01*
X41933262Y85177892D01*
X41757607Y85250650D01*
X41599518Y85356282D01*
X41465082Y85490718D01*
X41359450Y85648807D01*
X41286692Y85824462D01*
X41249600Y86010935D01*
X41249600Y86201065D01*
X41286692Y86387538D01*
X41359450Y86563193D01*
X41465082Y86721282D01*
X41599518Y86855718D01*
X41757607Y86961350D01*
X41933262Y87034108D01*
X42119735Y87071200D01*
X42309865Y87071200D01*
X42496338Y87034108D01*
X42496338Y87034108D01*
G37*
G36*
X31523538Y87034108D02*
G01*
X31699193Y86961350D01*
X31857282Y86855718D01*
X31991718Y86721282D01*
X32097350Y86563193D01*
X32170108Y86387538D01*
X32207200Y86201065D01*
X32207200Y86010935D01*
X32170108Y85824462D01*
X32097350Y85648807D01*
X31991718Y85490718D01*
X31857282Y85356282D01*
X31699193Y85250650D01*
X31523538Y85177892D01*
X31337065Y85140800D01*
X31146935Y85140800D01*
X30960462Y85177892D01*
X30784807Y85250650D01*
X30626718Y85356282D01*
X30492282Y85490718D01*
X30386650Y85648807D01*
X30313892Y85824462D01*
X30276800Y86010935D01*
X30276800Y86201065D01*
X30313892Y86387538D01*
X30386650Y86563193D01*
X30492282Y86721282D01*
X30626718Y86855718D01*
X30784807Y86961350D01*
X30960462Y87034108D01*
X31146935Y87071200D01*
X31337065Y87071200D01*
X31523538Y87034108D01*
X31523538Y87034108D01*
G37*
G36*
X40083338Y87034108D02*
G01*
X40258993Y86961350D01*
X40417082Y86855718D01*
X40551518Y86721282D01*
X40657150Y86563193D01*
X40729908Y86387538D01*
X40767000Y86201065D01*
X40767000Y86010935D01*
X40729908Y85824462D01*
X40657150Y85648807D01*
X40551518Y85490718D01*
X40417082Y85356282D01*
X40258993Y85250650D01*
X40083338Y85177892D01*
X39896865Y85140800D01*
X39706735Y85140800D01*
X39520262Y85177892D01*
X39344607Y85250650D01*
X39186518Y85356282D01*
X39052082Y85490718D01*
X38946450Y85648807D01*
X38873692Y85824462D01*
X38836600Y86010935D01*
X38836600Y86201065D01*
X38873692Y86387538D01*
X38946450Y86563193D01*
X39052082Y86721282D01*
X39186518Y86855718D01*
X39344607Y86961350D01*
X39520262Y87034108D01*
X39706735Y87071200D01*
X39896865Y87071200D01*
X40083338Y87034108D01*
X40083338Y87034108D01*
G37*
G36*
X52732538Y87364308D02*
G01*
X52908193Y87291550D01*
X53066282Y87185918D01*
X53200718Y87051482D01*
X53306350Y86893393D01*
X53379108Y86717738D01*
X53416200Y86531265D01*
X53416200Y86341135D01*
X53379108Y86154662D01*
X53306350Y85979007D01*
X53200718Y85820918D01*
X53066282Y85686482D01*
X52908193Y85580850D01*
X52732538Y85508092D01*
X52546065Y85471000D01*
X52355935Y85471000D01*
X52169462Y85508092D01*
X51993807Y85580850D01*
X51835718Y85686482D01*
X51701282Y85820918D01*
X51595650Y85979007D01*
X51522892Y86154662D01*
X51485800Y86341135D01*
X51485800Y86531265D01*
X51522892Y86717738D01*
X51595650Y86893393D01*
X51701282Y87051482D01*
X51835718Y87185918D01*
X51993807Y87291550D01*
X52169462Y87364308D01*
X52355935Y87401400D01*
X52546065Y87401400D01*
X52732538Y87364308D01*
X52732538Y87364308D01*
G37*
G36*
X28186000Y87562700D02*
G01*
X27186000Y87562700D01*
X27186000Y88562700D01*
X28186000Y88562700D01*
X28186000Y87562700D01*
X28186000Y87562700D01*
G37*
G36*
X3441965Y88868467D02*
G01*
X3560982Y88819169D01*
X3560985Y88819167D01*
X3658311Y88754136D01*
X3668104Y88747592D01*
X3759192Y88656504D01*
X3830769Y88549382D01*
X3880067Y88430365D01*
X3905200Y88304013D01*
X3905200Y88175187D01*
X3880067Y88048835D01*
X3830769Y87929818D01*
X3759192Y87822696D01*
X3668104Y87731608D01*
X3560982Y87660031D01*
X3441965Y87610733D01*
X3315613Y87585600D01*
X3186787Y87585600D01*
X3060435Y87610733D01*
X2941418Y87660031D01*
X2834296Y87731608D01*
X2743208Y87822696D01*
X2671631Y87929818D01*
X2622333Y88048835D01*
X2597200Y88175187D01*
X2597200Y88304013D01*
X2622333Y88430365D01*
X2671631Y88549382D01*
X2743208Y88656504D01*
X2834296Y88747592D01*
X2844090Y88754136D01*
X2941415Y88819167D01*
X2941418Y88819169D01*
X3060435Y88868467D01*
X3186787Y88893600D01*
X3315613Y88893600D01*
X3441965Y88868467D01*
X3441965Y88868467D01*
G37*
G36*
X8521965Y88868467D02*
G01*
X8640982Y88819169D01*
X8640985Y88819167D01*
X8738311Y88754136D01*
X8748104Y88747592D01*
X8839192Y88656504D01*
X8910769Y88549382D01*
X8960067Y88430365D01*
X8985200Y88304013D01*
X8985200Y88175187D01*
X8960067Y88048835D01*
X8910769Y87929818D01*
X8839192Y87822696D01*
X8748104Y87731608D01*
X8640982Y87660031D01*
X8521965Y87610733D01*
X8395613Y87585600D01*
X8266787Y87585600D01*
X8140435Y87610733D01*
X8021418Y87660031D01*
X7914296Y87731608D01*
X7823208Y87822696D01*
X7751631Y87929818D01*
X7702333Y88048835D01*
X7677200Y88175187D01*
X7677200Y88304013D01*
X7702333Y88430365D01*
X7751631Y88549382D01*
X7823208Y88656504D01*
X7914296Y88747592D01*
X7924090Y88754136D01*
X8021415Y88819167D01*
X8021418Y88819169D01*
X8140435Y88868467D01*
X8266787Y88893600D01*
X8395613Y88893600D01*
X8521965Y88868467D01*
X8521965Y88868467D01*
G37*
G36*
X23488800Y87638000D02*
G01*
X22488800Y87638000D01*
X22488800Y88638000D01*
X23488800Y88638000D01*
X23488800Y87638000D01*
X23488800Y87638000D01*
G37*
G36*
X25188800Y87638000D02*
G01*
X24188800Y87638000D01*
X24188800Y88638000D01*
X25188800Y88638000D01*
X25188800Y87638000D01*
X25188800Y87638000D01*
G37*
G36*
X30116400Y87638900D02*
G01*
X29116400Y87638900D01*
X29116400Y88638900D01*
X30116400Y88638900D01*
X30116400Y87638900D01*
X30116400Y87638900D01*
G37*
G36*
X52732538Y89777308D02*
G01*
X52908193Y89704550D01*
X53066282Y89598918D01*
X53200718Y89464482D01*
X53306350Y89306393D01*
X53379108Y89130738D01*
X53416200Y88944265D01*
X53416200Y88754135D01*
X53379108Y88567662D01*
X53306350Y88392007D01*
X53200718Y88233918D01*
X53066282Y88099482D01*
X52908193Y87993850D01*
X52732538Y87921092D01*
X52546065Y87884000D01*
X52355935Y87884000D01*
X52169462Y87921092D01*
X51993807Y87993850D01*
X51835718Y88099482D01*
X51701282Y88233918D01*
X51595650Y88392007D01*
X51522892Y88567662D01*
X51485800Y88754135D01*
X51485800Y88944265D01*
X51522892Y89130738D01*
X51595650Y89306393D01*
X51701282Y89464482D01*
X51835718Y89598918D01*
X51993807Y89704550D01*
X52169462Y89777308D01*
X52355935Y89814400D01*
X52546065Y89814400D01*
X52732538Y89777308D01*
X52732538Y89777308D01*
G37*
G36*
X14804100Y88083300D02*
G01*
X13004100Y88083300D01*
X13004100Y89183300D01*
X14804100Y89183300D01*
X14804100Y88083300D01*
X14804100Y88083300D01*
G37*
G36*
X21004100Y88083300D02*
G01*
X19204100Y88083300D01*
X19204100Y89183300D01*
X21004100Y89183300D01*
X21004100Y88083300D01*
X21004100Y88083300D01*
G37*
G36*
X39489000Y88185000D02*
G01*
X38489000Y88185000D01*
X38489000Y89185000D01*
X39489000Y89185000D01*
X39489000Y88185000D01*
X39489000Y88185000D01*
G37*
G36*
X37584000Y88185000D02*
G01*
X36584000Y88185000D01*
X36584000Y89185000D01*
X37584000Y89185000D01*
X37584000Y88185000D01*
X37584000Y88185000D01*
G37*
G36*
X33521700Y88186600D02*
G01*
X32121700Y88186600D01*
X32121700Y89186600D01*
X33521700Y89186600D01*
X33521700Y88186600D01*
X33521700Y88186600D01*
G37*
G36*
X35721700Y89136600D02*
G01*
X34321700Y89136600D01*
X34321700Y90136600D01*
X35721700Y90136600D01*
X35721700Y89136600D01*
X35721700Y89136600D01*
G37*
G36*
X28186000Y89262700D02*
G01*
X27186000Y89262700D01*
X27186000Y90262700D01*
X28186000Y90262700D01*
X28186000Y89262700D01*
X28186000Y89262700D01*
G37*
G36*
X30116400Y89338900D02*
G01*
X29116400Y89338900D01*
X29116400Y90338900D01*
X30116400Y90338900D01*
X30116400Y89338900D01*
X30116400Y89338900D01*
G37*
G36*
X39489000Y89885000D02*
G01*
X38489000Y89885000D01*
X38489000Y90885000D01*
X39489000Y90885000D01*
X39489000Y89885000D01*
X39489000Y89885000D01*
G37*
G36*
X37584000Y89885000D02*
G01*
X36584000Y89885000D01*
X36584000Y90885000D01*
X37584000Y90885000D01*
X37584000Y89885000D01*
X37584000Y89885000D01*
G37*
G36*
X45450000Y89932000D02*
G01*
X43450000Y89932000D01*
X43450000Y91932000D01*
X45450000Y91932000D01*
X45450000Y89932000D01*
X45450000Y89932000D01*
G37*
G36*
X33521700Y90086600D02*
G01*
X32121700Y90086600D01*
X32121700Y91086600D01*
X33521700Y91086600D01*
X33521700Y90086600D01*
X33521700Y90086600D01*
G37*
G36*
X3441965Y91408467D02*
G01*
X3560982Y91359169D01*
X3668104Y91287592D01*
X3759192Y91196504D01*
X3830769Y91089382D01*
X3880067Y90970365D01*
X3905200Y90844013D01*
X3905200Y90715187D01*
X3880067Y90588835D01*
X3830769Y90469818D01*
X3759192Y90362696D01*
X3668104Y90271608D01*
X3668101Y90271606D01*
X3668100Y90271605D01*
X3560985Y90200033D01*
X3560982Y90200031D01*
X3441965Y90150733D01*
X3315613Y90125600D01*
X3186787Y90125600D01*
X3060435Y90150733D01*
X2941418Y90200031D01*
X2941415Y90200033D01*
X2834300Y90271605D01*
X2834299Y90271606D01*
X2834296Y90271608D01*
X2743208Y90362696D01*
X2671631Y90469818D01*
X2622333Y90588835D01*
X2597200Y90715187D01*
X2597200Y90844013D01*
X2622333Y90970365D01*
X2671631Y91089382D01*
X2743208Y91196504D01*
X2834296Y91287592D01*
X2941418Y91359169D01*
X3060435Y91408467D01*
X3186787Y91433600D01*
X3315613Y91433600D01*
X3441965Y91408467D01*
X3441965Y91408467D01*
G37*
G36*
X8521965Y91408467D02*
G01*
X8640982Y91359169D01*
X8748104Y91287592D01*
X8839192Y91196504D01*
X8910769Y91089382D01*
X8960067Y90970365D01*
X8985200Y90844013D01*
X8985200Y90715187D01*
X8960067Y90588835D01*
X8910769Y90469818D01*
X8839192Y90362696D01*
X8748104Y90271608D01*
X8748101Y90271606D01*
X8748100Y90271605D01*
X8640985Y90200033D01*
X8640982Y90200031D01*
X8521965Y90150733D01*
X8395613Y90125600D01*
X8266787Y90125600D01*
X8140435Y90150733D01*
X8021418Y90200031D01*
X8021415Y90200033D01*
X7914300Y90271605D01*
X7914299Y90271606D01*
X7914296Y90271608D01*
X7823208Y90362696D01*
X7751631Y90469818D01*
X7702333Y90588835D01*
X7677200Y90715187D01*
X7677200Y90844013D01*
X7702333Y90970365D01*
X7751631Y91089382D01*
X7823208Y91196504D01*
X7914296Y91287592D01*
X8021418Y91359169D01*
X8140435Y91408467D01*
X8266787Y91433600D01*
X8395613Y91433600D01*
X8521965Y91408467D01*
X8521965Y91408467D01*
G37*
G36*
X12526000Y90178000D02*
G01*
X11526000Y90178000D01*
X11526000Y91178000D01*
X12526000Y91178000D01*
X12526000Y90178000D01*
X12526000Y90178000D01*
G37*
G36*
X10826000Y90178000D02*
G01*
X9826000Y90178000D01*
X9826000Y91178000D01*
X10826000Y91178000D01*
X10826000Y90178000D01*
X10826000Y90178000D01*
G37*
G36*
X42244900Y90737700D02*
G01*
X41244900Y90737700D01*
X41244900Y91737700D01*
X42244900Y91737700D01*
X42244900Y90737700D01*
X42244900Y90737700D01*
G37*
G36*
X31042600Y91067000D02*
G01*
X30042600Y91067000D01*
X30042600Y92067000D01*
X31042600Y92067000D01*
X31042600Y91067000D01*
X31042600Y91067000D01*
G37*
G36*
X29342600Y91067000D02*
G01*
X28342600Y91067000D01*
X28342600Y92067000D01*
X29342600Y92067000D01*
X29342600Y91067000D01*
X29342600Y91067000D01*
G37*
G36*
X48785400Y91118700D02*
G01*
X47785400Y91118700D01*
X47785400Y92118700D01*
X48785400Y92118700D01*
X48785400Y91118700D01*
X48785400Y91118700D01*
G37*
G36*
X21004100Y91783300D02*
G01*
X19204100Y91783300D01*
X19204100Y92883300D01*
X21004100Y92883300D01*
X21004100Y91783300D01*
X21004100Y91783300D01*
G37*
G36*
X14804100Y91783300D02*
G01*
X13004100Y91783300D01*
X13004100Y92883300D01*
X14804100Y92883300D01*
X14804100Y91783300D01*
X14804100Y91783300D01*
G37*
G36*
X40505000Y92272000D02*
G01*
X39055000Y92272000D01*
X39055000Y94672000D01*
X40505000Y94672000D01*
X40505000Y92272000D01*
X40505000Y92272000D01*
G37*
G36*
X34605000Y92272000D02*
G01*
X33155000Y92272000D01*
X33155000Y94672000D01*
X34605000Y94672000D01*
X34605000Y92272000D01*
X34605000Y92272000D01*
G37*
G36*
X42244900Y92437700D02*
G01*
X41244900Y92437700D01*
X41244900Y93437700D01*
X42244900Y93437700D01*
X42244900Y92437700D01*
X42244900Y92437700D01*
G37*
G36*
X44625770Y94456628D02*
G01*
X44741689Y94433571D01*
X44923678Y94358189D01*
X45087463Y94248751D01*
X45226751Y94109463D01*
X45336189Y93945678D01*
X45411571Y93763689D01*
X45450000Y93570491D01*
X45450000Y93373509D01*
X45411571Y93180311D01*
X45336189Y92998322D01*
X45226751Y92834537D01*
X45087463Y92695249D01*
X44923678Y92585811D01*
X44741689Y92510429D01*
X44625770Y92487372D01*
X44548493Y92472000D01*
X44351507Y92472000D01*
X44274230Y92487372D01*
X44158311Y92510429D01*
X43976322Y92585811D01*
X43812537Y92695249D01*
X43673249Y92834537D01*
X43563811Y92998322D01*
X43488429Y93180311D01*
X43450000Y93373509D01*
X43450000Y93570491D01*
X43488429Y93763689D01*
X43563811Y93945678D01*
X43673249Y94109463D01*
X43812537Y94248751D01*
X43976322Y94358189D01*
X44158311Y94433571D01*
X44274230Y94456628D01*
X44351507Y94472000D01*
X44548493Y94472000D01*
X44625770Y94456628D01*
X44625770Y94456628D01*
G37*
G36*
X29964000Y92630000D02*
G01*
X28964000Y92630000D01*
X28964000Y93630000D01*
X29964000Y93630000D01*
X29964000Y92630000D01*
X29964000Y92630000D01*
G37*
G36*
X28186000Y92630000D02*
G01*
X27186000Y92630000D01*
X27186000Y93630000D01*
X28186000Y93630000D01*
X28186000Y92630000D01*
X28186000Y92630000D01*
G37*
G36*
X3441965Y93948467D02*
G01*
X3560982Y93899169D01*
X3668104Y93827592D01*
X3759192Y93736504D01*
X3830769Y93629382D01*
X3880067Y93510365D01*
X3905200Y93384013D01*
X3905200Y93255187D01*
X3880067Y93128835D01*
X3830769Y93009818D01*
X3759192Y92902696D01*
X3668104Y92811608D01*
X3560982Y92740031D01*
X3452877Y92695253D01*
X3441965Y92690733D01*
X3315613Y92665600D01*
X3186787Y92665600D01*
X3060435Y92690733D01*
X3049523Y92695253D01*
X2941418Y92740031D01*
X2834296Y92811608D01*
X2743208Y92902696D01*
X2671631Y93009818D01*
X2622333Y93128835D01*
X2597200Y93255187D01*
X2597200Y93384013D01*
X2622333Y93510365D01*
X2671631Y93629382D01*
X2743208Y93736504D01*
X2834296Y93827592D01*
X2941418Y93899169D01*
X3060435Y93948467D01*
X3186787Y93973600D01*
X3315613Y93973600D01*
X3441965Y93948467D01*
X3441965Y93948467D01*
G37*
G36*
X8521965Y93948467D02*
G01*
X8640982Y93899169D01*
X8748104Y93827592D01*
X8839192Y93736504D01*
X8910769Y93629382D01*
X8960067Y93510365D01*
X8985200Y93384013D01*
X8985200Y93255187D01*
X8960067Y93128835D01*
X8910769Y93009818D01*
X8839192Y92902696D01*
X8748104Y92811608D01*
X8640982Y92740031D01*
X8521965Y92690733D01*
X8395613Y92665600D01*
X8266787Y92665600D01*
X8140435Y92690733D01*
X8021418Y92740031D01*
X7914296Y92811608D01*
X7823208Y92902696D01*
X7751631Y93009818D01*
X7702333Y93128835D01*
X7677200Y93255187D01*
X7677200Y93384013D01*
X7702333Y93510365D01*
X7751631Y93629382D01*
X7823208Y93736504D01*
X7914296Y93827592D01*
X8021418Y93899169D01*
X8140435Y93948467D01*
X8266787Y93973600D01*
X8395613Y93973600D01*
X8521965Y93948467D01*
X8521965Y93948467D01*
G37*
G36*
X31488000Y92718000D02*
G01*
X30488000Y92718000D01*
X30488000Y93718000D01*
X31488000Y93718000D01*
X31488000Y92718000D01*
X31488000Y92718000D01*
G37*
G36*
X48785400Y92818700D02*
G01*
X47785400Y92818700D01*
X47785400Y93818700D01*
X48785400Y93818700D01*
X48785400Y92818700D01*
X48785400Y92818700D01*
G37*
G36*
X23906100Y93762600D02*
G01*
X22906100Y93762600D01*
X22906100Y95162600D01*
X23906100Y95162600D01*
X23906100Y93762600D01*
X23906100Y93762600D01*
G37*
G36*
X22006100Y93762600D02*
G01*
X21006100Y93762600D01*
X21006100Y95162600D01*
X22006100Y95162600D01*
X22006100Y93762600D01*
X22006100Y93762600D01*
G37*
G36*
X18279100Y93873700D02*
G01*
X17279100Y93873700D01*
X17279100Y94873700D01*
X18279100Y94873700D01*
X18279100Y93873700D01*
X18279100Y93873700D01*
G37*
G36*
X16579100Y93873700D02*
G01*
X15579100Y93873700D01*
X15579100Y94873700D01*
X16579100Y94873700D01*
X16579100Y93873700D01*
X16579100Y93873700D01*
G37*
G36*
X28186000Y94330000D02*
G01*
X27186000Y94330000D01*
X27186000Y95330000D01*
X28186000Y95330000D01*
X28186000Y94330000D01*
X28186000Y94330000D01*
G37*
G36*
X29964000Y94330000D02*
G01*
X28964000Y94330000D01*
X28964000Y95330000D01*
X29964000Y95330000D01*
X29964000Y94330000D01*
X29964000Y94330000D01*
G37*
G36*
X31488000Y94418000D02*
G01*
X30488000Y94418000D01*
X30488000Y95418000D01*
X31488000Y95418000D01*
X31488000Y94418000D01*
X31488000Y94418000D01*
G37*
G36*
X48480600Y94496900D02*
G01*
X47480600Y94496900D01*
X47480600Y95496900D01*
X48480600Y95496900D01*
X48480600Y94496900D01*
X48480600Y94496900D01*
G37*
G36*
X6445200Y95205600D02*
G01*
X5137200Y95205600D01*
X5137200Y96513600D01*
X6445200Y96513600D01*
X6445200Y95205600D01*
X6445200Y95205600D01*
G37*
G36*
X22956100Y95962600D02*
G01*
X21956100Y95962600D01*
X21956100Y97362600D01*
X22956100Y97362600D01*
X22956100Y95962600D01*
X22956100Y95962600D01*
G37*
G36*
X4144000Y96020000D02*
G01*
X3144000Y96020000D01*
X3144000Y97020000D01*
X4144000Y97020000D01*
X4144000Y96020000D01*
X4144000Y96020000D01*
G37*
G36*
X2444000Y96020000D02*
G01*
X1444000Y96020000D01*
X1444000Y97020000D01*
X2444000Y97020000D01*
X2444000Y96020000D01*
X2444000Y96020000D01*
G37*
G36*
X34663900Y96147000D02*
G01*
X33663900Y96147000D01*
X33663900Y97147000D01*
X34663900Y97147000D01*
X34663900Y96147000D01*
X34663900Y96147000D01*
G37*
G36*
X36363900Y96147000D02*
G01*
X35363900Y96147000D01*
X35363900Y97147000D01*
X36363900Y97147000D01*
X36363900Y96147000D01*
X36363900Y96147000D01*
G37*
G36*
X48480600Y96196900D02*
G01*
X47480600Y96196900D01*
X47480600Y97196900D01*
X48480600Y97196900D01*
X48480600Y96196900D01*
X48480600Y96196900D01*
G37*
G36*
X52732538Y98337108D02*
G01*
X52908193Y98264350D01*
X53066282Y98158718D01*
X53200718Y98024282D01*
X53306350Y97866193D01*
X53379108Y97690538D01*
X53416200Y97504065D01*
X53416200Y97313935D01*
X53379108Y97127462D01*
X53306350Y96951807D01*
X53200718Y96793718D01*
X53066282Y96659282D01*
X52908193Y96553650D01*
X52732538Y96480892D01*
X52546065Y96443800D01*
X52355935Y96443800D01*
X52169462Y96480892D01*
X51993807Y96553650D01*
X51835718Y96659282D01*
X51701282Y96793718D01*
X51595650Y96951807D01*
X51522892Y97127462D01*
X51485800Y97313935D01*
X51485800Y97504065D01*
X51522892Y97690538D01*
X51595650Y97866193D01*
X51701282Y98024282D01*
X51835718Y98158718D01*
X51993807Y98264350D01*
X52169462Y98337108D01*
X52355935Y98374200D01*
X52546065Y98374200D01*
X52732538Y98337108D01*
X52732538Y98337108D01*
G37*
G36*
X31523538Y99226108D02*
G01*
X31699193Y99153350D01*
X31857282Y99047718D01*
X31991718Y98913282D01*
X32097350Y98755193D01*
X32170108Y98579538D01*
X32207200Y98393065D01*
X32207200Y98202935D01*
X32170108Y98016462D01*
X32097350Y97840807D01*
X31991718Y97682718D01*
X31857282Y97548282D01*
X31699193Y97442650D01*
X31523538Y97369892D01*
X31337065Y97332800D01*
X31146935Y97332800D01*
X30960462Y97369892D01*
X30784807Y97442650D01*
X30626718Y97548282D01*
X30492282Y97682718D01*
X30386650Y97840807D01*
X30313892Y98016462D01*
X30276800Y98202935D01*
X30276800Y98393065D01*
X30313892Y98579538D01*
X30386650Y98755193D01*
X30492282Y98913282D01*
X30626718Y99047718D01*
X30784807Y99153350D01*
X30960462Y99226108D01*
X31146935Y99263200D01*
X31337065Y99263200D01*
X31523538Y99226108D01*
X31523538Y99226108D01*
G37*
G36*
X42496338Y99226108D02*
G01*
X42671993Y99153350D01*
X42830082Y99047718D01*
X42964518Y98913282D01*
X43070150Y98755193D01*
X43142908Y98579538D01*
X43180000Y98393065D01*
X43180000Y98202935D01*
X43142908Y98016462D01*
X43070150Y97840807D01*
X42964518Y97682718D01*
X42830082Y97548282D01*
X42671993Y97442650D01*
X42496338Y97369892D01*
X42309865Y97332800D01*
X42119735Y97332800D01*
X41933262Y97369892D01*
X41757607Y97442650D01*
X41599518Y97548282D01*
X41465082Y97682718D01*
X41359450Y97840807D01*
X41286692Y98016462D01*
X41249600Y98202935D01*
X41249600Y98393065D01*
X41286692Y98579538D01*
X41359450Y98755193D01*
X41465082Y98913282D01*
X41599518Y99047718D01*
X41757607Y99153350D01*
X41933262Y99226108D01*
X42119735Y99263200D01*
X42309865Y99263200D01*
X42496338Y99226108D01*
X42496338Y99226108D01*
G37*
G36*
X40083338Y99226108D02*
G01*
X40258993Y99153350D01*
X40417082Y99047718D01*
X40551518Y98913282D01*
X40657150Y98755193D01*
X40729908Y98579538D01*
X40767000Y98393065D01*
X40767000Y98202935D01*
X40729908Y98016462D01*
X40657150Y97840807D01*
X40551518Y97682718D01*
X40417082Y97548282D01*
X40258993Y97442650D01*
X40083338Y97369892D01*
X39896865Y97332800D01*
X39706735Y97332800D01*
X39520262Y97369892D01*
X39344607Y97442650D01*
X39186518Y97548282D01*
X39052082Y97682718D01*
X38946450Y97840807D01*
X38873692Y98016462D01*
X38836600Y98202935D01*
X38836600Y98393065D01*
X38873692Y98579538D01*
X38946450Y98755193D01*
X39052082Y98913282D01*
X39186518Y99047718D01*
X39344607Y99153350D01*
X39520262Y99226108D01*
X39706735Y99263200D01*
X39896865Y99263200D01*
X40083338Y99226108D01*
X40083338Y99226108D01*
G37*
G36*
X34828100Y97659200D02*
G01*
X33828100Y97659200D01*
X33828100Y98659200D01*
X34828100Y98659200D01*
X34828100Y97659200D01*
X34828100Y97659200D01*
G37*
G36*
X2444000Y97925000D02*
G01*
X1444000Y97925000D01*
X1444000Y98925000D01*
X2444000Y98925000D01*
X2444000Y97925000D01*
X2444000Y97925000D01*
G37*
G36*
X4144000Y97925000D02*
G01*
X3144000Y97925000D01*
X3144000Y98925000D01*
X4144000Y98925000D01*
X4144000Y97925000D01*
X4144000Y97925000D01*
G37*
G36*
X45305600Y98002100D02*
G01*
X44305600Y98002100D01*
X44305600Y99002100D01*
X45305600Y99002100D01*
X45305600Y98002100D01*
X45305600Y98002100D01*
G37*
G36*
X5981965Y99688867D02*
G01*
X6100982Y99639569D01*
X6208104Y99567992D01*
X6299192Y99476904D01*
X6370769Y99369782D01*
X6420067Y99250765D01*
X6445200Y99124413D01*
X6445200Y98995587D01*
X6420067Y98869235D01*
X6370769Y98750218D01*
X6370767Y98750215D01*
X6309953Y98659200D01*
X6299192Y98643096D01*
X6208104Y98552008D01*
X6100982Y98480431D01*
X5981965Y98431133D01*
X5855613Y98406000D01*
X5726787Y98406000D01*
X5600435Y98431133D01*
X5481418Y98480431D01*
X5374296Y98552008D01*
X5283208Y98643096D01*
X5272448Y98659200D01*
X5211633Y98750215D01*
X5211631Y98750218D01*
X5162333Y98869235D01*
X5137200Y98995587D01*
X5137200Y99124413D01*
X5162333Y99250765D01*
X5211631Y99369782D01*
X5283208Y99476904D01*
X5374296Y99567992D01*
X5481418Y99639569D01*
X5600435Y99688867D01*
X5726787Y99714000D01*
X5855613Y99714000D01*
X5981965Y99688867D01*
X5981965Y99688867D01*
G37*
G36*
X51322200Y99182300D02*
G01*
X49922200Y99182300D01*
X49922200Y100182300D01*
X51322200Y100182300D01*
X51322200Y99182300D01*
X51322200Y99182300D01*
G37*
G36*
X34828100Y99359200D02*
G01*
X33828100Y99359200D01*
X33828100Y100359200D01*
X34828100Y100359200D01*
X34828100Y99359200D01*
X34828100Y99359200D01*
G37*
G36*
X45305600Y99702100D02*
G01*
X44305600Y99702100D01*
X44305600Y100702100D01*
X45305600Y100702100D01*
X45305600Y99702100D01*
X45305600Y99702100D01*
G37*
G36*
X30040200Y99868100D02*
G01*
X29040200Y99868100D01*
X29040200Y100868100D01*
X30040200Y100868100D01*
X30040200Y99868100D01*
X30040200Y99868100D01*
G37*
G36*
X31740200Y99868100D02*
G01*
X30740200Y99868100D01*
X30740200Y100868100D01*
X31740200Y100868100D01*
X31740200Y99868100D01*
X31740200Y99868100D01*
G37*
G36*
X49122200Y100132300D02*
G01*
X47722200Y100132300D01*
X47722200Y101132300D01*
X49122200Y101132300D01*
X49122200Y100132300D01*
X49122200Y100132300D01*
G37*
G36*
X6342000Y100758000D02*
G01*
X5342000Y100758000D01*
X5342000Y101758000D01*
X6342000Y101758000D01*
X6342000Y100758000D01*
X6342000Y100758000D01*
G37*
G36*
X3441965Y102228867D02*
G01*
X3560982Y102179569D01*
X3668104Y102107992D01*
X3759192Y102016904D01*
X3830769Y101909782D01*
X3880067Y101790765D01*
X3905200Y101664413D01*
X3905200Y101535587D01*
X3880067Y101409235D01*
X3830769Y101290218D01*
X3759192Y101183096D01*
X3668104Y101092008D01*
X3560982Y101020431D01*
X3441965Y100971133D01*
X3315613Y100946000D01*
X3186787Y100946000D01*
X3060435Y100971133D01*
X2941418Y101020431D01*
X2834296Y101092008D01*
X2743208Y101183096D01*
X2671631Y101290218D01*
X2622333Y101409235D01*
X2597200Y101535587D01*
X2597200Y101664413D01*
X2622333Y101790765D01*
X2671631Y101909782D01*
X2743208Y102016904D01*
X2834296Y102107992D01*
X2941418Y102179569D01*
X3060435Y102228867D01*
X3186787Y102254000D01*
X3315613Y102254000D01*
X3441965Y102228867D01*
X3441965Y102228867D01*
G37*
G36*
X8521965Y102228867D02*
G01*
X8640982Y102179569D01*
X8748104Y102107992D01*
X8839192Y102016904D01*
X8910769Y101909782D01*
X8960067Y101790765D01*
X8985200Y101664413D01*
X8985200Y101535587D01*
X8960067Y101409235D01*
X8910769Y101290218D01*
X8839192Y101183096D01*
X8748104Y101092008D01*
X8640982Y101020431D01*
X8521965Y100971133D01*
X8395613Y100946000D01*
X8266787Y100946000D01*
X8140435Y100971133D01*
X8021418Y101020431D01*
X7914296Y101092008D01*
X7823208Y101183096D01*
X7751631Y101290218D01*
X7702333Y101409235D01*
X7677200Y101535587D01*
X7677200Y101664413D01*
X7702333Y101790765D01*
X7751631Y101909782D01*
X7823208Y102016904D01*
X7914296Y102107992D01*
X8021418Y102179569D01*
X8140435Y102228867D01*
X8266787Y102254000D01*
X8395613Y102254000D01*
X8521965Y102228867D01*
X8521965Y102228867D01*
G37*
G36*
X51322200Y101082300D02*
G01*
X49922200Y101082300D01*
X49922200Y102082300D01*
X51322200Y102082300D01*
X51322200Y101082300D01*
X51322200Y101082300D01*
G37*
G36*
X43972100Y101682700D02*
G01*
X42522100Y101682700D01*
X42522100Y104082700D01*
X43972100Y104082700D01*
X43972100Y101682700D01*
X43972100Y101682700D01*
G37*
G36*
X38072100Y101682700D02*
G01*
X36622100Y101682700D01*
X36622100Y104082700D01*
X38072100Y104082700D01*
X38072100Y101682700D01*
X38072100Y101682700D01*
G37*
G36*
X6342000Y102458000D02*
G01*
X5342000Y102458000D01*
X5342000Y103458000D01*
X6342000Y103458000D01*
X6342000Y102458000D01*
X6342000Y102458000D01*
G37*
G36*
X49379738Y105245908D02*
G01*
X49555393Y105173150D01*
X49713482Y105067518D01*
X49847918Y104933082D01*
X49953550Y104774993D01*
X50026308Y104599338D01*
X50063400Y104412865D01*
X50063400Y104222735D01*
X50026308Y104036262D01*
X49953550Y103860607D01*
X49847918Y103702518D01*
X49713482Y103568082D01*
X49555393Y103462450D01*
X49379738Y103389692D01*
X49193265Y103352600D01*
X49003135Y103352600D01*
X48816662Y103389692D01*
X48641007Y103462450D01*
X48482918Y103568082D01*
X48348482Y103702518D01*
X48242850Y103860607D01*
X48170092Y104036262D01*
X48133000Y104222735D01*
X48133000Y104412865D01*
X48170092Y104599338D01*
X48242850Y104774993D01*
X48348482Y104933082D01*
X48482918Y105067518D01*
X48641007Y105173150D01*
X48816662Y105245908D01*
X49003135Y105283000D01*
X49193265Y105283000D01*
X49379738Y105245908D01*
X49379738Y105245908D01*
G37*
G36*
X46966738Y105245908D02*
G01*
X47142393Y105173150D01*
X47300482Y105067518D01*
X47434918Y104933082D01*
X47540550Y104774993D01*
X47613308Y104599338D01*
X47650400Y104412865D01*
X47650400Y104222735D01*
X47613308Y104036262D01*
X47540550Y103860607D01*
X47434918Y103702518D01*
X47300482Y103568082D01*
X47142393Y103462450D01*
X46966738Y103389692D01*
X46780265Y103352600D01*
X46590135Y103352600D01*
X46403662Y103389692D01*
X46228007Y103462450D01*
X46069918Y103568082D01*
X45935482Y103702518D01*
X45829850Y103860607D01*
X45757092Y104036262D01*
X45720000Y104222735D01*
X45720000Y104412865D01*
X45757092Y104599338D01*
X45829850Y104774993D01*
X45935482Y104933082D01*
X46069918Y105067518D01*
X46228007Y105173150D01*
X46403662Y105245908D01*
X46590135Y105283000D01*
X46780265Y105283000D01*
X46966738Y105245908D01*
X46966738Y105245908D01*
G37*
G36*
X57939538Y105245908D02*
G01*
X58115193Y105173150D01*
X58273282Y105067518D01*
X58407718Y104933082D01*
X58513350Y104774993D01*
X58586108Y104599338D01*
X58623200Y104412865D01*
X58623200Y104222735D01*
X58586108Y104036262D01*
X58513350Y103860607D01*
X58407718Y103702518D01*
X58273282Y103568082D01*
X58115193Y103462450D01*
X57939538Y103389692D01*
X57753065Y103352600D01*
X57562935Y103352600D01*
X57376462Y103389692D01*
X57200807Y103462450D01*
X57042718Y103568082D01*
X56908282Y103702518D01*
X56802650Y103860607D01*
X56729892Y104036262D01*
X56692800Y104222735D01*
X56692800Y104412865D01*
X56729892Y104599338D01*
X56802650Y104774993D01*
X56908282Y104933082D01*
X57042718Y105067518D01*
X57200807Y105173150D01*
X57376462Y105245908D01*
X57562935Y105283000D01*
X57753065Y105283000D01*
X57939538Y105245908D01*
X57939538Y105245908D01*
G37*
G36*
X8521965Y104768867D02*
G01*
X8640982Y104719569D01*
X8748104Y104647992D01*
X8839192Y104556904D01*
X8910769Y104449782D01*
X8960067Y104330765D01*
X8985200Y104204413D01*
X8985200Y104075587D01*
X8960067Y103949235D01*
X8910769Y103830218D01*
X8839192Y103723096D01*
X8748104Y103632008D01*
X8748101Y103632006D01*
X8748100Y103632005D01*
X8640985Y103560433D01*
X8640982Y103560431D01*
X8521965Y103511133D01*
X8395613Y103486000D01*
X8266787Y103486000D01*
X8140435Y103511133D01*
X8021418Y103560431D01*
X8021415Y103560433D01*
X7914300Y103632005D01*
X7914299Y103632006D01*
X7914296Y103632008D01*
X7823208Y103723096D01*
X7751631Y103830218D01*
X7702333Y103949235D01*
X7677200Y104075587D01*
X7677200Y104204413D01*
X7702333Y104330765D01*
X7751631Y104449782D01*
X7823208Y104556904D01*
X7914296Y104647992D01*
X8021418Y104719569D01*
X8140435Y104768867D01*
X8266787Y104794000D01*
X8395613Y104794000D01*
X8521965Y104768867D01*
X8521965Y104768867D01*
G37*
G36*
X3441965Y104768867D02*
G01*
X3560982Y104719569D01*
X3668104Y104647992D01*
X3759192Y104556904D01*
X3830769Y104449782D01*
X3880067Y104330765D01*
X3905200Y104204413D01*
X3905200Y104075587D01*
X3880067Y103949235D01*
X3830769Y103830218D01*
X3759192Y103723096D01*
X3668104Y103632008D01*
X3668101Y103632006D01*
X3668100Y103632005D01*
X3560985Y103560433D01*
X3560982Y103560431D01*
X3441965Y103511133D01*
X3315613Y103486000D01*
X3186787Y103486000D01*
X3060435Y103511133D01*
X2941418Y103560431D01*
X2941415Y103560433D01*
X2834300Y103632005D01*
X2834299Y103632006D01*
X2834296Y103632008D01*
X2743208Y103723096D01*
X2671631Y103830218D01*
X2622333Y103949235D01*
X2597200Y104075587D01*
X2597200Y104204413D01*
X2622333Y104330765D01*
X2671631Y104449782D01*
X2743208Y104556904D01*
X2834296Y104647992D01*
X2941418Y104719569D01*
X3060435Y104768867D01*
X3186787Y104794000D01*
X3315613Y104794000D01*
X3441965Y104768867D01*
X3441965Y104768867D01*
G37*
G36*
X6469000Y104695000D02*
G01*
X5469000Y104695000D01*
X5469000Y105695000D01*
X6469000Y105695000D01*
X6469000Y104695000D01*
X6469000Y104695000D01*
G37*
G36*
X35022412Y106929835D02*
G01*
X35106995Y106921504D01*
X35227427Y106884971D01*
X35269788Y106872121D01*
X35419812Y106791932D01*
X35551312Y106684012D01*
X35659232Y106552512D01*
X35739421Y106402488D01*
X35739422Y106402484D01*
X35788804Y106239695D01*
X35805478Y106070400D01*
X35788804Y105901105D01*
X35752271Y105780673D01*
X35739421Y105738312D01*
X35659232Y105588288D01*
X35551312Y105456788D01*
X35419812Y105348868D01*
X35269788Y105268679D01*
X35227427Y105255829D01*
X35106995Y105219296D01*
X35022412Y105210965D01*
X34980121Y105206800D01*
X34895279Y105206800D01*
X34852988Y105210965D01*
X34768405Y105219296D01*
X34647973Y105255829D01*
X34605612Y105268679D01*
X34455588Y105348868D01*
X34324088Y105456788D01*
X34216168Y105588288D01*
X34135979Y105738312D01*
X34123129Y105780673D01*
X34086596Y105901105D01*
X34069922Y106070400D01*
X34086596Y106239695D01*
X34135978Y106402484D01*
X34135979Y106402488D01*
X34216168Y106552512D01*
X34324088Y106684012D01*
X34455588Y106791932D01*
X34605612Y106872121D01*
X34647973Y106884971D01*
X34768405Y106921504D01*
X34852988Y106929835D01*
X34895279Y106934000D01*
X34980121Y106934000D01*
X35022412Y106929835D01*
X35022412Y106929835D01*
G37*
G36*
X32482412Y106929835D02*
G01*
X32566995Y106921504D01*
X32687427Y106884971D01*
X32729788Y106872121D01*
X32879812Y106791932D01*
X33011312Y106684012D01*
X33119232Y106552512D01*
X33199421Y106402488D01*
X33199422Y106402484D01*
X33248804Y106239695D01*
X33265478Y106070400D01*
X33248804Y105901105D01*
X33212271Y105780673D01*
X33199421Y105738312D01*
X33119232Y105588288D01*
X33011312Y105456788D01*
X32879812Y105348868D01*
X32729788Y105268679D01*
X32687427Y105255829D01*
X32566995Y105219296D01*
X32482412Y105210965D01*
X32440121Y105206800D01*
X32355279Y105206800D01*
X32312988Y105210965D01*
X32228405Y105219296D01*
X32107973Y105255829D01*
X32065612Y105268679D01*
X31915588Y105348868D01*
X31784088Y105456788D01*
X31676168Y105588288D01*
X31595979Y105738312D01*
X31583129Y105780673D01*
X31546596Y105901105D01*
X31529922Y106070400D01*
X31546596Y106239695D01*
X31595978Y106402484D01*
X31595979Y106402488D01*
X31676168Y106552512D01*
X31784088Y106684012D01*
X31915588Y106791932D01*
X32065612Y106872121D01*
X32107973Y106884971D01*
X32228405Y106921504D01*
X32312988Y106929835D01*
X32355279Y106934000D01*
X32440121Y106934000D01*
X32482412Y106929835D01*
X32482412Y106929835D01*
G37*
G36*
X29942412Y106929835D02*
G01*
X30026995Y106921504D01*
X30147427Y106884971D01*
X30189788Y106872121D01*
X30339812Y106791932D01*
X30471312Y106684012D01*
X30579232Y106552512D01*
X30659421Y106402488D01*
X30659422Y106402484D01*
X30708804Y106239695D01*
X30725478Y106070400D01*
X30708804Y105901105D01*
X30672271Y105780673D01*
X30659421Y105738312D01*
X30579232Y105588288D01*
X30471312Y105456788D01*
X30339812Y105348868D01*
X30189788Y105268679D01*
X30147427Y105255829D01*
X30026995Y105219296D01*
X29942412Y105210965D01*
X29900121Y105206800D01*
X29815279Y105206800D01*
X29772988Y105210965D01*
X29688405Y105219296D01*
X29567973Y105255829D01*
X29525612Y105268679D01*
X29375588Y105348868D01*
X29244088Y105456788D01*
X29136168Y105588288D01*
X29055979Y105738312D01*
X29043129Y105780673D01*
X29006596Y105901105D01*
X28989922Y106070400D01*
X29006596Y106239695D01*
X29055978Y106402484D01*
X29055979Y106402488D01*
X29136168Y106552512D01*
X29244088Y106684012D01*
X29375588Y106791932D01*
X29525612Y106872121D01*
X29567973Y106884971D01*
X29688405Y106921504D01*
X29772988Y106929835D01*
X29815279Y106934000D01*
X29900121Y106934000D01*
X29942412Y106929835D01*
X29942412Y106929835D01*
G37*
G36*
X28181300Y105206800D02*
G01*
X26454100Y105206800D01*
X26454100Y106934000D01*
X28181300Y106934000D01*
X28181300Y105206800D01*
X28181300Y105206800D01*
G37*
G36*
X42791000Y105545900D02*
G01*
X41791000Y105545900D01*
X41791000Y106545900D01*
X42791000Y106545900D01*
X42791000Y105545900D01*
X42791000Y105545900D01*
G37*
G36*
X8521965Y107308867D02*
G01*
X8640982Y107259569D01*
X8748104Y107187992D01*
X8839192Y107096904D01*
X8910769Y106989782D01*
X8960067Y106870765D01*
X8985200Y106744413D01*
X8985200Y106615587D01*
X8960067Y106489235D01*
X8910769Y106370218D01*
X8839192Y106263096D01*
X8748104Y106172008D01*
X8640982Y106100431D01*
X8521965Y106051133D01*
X8395613Y106026000D01*
X8266787Y106026000D01*
X8140435Y106051133D01*
X8021418Y106100431D01*
X7914296Y106172008D01*
X7823208Y106263096D01*
X7751631Y106370218D01*
X7702333Y106489235D01*
X7677200Y106615587D01*
X7677200Y106744413D01*
X7702333Y106870765D01*
X7751631Y106989782D01*
X7823208Y107096904D01*
X7914296Y107187992D01*
X8021418Y107259569D01*
X8140435Y107308867D01*
X8266787Y107334000D01*
X8395613Y107334000D01*
X8521965Y107308867D01*
X8521965Y107308867D01*
G37*
G36*
X3441965Y107308867D02*
G01*
X3560982Y107259569D01*
X3668104Y107187992D01*
X3759192Y107096904D01*
X3830769Y106989782D01*
X3880067Y106870765D01*
X3905200Y106744413D01*
X3905200Y106615587D01*
X3880067Y106489235D01*
X3830769Y106370218D01*
X3759192Y106263096D01*
X3668104Y106172008D01*
X3560982Y106100431D01*
X3441965Y106051133D01*
X3315613Y106026000D01*
X3186787Y106026000D01*
X3060435Y106051133D01*
X2941418Y106100431D01*
X2834296Y106172008D01*
X2743208Y106263096D01*
X2671631Y106370218D01*
X2622333Y106489235D01*
X2597200Y106615587D01*
X2597200Y106744413D01*
X2622333Y106870765D01*
X2671631Y106989782D01*
X2743208Y107096904D01*
X2834296Y107187992D01*
X2941418Y107259569D01*
X3060435Y107308867D01*
X3186787Y107334000D01*
X3315613Y107334000D01*
X3441965Y107308867D01*
X3441965Y107308867D01*
G37*
G36*
X6469000Y106395000D02*
G01*
X5469000Y106395000D01*
X5469000Y107395000D01*
X6469000Y107395000D01*
X6469000Y106395000D01*
X6469000Y106395000D01*
G37*
G36*
X48696500Y106701600D02*
G01*
X47696500Y106701600D01*
X47696500Y107701600D01*
X48696500Y107701600D01*
X48696500Y106701600D01*
X48696500Y106701600D01*
G37*
G36*
X42791000Y107245900D02*
G01*
X41791000Y107245900D01*
X41791000Y108245900D01*
X42791000Y108245900D01*
X42791000Y107245900D01*
X42791000Y107245900D01*
G37*
G36*
X44759500Y107272200D02*
G01*
X43759500Y107272200D01*
X43759500Y108272200D01*
X44759500Y108272200D01*
X44759500Y107272200D01*
X44759500Y107272200D01*
G37*
G36*
X46459500Y107272200D02*
G01*
X45459500Y107272200D01*
X45459500Y108272200D01*
X46459500Y108272200D01*
X46459500Y107272200D01*
X46459500Y107272200D01*
G37*
G36*
X27402412Y109469835D02*
G01*
X27486995Y109461504D01*
X27607427Y109424971D01*
X27649788Y109412121D01*
X27799812Y109331932D01*
X27931312Y109224012D01*
X28039232Y109092512D01*
X28119421Y108942488D01*
X28119422Y108942484D01*
X28168804Y108779695D01*
X28185478Y108610400D01*
X28168804Y108441105D01*
X28156820Y108401600D01*
X28119421Y108278312D01*
X28039232Y108128288D01*
X27931312Y107996788D01*
X27799812Y107888868D01*
X27649788Y107808679D01*
X27607427Y107795829D01*
X27486995Y107759296D01*
X27402412Y107750965D01*
X27360121Y107746800D01*
X27275279Y107746800D01*
X27232988Y107750965D01*
X27148405Y107759296D01*
X27027973Y107795829D01*
X26985612Y107808679D01*
X26835588Y107888868D01*
X26704088Y107996788D01*
X26596168Y108128288D01*
X26515979Y108278312D01*
X26478580Y108401600D01*
X26466596Y108441105D01*
X26449922Y108610400D01*
X26466596Y108779695D01*
X26515978Y108942484D01*
X26515979Y108942488D01*
X26596168Y109092512D01*
X26704088Y109224012D01*
X26835588Y109331932D01*
X26985612Y109412121D01*
X27027973Y109424971D01*
X27148405Y109461504D01*
X27232988Y109469835D01*
X27275279Y109474000D01*
X27360121Y109474000D01*
X27402412Y109469835D01*
X27402412Y109469835D01*
G37*
G36*
X29942412Y109469835D02*
G01*
X30026995Y109461504D01*
X30147427Y109424971D01*
X30189788Y109412121D01*
X30339812Y109331932D01*
X30471312Y109224012D01*
X30579232Y109092512D01*
X30659421Y108942488D01*
X30659422Y108942484D01*
X30708804Y108779695D01*
X30725478Y108610400D01*
X30708804Y108441105D01*
X30696820Y108401600D01*
X30659421Y108278312D01*
X30579232Y108128288D01*
X30471312Y107996788D01*
X30339812Y107888868D01*
X30189788Y107808679D01*
X30147427Y107795829D01*
X30026995Y107759296D01*
X29942412Y107750965D01*
X29900121Y107746800D01*
X29815279Y107746800D01*
X29772988Y107750965D01*
X29688405Y107759296D01*
X29567973Y107795829D01*
X29525612Y107808679D01*
X29375588Y107888868D01*
X29244088Y107996788D01*
X29136168Y108128288D01*
X29055979Y108278312D01*
X29018580Y108401600D01*
X29006596Y108441105D01*
X28989922Y108610400D01*
X29006596Y108779695D01*
X29055978Y108942484D01*
X29055979Y108942488D01*
X29136168Y109092512D01*
X29244088Y109224012D01*
X29375588Y109331932D01*
X29525612Y109412121D01*
X29567973Y109424971D01*
X29688405Y109461504D01*
X29772988Y109469835D01*
X29815279Y109474000D01*
X29900121Y109474000D01*
X29942412Y109469835D01*
X29942412Y109469835D01*
G37*
G36*
X32482412Y109469835D02*
G01*
X32566995Y109461504D01*
X32687427Y109424971D01*
X32729788Y109412121D01*
X32879812Y109331932D01*
X33011312Y109224012D01*
X33119232Y109092512D01*
X33199421Y108942488D01*
X33199422Y108942484D01*
X33248804Y108779695D01*
X33265478Y108610400D01*
X33248804Y108441105D01*
X33236820Y108401600D01*
X33199421Y108278312D01*
X33119232Y108128288D01*
X33011312Y107996788D01*
X32879812Y107888868D01*
X32729788Y107808679D01*
X32687427Y107795829D01*
X32566995Y107759296D01*
X32482412Y107750965D01*
X32440121Y107746800D01*
X32355279Y107746800D01*
X32312988Y107750965D01*
X32228405Y107759296D01*
X32107973Y107795829D01*
X32065612Y107808679D01*
X31915588Y107888868D01*
X31784088Y107996788D01*
X31676168Y108128288D01*
X31595979Y108278312D01*
X31558580Y108401600D01*
X31546596Y108441105D01*
X31529922Y108610400D01*
X31546596Y108779695D01*
X31595978Y108942484D01*
X31595979Y108942488D01*
X31676168Y109092512D01*
X31784088Y109224012D01*
X31915588Y109331932D01*
X32065612Y109412121D01*
X32107973Y109424971D01*
X32228405Y109461504D01*
X32312988Y109469835D01*
X32355279Y109474000D01*
X32440121Y109474000D01*
X32482412Y109469835D01*
X32482412Y109469835D01*
G37*
G36*
X35022412Y109469835D02*
G01*
X35106995Y109461504D01*
X35227427Y109424971D01*
X35269788Y109412121D01*
X35419812Y109331932D01*
X35551312Y109224012D01*
X35659232Y109092512D01*
X35739421Y108942488D01*
X35739422Y108942484D01*
X35788804Y108779695D01*
X35805478Y108610400D01*
X35788804Y108441105D01*
X35776820Y108401600D01*
X35739421Y108278312D01*
X35659232Y108128288D01*
X35551312Y107996788D01*
X35419812Y107888868D01*
X35269788Y107808679D01*
X35227427Y107795829D01*
X35106995Y107759296D01*
X35022412Y107750965D01*
X34980121Y107746800D01*
X34895279Y107746800D01*
X34852988Y107750965D01*
X34768405Y107759296D01*
X34647973Y107795829D01*
X34605612Y107808679D01*
X34455588Y107888868D01*
X34324088Y107996788D01*
X34216168Y108128288D01*
X34135979Y108278312D01*
X34098580Y108401600D01*
X34086596Y108441105D01*
X34069922Y108610400D01*
X34086596Y108779695D01*
X34135978Y108942484D01*
X34135979Y108942488D01*
X34216168Y109092512D01*
X34324088Y109224012D01*
X34455588Y109331932D01*
X34605612Y109412121D01*
X34647973Y109424971D01*
X34768405Y109461504D01*
X34852988Y109469835D01*
X34895279Y109474000D01*
X34980121Y109474000D01*
X35022412Y109469835D01*
X35022412Y109469835D01*
G37*
G36*
X48696500Y108401600D02*
G01*
X47696500Y108401600D01*
X47696500Y109401600D01*
X48696500Y109401600D01*
X48696500Y108401600D01*
X48696500Y108401600D01*
G37*
G36*
X6445200Y108566000D02*
G01*
X5137200Y108566000D01*
X5137200Y109874000D01*
X6445200Y109874000D01*
X6445200Y108566000D01*
X6445200Y108566000D01*
G37*
M02*
